G04*
G04 #@! TF.GenerationSoftware,Altium Limited,Altium Designer,18.1.9 (240)*
G04*
G04 Layer_Color=65535*
%FSLAX24Y24*%
%MOIN*%
G70*
G01*
G75*
%ADD10C,0.0098*%
%ADD11C,0.0100*%
%ADD12C,0.0070*%
%ADD13C,0.0059*%
%ADD14C,0.0079*%
%ADD15C,0.0040*%
G36*
X6454Y11509D02*
X6456D01*
X6464Y11508D01*
X6473Y11507D01*
X6482Y11505D01*
X6492Y11502D01*
X6501Y11499D01*
X6502D01*
X6503Y11499D01*
X6504Y11498D01*
X6506Y11497D01*
X6510Y11495D01*
X6515Y11491D01*
X6521Y11487D01*
X6528Y11482D01*
X6533Y11475D01*
X6539Y11468D01*
Y11468D01*
X6539Y11468D01*
X6540Y11466D01*
X6541Y11465D01*
X6543Y11461D01*
X6545Y11455D01*
X6548Y11449D01*
X6550Y11441D01*
X6553Y11433D01*
X6553Y11423D01*
X6517Y11421D01*
Y11421D01*
Y11422D01*
X6516Y11423D01*
X6516Y11425D01*
X6515Y11430D01*
X6513Y11436D01*
X6511Y11443D01*
X6507Y11449D01*
X6502Y11455D01*
X6496Y11461D01*
X6496Y11462D01*
X6493Y11463D01*
X6489Y11466D01*
X6484Y11468D01*
X6477Y11471D01*
X6469Y11473D01*
X6458Y11475D01*
X6446Y11475D01*
X6441D01*
X6438Y11475D01*
X6435Y11475D01*
X6427Y11474D01*
X6419Y11472D01*
X6411Y11470D01*
X6403Y11467D01*
X6399Y11465D01*
X6396Y11463D01*
X6395Y11462D01*
X6394Y11460D01*
X6391Y11458D01*
X6389Y11454D01*
X6386Y11450D01*
X6383Y11445D01*
X6382Y11439D01*
X6381Y11432D01*
Y11431D01*
Y11430D01*
X6381Y11427D01*
X6382Y11423D01*
X6383Y11419D01*
X6385Y11415D01*
X6388Y11411D01*
X6392Y11407D01*
X6392Y11406D01*
X6394Y11405D01*
X6396Y11404D01*
X6397Y11403D01*
X6400Y11402D01*
X6403Y11400D01*
X6407Y11399D01*
X6411Y11397D01*
X6415Y11396D01*
X6421Y11393D01*
X6427Y11392D01*
X6433Y11390D01*
X6441Y11388D01*
X6449Y11386D01*
X6449D01*
X6451Y11386D01*
X6454Y11385D01*
X6456Y11384D01*
X6460Y11383D01*
X6465Y11382D01*
X6469Y11381D01*
X6474Y11380D01*
X6485Y11377D01*
X6496Y11374D01*
X6501Y11372D01*
X6505Y11371D01*
X6509Y11369D01*
X6513Y11368D01*
X6513D01*
X6514Y11367D01*
X6515Y11366D01*
X6517Y11366D01*
X6521Y11363D01*
X6527Y11360D01*
X6533Y11355D01*
X6539Y11350D01*
X6545Y11344D01*
X6550Y11338D01*
X6550Y11337D01*
X6552Y11335D01*
X6554Y11331D01*
X6556Y11326D01*
X6558Y11321D01*
X6560Y11314D01*
X6562Y11306D01*
X6562Y11297D01*
Y11297D01*
Y11297D01*
Y11295D01*
Y11294D01*
X6561Y11289D01*
X6560Y11283D01*
X6559Y11277D01*
X6557Y11270D01*
X6553Y11262D01*
X6549Y11254D01*
Y11254D01*
X6548Y11253D01*
X6546Y11251D01*
X6543Y11247D01*
X6539Y11243D01*
X6534Y11238D01*
X6527Y11232D01*
X6520Y11227D01*
X6511Y11223D01*
X6511D01*
X6510Y11222D01*
X6508Y11222D01*
X6507Y11221D01*
X6504Y11220D01*
X6501Y11219D01*
X6495Y11217D01*
X6487Y11215D01*
X6477Y11213D01*
X6467Y11212D01*
X6456Y11212D01*
X6449D01*
X6446Y11212D01*
X6442D01*
X6438Y11213D01*
X6433Y11213D01*
X6422Y11215D01*
X6412Y11216D01*
X6401Y11219D01*
X6390Y11223D01*
X6390D01*
X6389Y11223D01*
X6388Y11224D01*
X6386Y11225D01*
X6381Y11227D01*
X6375Y11231D01*
X6369Y11236D01*
X6362Y11242D01*
X6355Y11249D01*
X6349Y11257D01*
Y11257D01*
X6348Y11258D01*
X6347Y11260D01*
X6346Y11261D01*
X6345Y11263D01*
X6344Y11266D01*
X6341Y11272D01*
X6338Y11280D01*
X6336Y11289D01*
X6334Y11299D01*
X6333Y11309D01*
X6369Y11312D01*
Y11312D01*
Y11312D01*
X6370Y11310D01*
Y11309D01*
X6370Y11305D01*
X6372Y11299D01*
X6373Y11294D01*
X6375Y11288D01*
X6378Y11282D01*
X6381Y11277D01*
X6381Y11276D01*
X6382Y11274D01*
X6385Y11272D01*
X6388Y11269D01*
X6392Y11265D01*
X6397Y11261D01*
X6403Y11257D01*
X6409Y11254D01*
X6410D01*
X6410Y11254D01*
X6412Y11253D01*
X6413Y11253D01*
X6417Y11252D01*
X6422Y11250D01*
X6429Y11248D01*
X6436Y11247D01*
X6445Y11246D01*
X6454Y11246D01*
X6458D01*
X6462Y11246D01*
X6467Y11247D01*
X6473Y11247D01*
X6479Y11248D01*
X6486Y11250D01*
X6492Y11252D01*
X6493Y11252D01*
X6495Y11253D01*
X6498Y11255D01*
X6502Y11257D01*
X6506Y11260D01*
X6510Y11262D01*
X6514Y11266D01*
X6517Y11270D01*
X6518Y11270D01*
X6518Y11272D01*
X6520Y11274D01*
X6521Y11277D01*
X6523Y11281D01*
X6524Y11285D01*
X6525Y11289D01*
X6526Y11294D01*
Y11295D01*
Y11297D01*
X6525Y11299D01*
X6525Y11303D01*
X6523Y11306D01*
X6522Y11310D01*
X6520Y11314D01*
X6517Y11318D01*
X6517Y11319D01*
X6516Y11320D01*
X6514Y11322D01*
X6511Y11324D01*
X6508Y11326D01*
X6503Y11329D01*
X6498Y11332D01*
X6491Y11335D01*
X6491Y11335D01*
X6489Y11336D01*
X6486Y11337D01*
X6484Y11337D01*
X6481Y11338D01*
X6478Y11339D01*
X6474Y11340D01*
X6470Y11341D01*
X6465Y11343D01*
X6460Y11344D01*
X6454Y11346D01*
X6447Y11347D01*
X6440Y11349D01*
X6440D01*
X6439Y11349D01*
X6436Y11350D01*
X6434Y11351D01*
X6431Y11351D01*
X6427Y11352D01*
X6419Y11355D01*
X6409Y11358D01*
X6400Y11361D01*
X6392Y11364D01*
X6388Y11365D01*
X6385Y11367D01*
X6384D01*
X6384Y11367D01*
X6381Y11369D01*
X6377Y11371D01*
X6373Y11374D01*
X6368Y11378D01*
X6363Y11383D01*
X6358Y11388D01*
X6354Y11394D01*
X6354Y11395D01*
X6352Y11397D01*
X6351Y11400D01*
X6349Y11404D01*
X6347Y11410D01*
X6346Y11416D01*
X6345Y11423D01*
X6344Y11430D01*
Y11430D01*
Y11430D01*
Y11432D01*
Y11433D01*
X6345Y11438D01*
X6346Y11443D01*
X6347Y11449D01*
X6349Y11456D01*
X6352Y11463D01*
X6356Y11470D01*
Y11471D01*
X6357Y11471D01*
X6359Y11474D01*
X6362Y11477D01*
X6365Y11481D01*
X6370Y11486D01*
X6377Y11491D01*
X6384Y11495D01*
X6392Y11500D01*
X6393D01*
X6394Y11500D01*
X6395Y11500D01*
X6397Y11501D01*
X6399Y11502D01*
X6402Y11503D01*
X6408Y11505D01*
X6416Y11506D01*
X6425Y11508D01*
X6434Y11509D01*
X6445Y11510D01*
X6451D01*
X6454Y11509D01*
D02*
G37*
G36*
X6746D02*
X6750Y11509D01*
X6754Y11508D01*
X6759Y11508D01*
X6764Y11507D01*
X6776Y11504D01*
X6788Y11500D01*
X6794Y11498D01*
X6800Y11495D01*
X6806Y11491D01*
X6812Y11487D01*
X6812Y11487D01*
X6813Y11487D01*
X6815Y11485D01*
X6817Y11483D01*
X6819Y11481D01*
X6822Y11478D01*
X6825Y11475D01*
X6828Y11472D01*
X6831Y11468D01*
X6835Y11463D01*
X6838Y11458D01*
X6842Y11452D01*
X6845Y11446D01*
X6848Y11440D01*
X6850Y11433D01*
X6853Y11425D01*
X6815Y11417D01*
Y11417D01*
X6815Y11418D01*
X6814Y11420D01*
X6813Y11422D01*
X6813Y11424D01*
X6811Y11428D01*
X6808Y11434D01*
X6804Y11442D01*
X6799Y11449D01*
X6793Y11456D01*
X6786Y11463D01*
X6785Y11463D01*
X6783Y11465D01*
X6778Y11467D01*
X6773Y11470D01*
X6766Y11473D01*
X6758Y11475D01*
X6748Y11477D01*
X6738Y11477D01*
X6735D01*
X6733Y11477D01*
X6730D01*
X6726Y11476D01*
X6719Y11475D01*
X6710Y11473D01*
X6701Y11470D01*
X6691Y11466D01*
X6682Y11461D01*
X6682D01*
X6682Y11460D01*
X6679Y11458D01*
X6675Y11455D01*
X6670Y11450D01*
X6665Y11443D01*
X6660Y11436D01*
X6655Y11428D01*
X6651Y11418D01*
Y11418D01*
X6651Y11417D01*
X6650Y11416D01*
X6650Y11413D01*
X6649Y11411D01*
X6648Y11408D01*
X6647Y11401D01*
X6645Y11393D01*
X6644Y11383D01*
X6643Y11373D01*
X6642Y11363D01*
Y11362D01*
Y11361D01*
Y11359D01*
Y11356D01*
X6643Y11354D01*
Y11350D01*
X6643Y11346D01*
X6644Y11341D01*
X6645Y11331D01*
X6647Y11320D01*
X6649Y11309D01*
X6653Y11299D01*
Y11298D01*
X6653Y11297D01*
X6654Y11296D01*
X6655Y11294D01*
X6657Y11289D01*
X6661Y11283D01*
X6666Y11277D01*
X6672Y11270D01*
X6678Y11263D01*
X6686Y11257D01*
X6687D01*
X6687Y11257D01*
X6689Y11256D01*
X6690Y11255D01*
X6692Y11255D01*
X6695Y11253D01*
X6701Y11251D01*
X6708Y11248D01*
X6716Y11246D01*
X6726Y11245D01*
X6735Y11244D01*
X6738D01*
X6741Y11245D01*
X6744D01*
X6746Y11245D01*
X6754Y11247D01*
X6763Y11249D01*
X6771Y11252D01*
X6781Y11257D01*
X6785Y11259D01*
X6789Y11262D01*
X6790Y11263D01*
X6790Y11263D01*
X6791Y11265D01*
X6793Y11266D01*
X6795Y11268D01*
X6797Y11270D01*
X6799Y11273D01*
X6801Y11276D01*
X6804Y11280D01*
X6807Y11284D01*
X6809Y11288D01*
X6812Y11293D01*
X6814Y11299D01*
X6816Y11304D01*
X6818Y11311D01*
X6820Y11317D01*
X6858Y11308D01*
Y11307D01*
X6857Y11306D01*
X6857Y11303D01*
X6855Y11300D01*
X6854Y11296D01*
X6852Y11292D01*
X6850Y11287D01*
X6848Y11281D01*
X6842Y11270D01*
X6835Y11258D01*
X6830Y11252D01*
X6825Y11246D01*
X6820Y11241D01*
X6815Y11236D01*
X6814Y11236D01*
X6813Y11235D01*
X6811Y11234D01*
X6809Y11232D01*
X6806Y11230D01*
X6803Y11228D01*
X6798Y11226D01*
X6793Y11224D01*
X6788Y11222D01*
X6782Y11220D01*
X6776Y11217D01*
X6769Y11215D01*
X6762Y11214D01*
X6755Y11213D01*
X6747Y11212D01*
X6739Y11212D01*
X6734D01*
X6731Y11212D01*
X6727D01*
X6722Y11213D01*
X6717Y11213D01*
X6711Y11214D01*
X6699Y11216D01*
X6687Y11220D01*
X6674Y11224D01*
X6669Y11227D01*
X6663Y11230D01*
X6662Y11231D01*
X6662Y11231D01*
X6660Y11232D01*
X6658Y11234D01*
X6656Y11236D01*
X6653Y11238D01*
X6649Y11241D01*
X6646Y11245D01*
X6643Y11248D01*
X6639Y11252D01*
X6632Y11262D01*
X6625Y11273D01*
X6618Y11285D01*
Y11286D01*
X6617Y11287D01*
X6617Y11289D01*
X6616Y11292D01*
X6615Y11295D01*
X6614Y11299D01*
X6612Y11304D01*
X6611Y11309D01*
X6610Y11314D01*
X6608Y11320D01*
X6606Y11333D01*
X6604Y11348D01*
X6603Y11363D01*
Y11363D01*
Y11365D01*
Y11367D01*
X6604Y11370D01*
Y11374D01*
X6604Y11378D01*
X6605Y11384D01*
X6605Y11389D01*
X6607Y11401D01*
X6610Y11415D01*
X6615Y11428D01*
X6620Y11441D01*
X6621Y11441D01*
X6621Y11443D01*
X6622Y11444D01*
X6624Y11446D01*
X6625Y11449D01*
X6627Y11453D01*
X6633Y11460D01*
X6640Y11468D01*
X6648Y11477D01*
X6658Y11485D01*
X6669Y11492D01*
X6669Y11492D01*
X6671Y11493D01*
X6672Y11494D01*
X6674Y11495D01*
X6678Y11496D01*
X6681Y11497D01*
X6685Y11499D01*
X6690Y11501D01*
X6695Y11502D01*
X6700Y11504D01*
X6712Y11507D01*
X6725Y11509D01*
X6739Y11510D01*
X6743D01*
X6746Y11509D01*
D02*
G37*
G36*
X6942Y11251D02*
X7083D01*
Y11217D01*
X6903D01*
Y11505D01*
X6942D01*
Y11251D01*
D02*
G37*
G36*
X8067Y11504D02*
X8071Y11504D01*
X8075Y11503D01*
X8080Y11503D01*
X8085Y11502D01*
X8096Y11499D01*
X8109Y11495D01*
X8115Y11493D01*
X8121Y11490D01*
X8127Y11486D01*
X8132Y11482D01*
X8133Y11482D01*
X8134Y11482D01*
X8135Y11480D01*
X8137Y11478D01*
X8140Y11476D01*
X8142Y11473D01*
X8145Y11470D01*
X8149Y11467D01*
X8152Y11463D01*
X8155Y11458D01*
X8159Y11453D01*
X8162Y11447D01*
X8165Y11441D01*
X8169Y11435D01*
X8171Y11428D01*
X8174Y11421D01*
X8136Y11412D01*
Y11412D01*
X8136Y11413D01*
X8135Y11415D01*
X8134Y11417D01*
X8133Y11419D01*
X8132Y11423D01*
X8129Y11429D01*
X8125Y11437D01*
X8120Y11444D01*
X8113Y11451D01*
X8107Y11458D01*
X8106Y11458D01*
X8103Y11460D01*
X8099Y11462D01*
X8094Y11465D01*
X8087Y11468D01*
X8079Y11470D01*
X8069Y11472D01*
X8059Y11472D01*
X8056D01*
X8053Y11472D01*
X8051D01*
X8047Y11471D01*
X8039Y11470D01*
X8031Y11468D01*
X8021Y11465D01*
X8012Y11461D01*
X8003Y11456D01*
X8003D01*
X8002Y11455D01*
X7999Y11453D01*
X7996Y11450D01*
X7991Y11445D01*
X7986Y11438D01*
X7981Y11431D01*
X7976Y11423D01*
X7972Y11413D01*
Y11413D01*
X7972Y11412D01*
X7971Y11411D01*
X7971Y11408D01*
X7970Y11406D01*
X7969Y11403D01*
X7968Y11396D01*
X7966Y11388D01*
X7964Y11378D01*
X7964Y11368D01*
X7963Y11358D01*
Y11357D01*
Y11356D01*
Y11354D01*
Y11351D01*
X7964Y11349D01*
Y11345D01*
X7964Y11341D01*
X7964Y11336D01*
X7966Y11326D01*
X7968Y11315D01*
X7970Y11304D01*
X7974Y11294D01*
Y11293D01*
X7974Y11292D01*
X7975Y11291D01*
X7976Y11289D01*
X7978Y11284D01*
X7982Y11278D01*
X7986Y11272D01*
X7992Y11264D01*
X7999Y11258D01*
X8007Y11252D01*
X8007D01*
X8008Y11252D01*
X8009Y11251D01*
X8011Y11250D01*
X8013Y11250D01*
X8016Y11248D01*
X8021Y11246D01*
X8029Y11243D01*
X8037Y11241D01*
X8046Y11240D01*
X8056Y11239D01*
X8059D01*
X8061Y11240D01*
X8064D01*
X8067Y11240D01*
X8075Y11242D01*
X8083Y11244D01*
X8092Y11247D01*
X8101Y11252D01*
X8106Y11254D01*
X8110Y11257D01*
X8110Y11258D01*
X8111Y11258D01*
X8112Y11260D01*
X8114Y11261D01*
X8115Y11263D01*
X8118Y11265D01*
X8120Y11268D01*
X8122Y11271D01*
X8125Y11275D01*
X8127Y11279D01*
X8130Y11283D01*
X8132Y11288D01*
X8135Y11294D01*
X8137Y11299D01*
X8139Y11306D01*
X8140Y11312D01*
X8179Y11303D01*
Y11302D01*
X8178Y11301D01*
X8177Y11298D01*
X8176Y11295D01*
X8175Y11291D01*
X8173Y11287D01*
X8171Y11282D01*
X8169Y11276D01*
X8163Y11264D01*
X8155Y11253D01*
X8151Y11247D01*
X8146Y11241D01*
X8141Y11236D01*
X8135Y11231D01*
X8135Y11231D01*
X8134Y11230D01*
X8132Y11229D01*
X8130Y11227D01*
X8127Y11225D01*
X8123Y11223D01*
X8119Y11221D01*
X8114Y11219D01*
X8109Y11217D01*
X8103Y11215D01*
X8097Y11213D01*
X8090Y11210D01*
X8083Y11209D01*
X8076Y11208D01*
X8068Y11207D01*
X8059Y11207D01*
X8055D01*
X8051Y11207D01*
X8048D01*
X8043Y11208D01*
X8038Y11208D01*
X8032Y11209D01*
X8020Y11211D01*
X8008Y11215D01*
X7995Y11219D01*
X7989Y11222D01*
X7984Y11225D01*
X7983Y11226D01*
X7982Y11226D01*
X7981Y11227D01*
X7979Y11229D01*
X7976Y11231D01*
X7974Y11233D01*
X7970Y11236D01*
X7967Y11240D01*
X7964Y11243D01*
X7960Y11247D01*
X7952Y11257D01*
X7945Y11268D01*
X7939Y11280D01*
Y11281D01*
X7938Y11282D01*
X7938Y11284D01*
X7937Y11287D01*
X7936Y11290D01*
X7934Y11294D01*
X7933Y11299D01*
X7932Y11304D01*
X7930Y11309D01*
X7929Y11315D01*
X7927Y11328D01*
X7925Y11343D01*
X7924Y11358D01*
Y11358D01*
Y11360D01*
Y11362D01*
X7924Y11365D01*
Y11369D01*
X7925Y11373D01*
X7925Y11379D01*
X7926Y11384D01*
X7928Y11396D01*
X7931Y11410D01*
X7935Y11423D01*
X7941Y11436D01*
X7942Y11436D01*
X7942Y11438D01*
X7943Y11439D01*
X7944Y11441D01*
X7946Y11444D01*
X7948Y11448D01*
X7954Y11455D01*
X7961Y11463D01*
X7969Y11472D01*
X7979Y11480D01*
X7990Y11487D01*
X7990Y11487D01*
X7991Y11488D01*
X7993Y11489D01*
X7995Y11490D01*
X7999Y11491D01*
X8002Y11492D01*
X8006Y11494D01*
X8011Y11496D01*
X8016Y11497D01*
X8021Y11499D01*
X8033Y11502D01*
X8046Y11504D01*
X8060Y11505D01*
X8064D01*
X8067Y11504D01*
D02*
G37*
G36*
X7776D02*
X7780Y11504D01*
X7785Y11503D01*
X7789Y11503D01*
X7795Y11502D01*
X7806Y11499D01*
X7818Y11495D01*
X7825Y11493D01*
X7830Y11490D01*
X7836Y11486D01*
X7842Y11482D01*
X7843Y11482D01*
X7843Y11482D01*
X7845Y11480D01*
X7847Y11478D01*
X7849Y11476D01*
X7852Y11473D01*
X7855Y11470D01*
X7858Y11467D01*
X7862Y11463D01*
X7865Y11458D01*
X7869Y11453D01*
X7872Y11447D01*
X7875Y11441D01*
X7878Y11435D01*
X7881Y11428D01*
X7883Y11421D01*
X7846Y11412D01*
Y11412D01*
X7845Y11413D01*
X7845Y11415D01*
X7844Y11417D01*
X7843Y11419D01*
X7842Y11423D01*
X7838Y11429D01*
X7834Y11437D01*
X7829Y11444D01*
X7823Y11451D01*
X7816Y11458D01*
X7815Y11458D01*
X7813Y11460D01*
X7809Y11462D01*
X7803Y11465D01*
X7796Y11468D01*
X7788Y11470D01*
X7779Y11472D01*
X7768Y11472D01*
X7765D01*
X7763Y11472D01*
X7760D01*
X7757Y11471D01*
X7749Y11470D01*
X7740Y11468D01*
X7731Y11465D01*
X7721Y11461D01*
X7713Y11456D01*
X7712D01*
X7712Y11455D01*
X7709Y11453D01*
X7705Y11450D01*
X7701Y11445D01*
X7695Y11438D01*
X7690Y11431D01*
X7686Y11423D01*
X7682Y11413D01*
Y11413D01*
X7681Y11412D01*
X7681Y11411D01*
X7680Y11408D01*
X7679Y11406D01*
X7679Y11403D01*
X7677Y11396D01*
X7676Y11388D01*
X7674Y11378D01*
X7673Y11368D01*
X7673Y11358D01*
Y11357D01*
Y11356D01*
Y11354D01*
Y11351D01*
X7673Y11349D01*
Y11345D01*
X7674Y11341D01*
X7674Y11336D01*
X7675Y11326D01*
X7677Y11315D01*
X7680Y11304D01*
X7683Y11294D01*
Y11293D01*
X7684Y11292D01*
X7684Y11291D01*
X7685Y11289D01*
X7688Y11284D01*
X7692Y11278D01*
X7696Y11272D01*
X7702Y11264D01*
X7709Y11258D01*
X7716Y11252D01*
X7717D01*
X7718Y11252D01*
X7719Y11251D01*
X7721Y11250D01*
X7723Y11250D01*
X7725Y11248D01*
X7731Y11246D01*
X7739Y11243D01*
X7747Y11241D01*
X7756Y11240D01*
X7766Y11239D01*
X7768D01*
X7771Y11240D01*
X7774D01*
X7777Y11240D01*
X7784Y11242D01*
X7793Y11244D01*
X7802Y11247D01*
X7811Y11252D01*
X7815Y11254D01*
X7820Y11257D01*
X7820Y11258D01*
X7820Y11258D01*
X7822Y11260D01*
X7823Y11261D01*
X7825Y11263D01*
X7827Y11265D01*
X7830Y11268D01*
X7832Y11271D01*
X7834Y11275D01*
X7837Y11279D01*
X7840Y11283D01*
X7842Y11288D01*
X7844Y11294D01*
X7846Y11299D01*
X7848Y11306D01*
X7850Y11312D01*
X7888Y11303D01*
Y11302D01*
X7888Y11301D01*
X7887Y11298D01*
X7886Y11295D01*
X7885Y11291D01*
X7883Y11287D01*
X7881Y11282D01*
X7878Y11276D01*
X7872Y11264D01*
X7865Y11253D01*
X7860Y11247D01*
X7856Y11241D01*
X7851Y11236D01*
X7845Y11231D01*
X7845Y11231D01*
X7844Y11230D01*
X7842Y11229D01*
X7840Y11227D01*
X7836Y11225D01*
X7833Y11223D01*
X7828Y11221D01*
X7824Y11219D01*
X7818Y11217D01*
X7813Y11215D01*
X7806Y11213D01*
X7800Y11210D01*
X7793Y11209D01*
X7785Y11208D01*
X7777Y11207D01*
X7769Y11207D01*
X7764D01*
X7761Y11207D01*
X7757D01*
X7753Y11208D01*
X7748Y11208D01*
X7742Y11209D01*
X7730Y11211D01*
X7717Y11215D01*
X7705Y11219D01*
X7699Y11222D01*
X7693Y11225D01*
X7693Y11226D01*
X7692Y11226D01*
X7690Y11227D01*
X7689Y11229D01*
X7686Y11231D01*
X7683Y11233D01*
X7680Y11236D01*
X7677Y11240D01*
X7673Y11243D01*
X7669Y11247D01*
X7662Y11257D01*
X7655Y11268D01*
X7649Y11280D01*
Y11281D01*
X7648Y11282D01*
X7647Y11284D01*
X7646Y11287D01*
X7645Y11290D01*
X7644Y11294D01*
X7642Y11299D01*
X7641Y11304D01*
X7640Y11309D01*
X7638Y11315D01*
X7636Y11328D01*
X7635Y11343D01*
X7634Y11358D01*
Y11358D01*
Y11360D01*
Y11362D01*
X7634Y11365D01*
Y11369D01*
X7635Y11373D01*
X7635Y11379D01*
X7636Y11384D01*
X7638Y11396D01*
X7641Y11410D01*
X7645Y11423D01*
X7651Y11436D01*
X7651Y11436D01*
X7652Y11438D01*
X7652Y11439D01*
X7654Y11441D01*
X7656Y11444D01*
X7658Y11448D01*
X7663Y11455D01*
X7670Y11463D01*
X7679Y11472D01*
X7688Y11480D01*
X7699Y11487D01*
X7700Y11487D01*
X7701Y11488D01*
X7703Y11489D01*
X7705Y11490D01*
X7708Y11491D01*
X7711Y11492D01*
X7716Y11494D01*
X7720Y11496D01*
X7725Y11497D01*
X7731Y11499D01*
X7742Y11502D01*
X7756Y11504D01*
X7769Y11505D01*
X7773D01*
X7776Y11504D01*
D02*
G37*
G36*
X7498Y11212D02*
X7458D01*
X7347Y11500D01*
X7388D01*
X7463Y11290D01*
Y11290D01*
X7464Y11289D01*
X7464Y11288D01*
X7465Y11286D01*
X7465Y11284D01*
X7466Y11281D01*
X7468Y11275D01*
X7471Y11268D01*
X7473Y11260D01*
X7478Y11243D01*
Y11244D01*
X7479Y11245D01*
X7479Y11246D01*
X7479Y11247D01*
X7481Y11252D01*
X7483Y11258D01*
X7485Y11265D01*
X7487Y11273D01*
X7490Y11282D01*
X7494Y11290D01*
X7572Y11500D01*
X7610D01*
X7498Y11212D01*
D02*
G37*
G36*
X5440Y11517D02*
X5443D01*
X5451Y11517D01*
X5460Y11515D01*
X5469Y11513D01*
X5479Y11511D01*
X5488Y11507D01*
X5488D01*
X5489Y11507D01*
X5491Y11506D01*
X5492Y11505D01*
X5496Y11503D01*
X5502Y11500D01*
X5508Y11495D01*
X5514Y11490D01*
X5520Y11484D01*
X5526Y11477D01*
Y11476D01*
X5526Y11476D01*
X5527Y11475D01*
X5528Y11473D01*
X5530Y11469D01*
X5532Y11464D01*
X5535Y11457D01*
X5537Y11449D01*
X5539Y11441D01*
X5540Y11432D01*
X5503Y11429D01*
Y11429D01*
Y11430D01*
X5503Y11431D01*
X5503Y11433D01*
X5501Y11438D01*
X5500Y11444D01*
X5497Y11451D01*
X5493Y11458D01*
X5489Y11464D01*
X5483Y11470D01*
X5482Y11470D01*
X5480Y11472D01*
X5476Y11474D01*
X5471Y11477D01*
X5464Y11479D01*
X5455Y11482D01*
X5445Y11483D01*
X5433Y11484D01*
X5427D01*
X5425Y11483D01*
X5422Y11483D01*
X5414Y11482D01*
X5406Y11480D01*
X5397Y11478D01*
X5389Y11475D01*
X5386Y11473D01*
X5383Y11471D01*
X5382Y11470D01*
X5380Y11469D01*
X5378Y11466D01*
X5375Y11463D01*
X5372Y11458D01*
X5370Y11453D01*
X5368Y11447D01*
X5367Y11440D01*
Y11440D01*
Y11438D01*
X5368Y11435D01*
X5369Y11432D01*
X5370Y11428D01*
X5372Y11423D01*
X5375Y11419D01*
X5378Y11415D01*
X5379Y11415D01*
X5381Y11413D01*
X5382Y11412D01*
X5384Y11411D01*
X5387Y11410D01*
X5389Y11408D01*
X5393Y11407D01*
X5397Y11406D01*
X5402Y11404D01*
X5407Y11402D01*
X5413Y11400D01*
X5420Y11398D01*
X5427Y11396D01*
X5436Y11394D01*
X5436D01*
X5438Y11394D01*
X5440Y11393D01*
X5443Y11393D01*
X5447Y11392D01*
X5451Y11391D01*
X5456Y11389D01*
X5461Y11388D01*
X5472Y11385D01*
X5482Y11382D01*
X5487Y11381D01*
X5492Y11379D01*
X5496Y11378D01*
X5499Y11376D01*
X5500D01*
X5501Y11376D01*
X5502Y11375D01*
X5503Y11374D01*
X5508Y11371D01*
X5513Y11368D01*
X5520Y11364D01*
X5526Y11359D01*
X5532Y11353D01*
X5537Y11346D01*
X5537Y11346D01*
X5539Y11344D01*
X5540Y11340D01*
X5543Y11335D01*
X5545Y11329D01*
X5547Y11322D01*
X5548Y11314D01*
X5549Y11306D01*
Y11305D01*
Y11305D01*
Y11304D01*
Y11302D01*
X5548Y11297D01*
X5547Y11292D01*
X5545Y11285D01*
X5543Y11278D01*
X5540Y11270D01*
X5535Y11262D01*
Y11262D01*
X5535Y11262D01*
X5533Y11259D01*
X5530Y11255D01*
X5526Y11251D01*
X5521Y11246D01*
X5514Y11241D01*
X5506Y11236D01*
X5498Y11231D01*
X5497D01*
X5496Y11231D01*
X5495Y11230D01*
X5493Y11230D01*
X5491Y11229D01*
X5488Y11227D01*
X5481Y11226D01*
X5473Y11224D01*
X5464Y11222D01*
X5454Y11220D01*
X5442Y11220D01*
X5436D01*
X5432Y11220D01*
X5429D01*
X5424Y11221D01*
X5419Y11221D01*
X5409Y11223D01*
X5398Y11225D01*
X5387Y11227D01*
X5377Y11231D01*
X5377D01*
X5376Y11232D01*
X5375Y11232D01*
X5373Y11233D01*
X5368Y11236D01*
X5362Y11240D01*
X5355Y11245D01*
X5348Y11250D01*
X5342Y11257D01*
X5335Y11265D01*
Y11266D01*
X5335Y11267D01*
X5334Y11268D01*
X5333Y11270D01*
X5332Y11272D01*
X5331Y11274D01*
X5328Y11280D01*
X5325Y11288D01*
X5322Y11297D01*
X5321Y11307D01*
X5320Y11317D01*
X5356Y11321D01*
Y11320D01*
Y11320D01*
X5356Y11319D01*
Y11317D01*
X5357Y11313D01*
X5358Y11308D01*
X5360Y11302D01*
X5362Y11296D01*
X5365Y11290D01*
X5367Y11285D01*
X5368Y11284D01*
X5369Y11283D01*
X5371Y11280D01*
X5375Y11277D01*
X5379Y11273D01*
X5383Y11270D01*
X5389Y11266D01*
X5396Y11262D01*
X5397D01*
X5397Y11262D01*
X5398Y11262D01*
X5399Y11261D01*
X5404Y11260D01*
X5409Y11258D01*
X5416Y11257D01*
X5423Y11255D01*
X5431Y11255D01*
X5441Y11254D01*
X5444D01*
X5449Y11255D01*
X5454Y11255D01*
X5459Y11256D01*
X5466Y11257D01*
X5473Y11258D01*
X5479Y11260D01*
X5480Y11261D01*
X5482Y11262D01*
X5485Y11263D01*
X5488Y11265D01*
X5492Y11268D01*
X5496Y11271D01*
X5501Y11274D01*
X5504Y11278D01*
X5504Y11279D01*
X5505Y11280D01*
X5506Y11282D01*
X5508Y11286D01*
X5510Y11289D01*
X5511Y11293D01*
X5512Y11298D01*
X5512Y11303D01*
Y11303D01*
Y11305D01*
X5512Y11308D01*
X5511Y11311D01*
X5510Y11314D01*
X5509Y11319D01*
X5507Y11323D01*
X5504Y11327D01*
X5503Y11327D01*
X5502Y11328D01*
X5501Y11330D01*
X5498Y11332D01*
X5494Y11335D01*
X5490Y11338D01*
X5484Y11341D01*
X5478Y11343D01*
X5478Y11344D01*
X5476Y11344D01*
X5472Y11345D01*
X5470Y11346D01*
X5467Y11346D01*
X5464Y11348D01*
X5461Y11349D01*
X5456Y11350D01*
X5451Y11351D01*
X5446Y11352D01*
X5441Y11354D01*
X5434Y11356D01*
X5427Y11357D01*
X5426D01*
X5425Y11358D01*
X5423Y11358D01*
X5421Y11359D01*
X5417Y11360D01*
X5414Y11361D01*
X5405Y11363D01*
X5396Y11366D01*
X5387Y11369D01*
X5378Y11372D01*
X5375Y11373D01*
X5371Y11375D01*
X5371D01*
X5370Y11376D01*
X5368Y11377D01*
X5364Y11379D01*
X5360Y11383D01*
X5355Y11386D01*
X5350Y11391D01*
X5345Y11396D01*
X5341Y11402D01*
X5340Y11403D01*
X5339Y11405D01*
X5337Y11408D01*
X5336Y11413D01*
X5334Y11418D01*
X5332Y11424D01*
X5331Y11431D01*
X5331Y11438D01*
Y11438D01*
Y11439D01*
Y11440D01*
Y11442D01*
X5332Y11446D01*
X5332Y11451D01*
X5334Y11458D01*
X5336Y11465D01*
X5339Y11472D01*
X5343Y11479D01*
Y11479D01*
X5343Y11480D01*
X5345Y11482D01*
X5348Y11485D01*
X5352Y11490D01*
X5357Y11494D01*
X5363Y11499D01*
X5371Y11504D01*
X5379Y11508D01*
X5379D01*
X5380Y11508D01*
X5382Y11509D01*
X5383Y11510D01*
X5385Y11510D01*
X5388Y11511D01*
X5394Y11513D01*
X5402Y11515D01*
X5412Y11516D01*
X5421Y11517D01*
X5432Y11518D01*
X5437D01*
X5440Y11517D01*
D02*
G37*
G36*
X6129Y11225D02*
X6086D01*
X6052Y11312D01*
X5932D01*
X5900Y11225D01*
X5860D01*
X5970Y11513D01*
X6011D01*
X6129Y11225D01*
D02*
G37*
G36*
X5719Y11512D02*
X5728Y11512D01*
X5736Y11511D01*
X5744Y11510D01*
X5751Y11509D01*
X5752D01*
X5753Y11508D01*
X5754D01*
X5756Y11507D01*
X5760Y11506D01*
X5766Y11504D01*
X5773Y11501D01*
X5780Y11497D01*
X5787Y11493D01*
X5793Y11488D01*
X5794Y11487D01*
X5794Y11487D01*
X5795Y11486D01*
X5797Y11485D01*
X5801Y11480D01*
X5806Y11475D01*
X5812Y11468D01*
X5818Y11459D01*
X5823Y11450D01*
X5828Y11439D01*
Y11438D01*
X5828Y11438D01*
X5829Y11436D01*
X5829Y11433D01*
X5830Y11430D01*
X5831Y11427D01*
X5832Y11423D01*
X5833Y11419D01*
X5835Y11414D01*
X5835Y11409D01*
X5838Y11397D01*
X5839Y11384D01*
X5839Y11370D01*
Y11370D01*
Y11369D01*
Y11367D01*
Y11365D01*
X5839Y11362D01*
Y11359D01*
X5838Y11351D01*
X5837Y11341D01*
X5836Y11332D01*
X5834Y11322D01*
X5831Y11312D01*
Y11312D01*
X5831Y11311D01*
X5830Y11309D01*
X5830Y11308D01*
X5828Y11303D01*
X5826Y11297D01*
X5823Y11291D01*
X5820Y11284D01*
X5816Y11277D01*
X5812Y11270D01*
X5811Y11270D01*
X5810Y11267D01*
X5807Y11265D01*
X5804Y11261D01*
X5800Y11257D01*
X5795Y11252D01*
X5791Y11248D01*
X5785Y11244D01*
X5785Y11244D01*
X5783Y11242D01*
X5780Y11241D01*
X5776Y11239D01*
X5771Y11236D01*
X5765Y11234D01*
X5758Y11232D01*
X5751Y11230D01*
X5750D01*
X5749Y11229D01*
X5748Y11229D01*
X5743Y11228D01*
X5738Y11227D01*
X5731Y11227D01*
X5723Y11226D01*
X5714Y11225D01*
X5705Y11225D01*
X5601D01*
Y11513D01*
X5712D01*
X5719Y11512D01*
D02*
G37*
G36*
X8512Y11504D02*
X8515D01*
X8523Y11503D01*
X8532Y11502D01*
X8541Y11500D01*
X8551Y11497D01*
X8561Y11494D01*
X8561D01*
X8562Y11494D01*
X8563Y11493D01*
X8565Y11492D01*
X8569Y11490D01*
X8575Y11487D01*
X8581Y11483D01*
X8588Y11478D01*
X8594Y11473D01*
X8600Y11466D01*
X8601Y11465D01*
X8603Y11463D01*
X8605Y11459D01*
X8608Y11453D01*
X8612Y11447D01*
X8615Y11438D01*
X8619Y11429D01*
X8622Y11419D01*
X8588Y11410D01*
Y11410D01*
X8587Y11411D01*
X8587Y11412D01*
X8586Y11413D01*
X8585Y11417D01*
X8583Y11422D01*
X8581Y11428D01*
X8578Y11433D01*
X8575Y11439D01*
X8571Y11444D01*
X8571Y11445D01*
X8570Y11446D01*
X8567Y11448D01*
X8564Y11451D01*
X8561Y11455D01*
X8556Y11458D01*
X8550Y11461D01*
X8544Y11464D01*
X8543Y11465D01*
X8541Y11465D01*
X8537Y11467D01*
X8532Y11468D01*
X8526Y11470D01*
X8520Y11471D01*
X8512Y11472D01*
X8504Y11472D01*
X8500D01*
X8498Y11472D01*
X8495D01*
X8489Y11471D01*
X8482Y11470D01*
X8474Y11469D01*
X8466Y11467D01*
X8459Y11464D01*
X8458Y11463D01*
X8456Y11463D01*
X8452Y11460D01*
X8448Y11458D01*
X8443Y11455D01*
X8438Y11452D01*
X8433Y11448D01*
X8428Y11443D01*
X8428Y11443D01*
X8426Y11441D01*
X8424Y11438D01*
X8422Y11435D01*
X8419Y11430D01*
X8416Y11425D01*
X8413Y11420D01*
X8410Y11414D01*
Y11414D01*
X8410Y11413D01*
X8409Y11412D01*
X8408Y11410D01*
X8407Y11407D01*
X8407Y11404D01*
X8405Y11401D01*
X8405Y11397D01*
X8402Y11388D01*
X8401Y11378D01*
X8400Y11368D01*
X8399Y11356D01*
Y11356D01*
Y11355D01*
Y11353D01*
X8400Y11350D01*
Y11347D01*
X8400Y11343D01*
X8400Y11339D01*
X8401Y11334D01*
X8402Y11324D01*
X8405Y11313D01*
X8408Y11302D01*
X8412Y11292D01*
Y11291D01*
X8413Y11290D01*
X8413Y11289D01*
X8414Y11287D01*
X8417Y11283D01*
X8422Y11277D01*
X8427Y11271D01*
X8434Y11264D01*
X8442Y11259D01*
X8451Y11253D01*
X8451D01*
X8452Y11253D01*
X8453Y11252D01*
X8455Y11251D01*
X8457Y11250D01*
X8460Y11250D01*
X8467Y11247D01*
X8475Y11245D01*
X8484Y11243D01*
X8494Y11241D01*
X8505Y11241D01*
X8509D01*
X8511Y11241D01*
X8514D01*
X8520Y11242D01*
X8528Y11243D01*
X8536Y11245D01*
X8544Y11247D01*
X8553Y11250D01*
X8553D01*
X8554Y11250D01*
X8555Y11251D01*
X8557Y11252D01*
X8561Y11254D01*
X8566Y11256D01*
X8572Y11259D01*
X8578Y11262D01*
X8584Y11266D01*
X8589Y11270D01*
Y11324D01*
X8504D01*
Y11359D01*
X8627D01*
Y11252D01*
X8626Y11251D01*
X8625Y11251D01*
X8624Y11250D01*
X8622Y11248D01*
X8619Y11246D01*
X8616Y11244D01*
X8613Y11242D01*
X8609Y11239D01*
X8600Y11234D01*
X8590Y11228D01*
X8580Y11222D01*
X8568Y11218D01*
X8568D01*
X8567Y11217D01*
X8565Y11217D01*
X8563Y11216D01*
X8561Y11215D01*
X8557Y11214D01*
X8553Y11213D01*
X8550Y11213D01*
X8541Y11210D01*
X8530Y11208D01*
X8519Y11207D01*
X8507Y11207D01*
X8503D01*
X8500Y11207D01*
X8496D01*
X8492Y11208D01*
X8487Y11208D01*
X8481Y11209D01*
X8469Y11211D01*
X8457Y11214D01*
X8443Y11219D01*
X8437Y11221D01*
X8430Y11225D01*
X8429Y11225D01*
X8428Y11225D01*
X8427Y11227D01*
X8424Y11228D01*
X8421Y11230D01*
X8418Y11232D01*
X8410Y11238D01*
X8402Y11245D01*
X8393Y11255D01*
X8385Y11265D01*
X8377Y11277D01*
Y11277D01*
X8377Y11279D01*
X8376Y11280D01*
X8375Y11283D01*
X8373Y11286D01*
X8372Y11290D01*
X8370Y11294D01*
X8369Y11299D01*
X8367Y11305D01*
X8365Y11311D01*
X8364Y11317D01*
X8363Y11324D01*
X8361Y11339D01*
X8360Y11354D01*
Y11354D01*
Y11356D01*
Y11358D01*
X8360Y11361D01*
Y11365D01*
X8361Y11369D01*
X8362Y11374D01*
X8362Y11379D01*
X8363Y11385D01*
X8364Y11391D01*
X8367Y11405D01*
X8372Y11418D01*
X8377Y11432D01*
X8378Y11433D01*
X8378Y11434D01*
X8379Y11435D01*
X8381Y11438D01*
X8382Y11441D01*
X8385Y11445D01*
X8390Y11453D01*
X8397Y11462D01*
X8406Y11470D01*
X8416Y11479D01*
X8422Y11483D01*
X8428Y11487D01*
X8428Y11487D01*
X8429Y11487D01*
X8431Y11488D01*
X8434Y11490D01*
X8437Y11491D01*
X8441Y11492D01*
X8445Y11494D01*
X8450Y11496D01*
X8455Y11497D01*
X8461Y11499D01*
X8467Y11500D01*
X8474Y11502D01*
X8489Y11504D01*
X8496Y11505D01*
X8509D01*
X8512Y11504D01*
D02*
G37*
G36*
X8909Y11212D02*
X8870D01*
X8719Y11438D01*
Y11212D01*
X8682D01*
Y11500D01*
X8722D01*
X8873Y11273D01*
Y11500D01*
X8909D01*
Y11212D01*
D02*
G37*
G36*
X9091Y11499D02*
X9100Y11499D01*
X9108Y11498D01*
X9116Y11497D01*
X9123Y11495D01*
X9124D01*
X9125Y11495D01*
X9126D01*
X9128Y11494D01*
X9132Y11493D01*
X9138Y11491D01*
X9145Y11488D01*
X9152Y11484D01*
X9159Y11480D01*
X9165Y11475D01*
X9166Y11474D01*
X9166Y11474D01*
X9167Y11473D01*
X9169Y11471D01*
X9173Y11467D01*
X9178Y11461D01*
X9184Y11454D01*
X9190Y11446D01*
X9195Y11436D01*
X9199Y11425D01*
Y11425D01*
X9200Y11424D01*
X9201Y11423D01*
X9201Y11420D01*
X9202Y11417D01*
X9203Y11414D01*
X9204Y11410D01*
X9205Y11406D01*
X9207Y11401D01*
X9207Y11396D01*
X9209Y11384D01*
X9211Y11371D01*
X9211Y11357D01*
Y11356D01*
Y11356D01*
Y11354D01*
Y11351D01*
X9211Y11349D01*
Y11345D01*
X9210Y11337D01*
X9209Y11328D01*
X9208Y11319D01*
X9206Y11309D01*
X9203Y11299D01*
Y11298D01*
X9203Y11297D01*
X9202Y11296D01*
X9202Y11294D01*
X9200Y11290D01*
X9198Y11284D01*
X9195Y11277D01*
X9192Y11271D01*
X9188Y11264D01*
X9184Y11257D01*
X9183Y11256D01*
X9182Y11254D01*
X9179Y11251D01*
X9176Y11247D01*
X9172Y11243D01*
X9167Y11239D01*
X9163Y11235D01*
X9157Y11231D01*
X9157Y11230D01*
X9155Y11229D01*
X9152Y11227D01*
X9148Y11225D01*
X9143Y11223D01*
X9137Y11221D01*
X9130Y11218D01*
X9123Y11216D01*
X9122D01*
X9121Y11216D01*
X9120Y11215D01*
X9115Y11215D01*
X9110Y11214D01*
X9103Y11213D01*
X9095Y11213D01*
X9086Y11212D01*
X9077Y11212D01*
X8973D01*
Y11500D01*
X9084D01*
X9091Y11499D01*
D02*
G37*
%LPC*%
G36*
X5990Y11483D02*
Y11482D01*
X5989Y11482D01*
Y11480D01*
X5989Y11478D01*
X5988Y11475D01*
X5987Y11473D01*
X5986Y11465D01*
X5984Y11457D01*
X5981Y11448D01*
X5978Y11438D01*
X5974Y11428D01*
X5943Y11344D01*
X6040D01*
X6010Y11423D01*
Y11423D01*
X6010Y11424D01*
X6009Y11426D01*
X6008Y11429D01*
X6007Y11432D01*
X6006Y11435D01*
X6004Y11440D01*
X6003Y11444D01*
X5999Y11453D01*
X5996Y11463D01*
X5993Y11473D01*
X5990Y11483D01*
D02*
G37*
G36*
X5706Y11479D02*
X5639D01*
Y11259D01*
X5708D01*
X5711Y11260D01*
X5717Y11260D01*
X5724Y11260D01*
X5731Y11261D01*
X5739Y11262D01*
X5745Y11264D01*
X5746Y11265D01*
X5748Y11265D01*
X5751Y11266D01*
X5755Y11268D01*
X5759Y11270D01*
X5763Y11273D01*
X5767Y11276D01*
X5771Y11279D01*
X5772Y11280D01*
X5773Y11282D01*
X5776Y11284D01*
X5779Y11289D01*
X5782Y11294D01*
X5786Y11300D01*
X5789Y11307D01*
X5792Y11315D01*
Y11316D01*
X5793Y11317D01*
X5793Y11318D01*
X5793Y11319D01*
X5794Y11322D01*
X5795Y11324D01*
X5795Y11327D01*
X5796Y11331D01*
X5798Y11339D01*
X5799Y11349D01*
X5800Y11359D01*
X5800Y11371D01*
Y11371D01*
Y11373D01*
Y11375D01*
X5800Y11379D01*
Y11382D01*
X5799Y11386D01*
X5799Y11391D01*
X5798Y11396D01*
X5796Y11408D01*
X5794Y11419D01*
X5790Y11430D01*
X5788Y11435D01*
X5785Y11440D01*
Y11440D01*
X5784Y11441D01*
X5783Y11443D01*
X5783Y11444D01*
X5779Y11448D01*
X5775Y11453D01*
X5770Y11459D01*
X5763Y11464D01*
X5756Y11469D01*
X5749Y11473D01*
X5748Y11473D01*
X5746Y11473D01*
X5742Y11475D01*
X5737Y11476D01*
X5730Y11477D01*
X5722Y11478D01*
X5717Y11478D01*
X5711D01*
X5706Y11479D01*
D02*
G37*
G36*
X9078Y11465D02*
X9011D01*
Y11246D01*
X9080D01*
X9083Y11246D01*
X9089Y11247D01*
X9096Y11247D01*
X9103Y11248D01*
X9111Y11249D01*
X9117Y11251D01*
X9118Y11251D01*
X9120Y11252D01*
X9123Y11253D01*
X9127Y11255D01*
X9131Y11257D01*
X9135Y11260D01*
X9139Y11262D01*
X9143Y11266D01*
X9144Y11267D01*
X9145Y11268D01*
X9148Y11271D01*
X9151Y11275D01*
X9154Y11281D01*
X9158Y11287D01*
X9161Y11294D01*
X9164Y11302D01*
Y11302D01*
X9165Y11303D01*
X9165Y11304D01*
X9165Y11306D01*
X9166Y11308D01*
X9167Y11311D01*
X9167Y11314D01*
X9168Y11317D01*
X9170Y11326D01*
X9171Y11335D01*
X9172Y11346D01*
X9172Y11358D01*
Y11358D01*
Y11360D01*
Y11362D01*
X9172Y11365D01*
Y11369D01*
X9171Y11373D01*
X9171Y11378D01*
X9170Y11383D01*
X9168Y11394D01*
X9166Y11406D01*
X9162Y11417D01*
X9160Y11422D01*
X9157Y11427D01*
Y11427D01*
X9156Y11428D01*
X9155Y11429D01*
X9155Y11431D01*
X9151Y11435D01*
X9147Y11440D01*
X9142Y11445D01*
X9135Y11451D01*
X9128Y11455D01*
X9121Y11459D01*
X9120Y11460D01*
X9118Y11460D01*
X9114Y11461D01*
X9109Y11463D01*
X9102Y11463D01*
X9094Y11465D01*
X9089Y11465D01*
X9083D01*
X9078Y11465D01*
D02*
G37*
%LPD*%
D10*
X5593Y3487D02*
G03*
X5753Y3327I160J0D01*
G01*
X6003D02*
G03*
X6213Y3537I0J210D01*
G01*
Y4387D02*
G03*
X6053Y4547I-160J0D01*
G01*
X5803D02*
G03*
X5593Y4337I0J-210D01*
G01*
X1882Y4547D02*
G03*
X1672Y4337I0J-210D01*
G01*
X2292Y4387D02*
G03*
X2132Y4547I-160J0D01*
G01*
X2082Y3327D02*
G03*
X2292Y3537I0J210D01*
G01*
X1672Y3487D02*
G03*
X1832Y3327I160J0D01*
G01*
X11149Y9551D02*
G03*
X10939Y9761I-210J0D01*
G01*
X10989Y9141D02*
G03*
X11149Y9301I0J160D01*
G01*
X9929Y9351D02*
G03*
X10139Y9141I210J0D01*
G01*
X10089Y9761D02*
G03*
X9929Y9601I0J-160D01*
G01*
X6786Y4547D02*
G03*
X6576Y4337I0J-210D01*
G01*
X7196Y4387D02*
G03*
X7036Y4547I-160J0D01*
G01*
X6986Y3327D02*
G03*
X7196Y3537I0J210D01*
G01*
X6576Y3487D02*
G03*
X6736Y3327I160J0D01*
G01*
X4820Y4547D02*
G03*
X4610Y4337I0J-210D01*
G01*
X5230Y4387D02*
G03*
X5070Y4547I-160J0D01*
G01*
X5020Y3327D02*
G03*
X5230Y3537I0J210D01*
G01*
X4610Y3487D02*
G03*
X4770Y3327I160J0D01*
G01*
X3836Y4547D02*
G03*
X3626Y4337I0J-210D01*
G01*
X4246Y4387D02*
G03*
X4086Y4547I-160J0D01*
G01*
X4036Y3327D02*
G03*
X4246Y3537I0J210D01*
G01*
X3626Y3487D02*
G03*
X3786Y3327I160J0D01*
G01*
X2853Y4547D02*
G03*
X2643Y4337I0J-210D01*
G01*
X3263Y4387D02*
G03*
X3103Y4547I-160J0D01*
G01*
X3053Y3327D02*
G03*
X3263Y3537I0J210D01*
G01*
X2643Y3487D02*
G03*
X2803Y3327I160J0D01*
G01*
X900Y4547D02*
G03*
X690Y4337I0J-210D01*
G01*
X1310Y4387D02*
G03*
X1150Y4547I-160J0D01*
G01*
X1100Y3327D02*
G03*
X1310Y3537I0J210D01*
G01*
X690Y3487D02*
G03*
X850Y3327I160J0D01*
G01*
X2869Y6909D02*
G03*
X2659Y6699I0J-210D01*
G01*
X3279Y6749D02*
G03*
X3119Y6909I-160J0D01*
G01*
X3068Y5689D02*
G03*
X3279Y5899I0J210D01*
G01*
X2659Y5849D02*
G03*
X2819Y5689I160J0D01*
G01*
X1884Y6909D02*
G03*
X1674Y6699I0J-210D01*
G01*
X2294Y6749D02*
G03*
X2134Y6909I-160J0D01*
G01*
X2084Y5689D02*
G03*
X2294Y5899I0J210D01*
G01*
X1674Y5849D02*
G03*
X1834Y5689I160J0D01*
G01*
X900Y6909D02*
G03*
X690Y6699I0J-210D01*
G01*
X1310Y6749D02*
G03*
X1150Y6909I-160J0D01*
G01*
X1100Y5689D02*
G03*
X1310Y5899I0J210D01*
G01*
X690Y5849D02*
G03*
X850Y5689I160J0D01*
G01*
X5593Y3827D02*
Y3837D01*
Y3487D02*
Y3827D01*
X5753Y3327D02*
X6023D01*
X6213Y3517D02*
Y3837D01*
Y4037D02*
Y4047D01*
Y4387D01*
X5783Y4547D02*
X6053D01*
X5593Y4037D02*
Y4357D01*
X1672Y4037D02*
Y4357D01*
X1862Y4547D02*
X2132D01*
X2292Y4047D02*
Y4387D01*
Y4037D02*
Y4047D01*
Y3517D02*
Y3837D01*
X1832Y3327D02*
X2102D01*
X1672Y3487D02*
Y3827D01*
Y3837D01*
X10639Y9761D02*
X10959D01*
X11149Y9301D02*
Y9571D01*
X10649Y9141D02*
X10989D01*
X10639D02*
X10649D01*
X10119D02*
X10439D01*
X9929Y9331D02*
Y9601D01*
X10089Y9761D02*
X10429D01*
X10439D01*
X8543Y4044D02*
Y4050D01*
Y4547D01*
X9173D01*
Y4044D02*
Y4547D01*
X8543Y3313D02*
Y3807D01*
Y3313D02*
X9173D01*
Y3807D01*
X8190Y3810D02*
Y3816D01*
Y3313D02*
Y3810D01*
X7560Y3313D02*
X8190D01*
X7560D02*
Y3816D01*
X8190Y4053D02*
Y4547D01*
X7560D02*
X8190D01*
X7560Y4053D02*
Y4547D01*
X8830Y8740D02*
X8836D01*
X8333D02*
X8830D01*
X8333D02*
Y9370D01*
X8836D01*
X9073Y8740D02*
X9567D01*
Y9370D01*
X9073D02*
X9567D01*
X8830Y7756D02*
X8836D01*
X8333D02*
X8830D01*
X8333D02*
Y8386D01*
X8836D01*
X9073Y7756D02*
X9567D01*
Y8386D01*
X9073D02*
X9567D01*
X9064Y7402D02*
X9070D01*
X9567D01*
Y6772D02*
Y7402D01*
X9064Y6772D02*
X9567D01*
X8333Y7402D02*
X8827D01*
X8333Y6772D02*
Y7402D01*
Y6772D02*
X8827D01*
X8830Y5787D02*
X8836D01*
X8333D02*
X8830D01*
X8333D02*
Y6417D01*
X8836D01*
X9073Y5787D02*
X9567D01*
Y6417D01*
X9073D02*
X9567D01*
X6576Y4037D02*
Y4357D01*
X6766Y4547D02*
X7036D01*
X7196Y4047D02*
Y4387D01*
Y4037D02*
Y4047D01*
Y3517D02*
Y3837D01*
X6736Y3327D02*
X7006D01*
X6576Y3487D02*
Y3827D01*
Y3837D01*
X4610Y4037D02*
Y4357D01*
X4800Y4547D02*
X5070D01*
X5230Y4047D02*
Y4387D01*
Y4037D02*
Y4047D01*
Y3517D02*
Y3837D01*
X4770Y3327D02*
X5040D01*
X4610Y3487D02*
Y3827D01*
Y3837D01*
X3626Y4037D02*
Y4357D01*
X3816Y4547D02*
X4086D01*
X4246Y4047D02*
Y4387D01*
Y4037D02*
Y4047D01*
Y3517D02*
Y3837D01*
X3786Y3327D02*
X4056D01*
X3626Y3487D02*
Y3827D01*
Y3837D01*
X2643Y4037D02*
Y4357D01*
X2833Y4547D02*
X3103D01*
X3263Y4047D02*
Y4387D01*
Y4037D02*
Y4047D01*
Y3517D02*
Y3837D01*
X2803Y3327D02*
X3073D01*
X2643Y3487D02*
Y3827D01*
Y3837D01*
X690Y4037D02*
Y4357D01*
X880Y4547D02*
X1150D01*
X1310Y4047D02*
Y4387D01*
Y4037D02*
Y4047D01*
Y3517D02*
Y3837D01*
X850Y3327D02*
X1120D01*
X690Y3487D02*
Y3827D01*
Y3837D01*
X2659Y6399D02*
Y6719D01*
X2849Y6909D02*
X3119D01*
X3279Y6409D02*
Y6749D01*
Y6399D02*
Y6409D01*
Y5879D02*
Y6199D01*
X2819Y5689D02*
X3088D01*
X2659Y5849D02*
Y6189D01*
Y6199D01*
X1674Y6399D02*
Y6719D01*
X1864Y6909D02*
X2134D01*
X2294Y6409D02*
Y6749D01*
Y6399D02*
Y6409D01*
Y5879D02*
Y6199D01*
X1834Y5689D02*
X2104D01*
X1674Y5849D02*
Y6189D01*
Y6199D01*
X690Y6399D02*
Y6719D01*
X880Y6909D02*
X1150D01*
X1310Y6409D02*
Y6749D01*
Y6399D02*
Y6409D01*
Y5879D02*
Y6199D01*
X850Y5689D02*
X1120D01*
X690Y5849D02*
Y6189D01*
Y6199D01*
D11*
X9964Y2425D02*
G03*
X9964Y2425I-144J0D01*
G01*
X10227Y725D02*
Y2625D01*
X1427Y725D02*
X10227D01*
X1427D02*
Y2625D01*
X10227D01*
X9193Y10130D02*
Y11130D01*
X5193D02*
X9193D01*
X5193Y10130D02*
Y11130D01*
Y10130D02*
X9193D01*
X11024Y0D02*
G03*
X11811Y787I0J787D01*
G01*
Y11024D02*
G03*
X11024Y11811I-787J0D01*
G01*
X787D02*
G03*
X0Y11024I0J-787D01*
G01*
Y787D02*
G03*
X787Y0I787J0D01*
G01*
X9843Y0D02*
X11024D01*
X9449Y394D02*
X9843Y0D01*
X2362Y394D02*
X9449D01*
X1969Y0D02*
X2362Y394D01*
X787Y0D02*
X1969D01*
X11811Y787D02*
Y11024D01*
X787Y11811D02*
X11024D01*
X0Y787D02*
Y11024D01*
D12*
X10530Y8474D02*
X10930D01*
Y8174D02*
Y8474D01*
X10530Y7274D02*
X10930D01*
Y7574D01*
X10360Y7748D02*
Y7984D01*
D13*
X9930Y3248D02*
X11406D01*
X9930D02*
Y4232D01*
X11406D01*
Y3248D02*
Y4232D01*
D14*
X10283Y5669D02*
Y6142D01*
X9949D02*
X10736D01*
X9949Y5669D02*
X10736D01*
D15*
X656Y8483D02*
Y8504D01*
X678Y8547D01*
X699Y8568D01*
X742Y8590D01*
X828D01*
X871Y8568D01*
X892Y8547D01*
X914Y8504D01*
Y8461D01*
X892Y8419D01*
X849Y8354D01*
X635Y8140D01*
X935D01*
X1164Y8590D02*
X1100Y8568D01*
X1057Y8504D01*
X1036Y8397D01*
Y8333D01*
X1057Y8226D01*
X1100Y8161D01*
X1164Y8140D01*
X1207D01*
X1271Y8161D01*
X1314Y8226D01*
X1336Y8333D01*
Y8397D01*
X1314Y8504D01*
X1271Y8568D01*
X1207Y8590D01*
X1164D01*
X1458Y8483D02*
Y8504D01*
X1479Y8547D01*
X1501Y8568D01*
X1543Y8590D01*
X1629D01*
X1672Y8568D01*
X1693Y8547D01*
X1715Y8504D01*
Y8461D01*
X1693Y8419D01*
X1651Y8354D01*
X1436Y8140D01*
X1736D01*
X1965Y8590D02*
X1901Y8568D01*
X1858Y8504D01*
X1837Y8397D01*
Y8333D01*
X1858Y8226D01*
X1901Y8161D01*
X1965Y8140D01*
X2008D01*
X2073Y8161D01*
X2115Y8226D01*
X2137Y8333D01*
Y8397D01*
X2115Y8504D01*
X2073Y8568D01*
X2008Y8590D01*
X1965D01*
X2259Y8183D02*
X2238Y8161D01*
X2259Y8140D01*
X2280Y8161D01*
X2259Y8183D01*
X2593Y8590D02*
X2379Y8290D01*
X2700D01*
X2593Y8590D02*
Y8140D01*
X3197Y8590D02*
Y8226D01*
X3219Y8161D01*
X3262Y8140D01*
X3304D01*
X3133Y8440D02*
X3283D01*
X3369Y8311D02*
X3626D01*
Y8354D01*
X3604Y8397D01*
X3583Y8419D01*
X3540Y8440D01*
X3476D01*
X3433Y8419D01*
X3390Y8376D01*
X3369Y8311D01*
Y8269D01*
X3390Y8204D01*
X3433Y8161D01*
X3476Y8140D01*
X3540D01*
X3583Y8161D01*
X3626Y8204D01*
X3958Y8376D02*
X3936Y8419D01*
X3872Y8440D01*
X3808D01*
X3744Y8419D01*
X3722Y8376D01*
X3744Y8333D01*
X3787Y8311D01*
X3894Y8290D01*
X3936Y8269D01*
X3958Y8226D01*
Y8204D01*
X3936Y8161D01*
X3872Y8140D01*
X3808D01*
X3744Y8161D01*
X3722Y8204D01*
X4116Y8590D02*
Y8226D01*
X4138Y8161D01*
X4181Y8140D01*
X4224D01*
X4052Y8440D02*
X4202D01*
X4641D02*
X4770Y8140D01*
X4898Y8440D02*
X4770Y8140D01*
X4971Y8311D02*
X5228D01*
Y8354D01*
X5207Y8397D01*
X5186Y8419D01*
X5143Y8440D01*
X5078D01*
X5036Y8419D01*
X4993Y8376D01*
X4971Y8311D01*
Y8269D01*
X4993Y8204D01*
X5036Y8161D01*
X5078Y8140D01*
X5143D01*
X5186Y8161D01*
X5228Y8204D01*
X5325Y8440D02*
Y8140D01*
Y8311D02*
X5346Y8376D01*
X5389Y8419D01*
X5432Y8440D01*
X5496D01*
X5773Y8376D02*
X5751Y8419D01*
X5687Y8440D01*
X5623D01*
X5558Y8419D01*
X5537Y8376D01*
X5558Y8333D01*
X5601Y8311D01*
X5708Y8290D01*
X5751Y8269D01*
X5773Y8226D01*
Y8204D01*
X5751Y8161D01*
X5687Y8140D01*
X5623D01*
X5558Y8161D01*
X5537Y8204D01*
X5910Y8590D02*
X5931Y8568D01*
X5952Y8590D01*
X5931Y8611D01*
X5910Y8590D01*
X5931Y8440D02*
Y8140D01*
X6139Y8440D02*
X6096Y8419D01*
X6053Y8376D01*
X6032Y8311D01*
Y8269D01*
X6053Y8204D01*
X6096Y8161D01*
X6139Y8140D01*
X6203D01*
X6246Y8161D01*
X6289Y8204D01*
X6310Y8269D01*
Y8311D01*
X6289Y8376D01*
X6246Y8419D01*
X6203Y8440D01*
X6139D01*
X6409D02*
Y8140D01*
Y8354D02*
X6473Y8419D01*
X6516Y8440D01*
X6580D01*
X6623Y8419D01*
X6644Y8354D01*
Y8140D01*
X6998Y8376D02*
X6977Y8419D01*
X6912Y8440D01*
X6848D01*
X6784Y8419D01*
X6762Y8376D01*
X6784Y8333D01*
X6827Y8311D01*
X6934Y8290D01*
X6977Y8269D01*
X6998Y8226D01*
Y8204D01*
X6977Y8161D01*
X6912Y8140D01*
X6848D01*
X6784Y8161D01*
X6762Y8204D01*
X5848Y5173D02*
X5867Y5117D01*
Y5230D01*
X5848Y5173D01*
X5811Y5211D01*
X5755Y5230D01*
X5717D01*
X5661Y5211D01*
X5623Y5173D01*
X5605Y5136D01*
X5586Y5080D01*
Y4986D01*
X5605Y4930D01*
X5623Y4892D01*
X5661Y4855D01*
X5717Y4836D01*
X5755D01*
X5811Y4855D01*
X5848Y4892D01*
X5867Y4930D01*
X5717Y5230D02*
X5680Y5211D01*
X5642Y5173D01*
X5623Y5136D01*
X5605Y5080D01*
Y4986D01*
X5623Y4930D01*
X5642Y4892D01*
X5680Y4855D01*
X5717Y4836D01*
X5923Y5155D02*
X5961Y5173D01*
X6017Y5230D01*
Y4836D01*
X5998Y5211D02*
Y4836D01*
X5923D02*
X6092D01*
X6272Y5230D02*
X6216Y5211D01*
X6178Y5155D01*
X6160Y5061D01*
Y5005D01*
X6178Y4911D01*
X6216Y4855D01*
X6272Y4836D01*
X6309D01*
X6366Y4855D01*
X6403Y4911D01*
X6422Y5005D01*
Y5061D01*
X6403Y5155D01*
X6366Y5211D01*
X6309Y5230D01*
X6272D01*
X6235Y5211D01*
X6216Y5192D01*
X6197Y5155D01*
X6178Y5061D01*
Y5005D01*
X6197Y4911D01*
X6216Y4873D01*
X6235Y4855D01*
X6272Y4836D01*
X6309D02*
X6347Y4855D01*
X6366Y4873D01*
X6384Y4911D01*
X6403Y5005D01*
Y5061D01*
X6384Y5155D01*
X6366Y5192D01*
X6347Y5211D01*
X6309Y5230D01*
X11080Y8661D02*
Y8380D01*
X11099Y8324D01*
X11136Y8286D01*
X11192Y8268D01*
X11230D01*
X11286Y8286D01*
X11324Y8324D01*
X11342Y8380D01*
Y8661D01*
X11099D02*
Y8380D01*
X11117Y8324D01*
X11155Y8286D01*
X11192Y8268D01*
X11024Y8661D02*
X11155D01*
X11286D02*
X11398D01*
X11445Y8586D02*
X11483Y8605D01*
X11539Y8661D01*
Y8268D01*
X11520Y8643D02*
Y8268D01*
X11445D02*
X11614D01*
X9992Y4900D02*
Y4618D01*
X10011Y4562D01*
X10048Y4525D01*
X10105Y4506D01*
X10142D01*
X10198Y4525D01*
X10236Y4562D01*
X10255Y4618D01*
Y4900D01*
X10011D02*
Y4618D01*
X10030Y4562D01*
X10067Y4525D01*
X10105Y4506D01*
X9936Y4900D02*
X10067D01*
X10198D02*
X10311D01*
X10545Y4862D02*
Y4506D01*
X10658Y4618D02*
X10358D01*
X10564Y4900D01*
Y4506D01*
X10489D02*
X10620D01*
X685Y2756D02*
Y2475D01*
X704Y2418D01*
X742Y2381D01*
X798Y2362D01*
X835D01*
X892Y2381D01*
X929Y2418D01*
X948Y2475D01*
Y2756D01*
X704D02*
Y2475D01*
X723Y2418D01*
X760Y2381D01*
X798Y2362D01*
X629Y2756D02*
X760D01*
X892D02*
X1004D01*
X1070Y2681D02*
X1088Y2662D01*
X1070Y2643D01*
X1051Y2662D01*
Y2681D01*
X1070Y2718D01*
X1088Y2737D01*
X1145Y2756D01*
X1220D01*
X1276Y2737D01*
X1295Y2700D01*
Y2643D01*
X1276Y2606D01*
X1220Y2587D01*
X1163D01*
X1220Y2756D02*
X1257Y2737D01*
X1276Y2700D01*
Y2643D01*
X1257Y2606D01*
X1220Y2587D01*
X1257Y2568D01*
X1295Y2531D01*
X1313Y2493D01*
Y2437D01*
X1295Y2400D01*
X1276Y2381D01*
X1220Y2362D01*
X1145D01*
X1088Y2381D01*
X1070Y2400D01*
X1051Y2437D01*
Y2456D01*
X1070Y2475D01*
X1088Y2456D01*
X1070Y2437D01*
X1276Y2550D02*
X1295Y2493D01*
Y2437D01*
X1276Y2400D01*
X1257Y2381D01*
X1220Y2362D01*
X8592Y5230D02*
Y4836D01*
X8611Y5230D02*
Y4836D01*
X8536Y5230D02*
X8761D01*
X8817Y5211D01*
X8836Y5192D01*
X8855Y5155D01*
Y5117D01*
X8836Y5080D01*
X8817Y5061D01*
X8761Y5042D01*
X8611D01*
X8761Y5230D02*
X8798Y5211D01*
X8817Y5192D01*
X8836Y5155D01*
Y5117D01*
X8817Y5080D01*
X8798Y5061D01*
X8761Y5042D01*
X8536Y4836D02*
X8667D01*
X8705Y5042D02*
X8742Y5023D01*
X8761Y5005D01*
X8817Y4873D01*
X8836Y4855D01*
X8855D01*
X8873Y4873D01*
X8742Y5023D02*
X8761Y4986D01*
X8798Y4855D01*
X8817Y4836D01*
X8855D01*
X8873Y4873D01*
Y4892D01*
X9149Y5173D02*
X9130Y5155D01*
X9149Y5136D01*
X9168Y5155D01*
Y5173D01*
X9149Y5211D01*
X9111Y5230D01*
X9055D01*
X8999Y5211D01*
X8961Y5173D01*
X8943Y5136D01*
X8924Y5061D01*
Y4948D01*
X8943Y4892D01*
X8980Y4855D01*
X9036Y4836D01*
X9074D01*
X9130Y4855D01*
X9168Y4892D01*
X9186Y4948D01*
Y4967D01*
X9168Y5023D01*
X9130Y5061D01*
X9074Y5080D01*
X9055D01*
X8999Y5061D01*
X8961Y5023D01*
X8943Y4967D01*
X9055Y5230D02*
X9018Y5211D01*
X8980Y5173D01*
X8961Y5136D01*
X8943Y5061D01*
Y4948D01*
X8961Y4892D01*
X8999Y4855D01*
X9036Y4836D01*
X9074D02*
X9111Y4855D01*
X9149Y4892D01*
X9168Y4948D01*
Y4967D01*
X9149Y5023D01*
X9111Y5061D01*
X9074Y5080D01*
X7602Y5230D02*
Y4836D01*
X7621Y5230D02*
Y4836D01*
X7546Y5230D02*
X7771D01*
X7827Y5211D01*
X7846Y5192D01*
X7865Y5155D01*
Y5117D01*
X7846Y5080D01*
X7827Y5061D01*
X7771Y5042D01*
X7621D01*
X7771Y5230D02*
X7808Y5211D01*
X7827Y5192D01*
X7846Y5155D01*
Y5117D01*
X7827Y5080D01*
X7808Y5061D01*
X7771Y5042D01*
X7546Y4836D02*
X7677D01*
X7715Y5042D02*
X7752Y5023D01*
X7771Y5005D01*
X7827Y4873D01*
X7846Y4855D01*
X7865D01*
X7883Y4873D01*
X7752Y5023D02*
X7771Y4986D01*
X7808Y4855D01*
X7827Y4836D01*
X7865D01*
X7883Y4873D01*
Y4892D01*
X7971Y5230D02*
X7934Y5042D01*
X7971Y5080D01*
X8028Y5098D01*
X8084D01*
X8140Y5080D01*
X8178Y5042D01*
X8196Y4986D01*
Y4948D01*
X8178Y4892D01*
X8140Y4855D01*
X8084Y4836D01*
X8028D01*
X7971Y4855D01*
X7953Y4873D01*
X7934Y4911D01*
Y4930D01*
X7953Y4948D01*
X7971Y4930D01*
X7953Y4911D01*
X8084Y5098D02*
X8121Y5080D01*
X8159Y5042D01*
X8178Y4986D01*
Y4948D01*
X8159Y4892D01*
X8121Y4855D01*
X8084Y4836D01*
X7971Y5230D02*
X8159D01*
X7971Y5211D02*
X8065D01*
X8159Y5230D01*
X7432Y9714D02*
Y9320D01*
X7451Y9714D02*
Y9320D01*
X7376Y9714D02*
X7601D01*
X7657Y9695D01*
X7676Y9676D01*
X7694Y9639D01*
Y9601D01*
X7676Y9564D01*
X7657Y9545D01*
X7601Y9526D01*
X7451D01*
X7601Y9714D02*
X7638Y9695D01*
X7657Y9676D01*
X7676Y9639D01*
Y9601D01*
X7657Y9564D01*
X7638Y9545D01*
X7601Y9526D01*
X7376Y9320D02*
X7507D01*
X7544Y9526D02*
X7582Y9507D01*
X7601Y9489D01*
X7657Y9358D01*
X7676Y9339D01*
X7694D01*
X7713Y9358D01*
X7582Y9507D02*
X7601Y9470D01*
X7638Y9339D01*
X7657Y9320D01*
X7694D01*
X7713Y9358D01*
Y9376D01*
X7951Y9676D02*
Y9320D01*
X8064Y9432D02*
X7764D01*
X7970Y9714D01*
Y9320D01*
X7895D02*
X8026D01*
X7432Y8729D02*
Y8336D01*
X7451Y8729D02*
Y8336D01*
X7376Y8729D02*
X7601D01*
X7657Y8711D01*
X7676Y8692D01*
X7694Y8654D01*
Y8617D01*
X7676Y8579D01*
X7657Y8561D01*
X7601Y8542D01*
X7451D01*
X7601Y8729D02*
X7638Y8711D01*
X7657Y8692D01*
X7676Y8654D01*
Y8617D01*
X7657Y8579D01*
X7638Y8561D01*
X7601Y8542D01*
X7376Y8336D02*
X7507D01*
X7544Y8542D02*
X7582Y8523D01*
X7601Y8504D01*
X7657Y8373D01*
X7676Y8355D01*
X7694D01*
X7713Y8373D01*
X7582Y8523D02*
X7601Y8486D01*
X7638Y8355D01*
X7657Y8336D01*
X7694D01*
X7713Y8373D01*
Y8392D01*
X7782Y8654D02*
X7801Y8636D01*
X7782Y8617D01*
X7764Y8636D01*
Y8654D01*
X7782Y8692D01*
X7801Y8711D01*
X7857Y8729D01*
X7932D01*
X7989Y8711D01*
X8007Y8673D01*
Y8617D01*
X7989Y8579D01*
X7932Y8561D01*
X7876D01*
X7932Y8729D02*
X7970Y8711D01*
X7989Y8673D01*
Y8617D01*
X7970Y8579D01*
X7932Y8561D01*
X7970Y8542D01*
X8007Y8504D01*
X8026Y8467D01*
Y8411D01*
X8007Y8373D01*
X7989Y8355D01*
X7932Y8336D01*
X7857D01*
X7801Y8355D01*
X7782Y8373D01*
X7764Y8411D01*
Y8429D01*
X7782Y8448D01*
X7801Y8429D01*
X7782Y8411D01*
X7989Y8523D02*
X8007Y8467D01*
Y8411D01*
X7989Y8373D01*
X7970Y8355D01*
X7932Y8336D01*
X7432Y7677D02*
Y7283D01*
X7451Y7677D02*
Y7283D01*
X7376Y7677D02*
X7601D01*
X7657Y7658D01*
X7676Y7640D01*
X7694Y7602D01*
Y7565D01*
X7676Y7527D01*
X7657Y7508D01*
X7601Y7490D01*
X7451D01*
X7601Y7677D02*
X7638Y7658D01*
X7657Y7640D01*
X7676Y7602D01*
Y7565D01*
X7657Y7527D01*
X7638Y7508D01*
X7601Y7490D01*
X7376Y7283D02*
X7507D01*
X7544Y7490D02*
X7582Y7471D01*
X7601Y7452D01*
X7657Y7321D01*
X7676Y7302D01*
X7694D01*
X7713Y7321D01*
X7582Y7471D02*
X7601Y7433D01*
X7638Y7302D01*
X7657Y7283D01*
X7694D01*
X7713Y7321D01*
Y7340D01*
X7782Y7602D02*
X7801Y7583D01*
X7782Y7565D01*
X7764Y7583D01*
Y7602D01*
X7782Y7640D01*
X7801Y7658D01*
X7857Y7677D01*
X7932D01*
X7989Y7658D01*
X8007Y7640D01*
X8026Y7602D01*
Y7565D01*
X8007Y7527D01*
X7951Y7490D01*
X7857Y7452D01*
X7820Y7433D01*
X7782Y7396D01*
X7764Y7340D01*
Y7283D01*
X7932Y7677D02*
X7970Y7658D01*
X7989Y7640D01*
X8007Y7602D01*
Y7565D01*
X7989Y7527D01*
X7932Y7490D01*
X7857Y7452D01*
X7764Y7321D02*
X7782Y7340D01*
X7820D01*
X7914Y7302D01*
X7970D01*
X8007Y7321D01*
X8026Y7340D01*
Y7377D01*
X7820Y7340D02*
X7914Y7283D01*
X7989D01*
X8007Y7302D01*
X8026Y7340D01*
X7432Y6761D02*
Y6367D01*
X7451Y6761D02*
Y6367D01*
X7376Y6761D02*
X7601D01*
X7657Y6742D01*
X7676Y6723D01*
X7694Y6686D01*
Y6648D01*
X7676Y6611D01*
X7657Y6592D01*
X7601Y6573D01*
X7451D01*
X7601Y6761D02*
X7638Y6742D01*
X7657Y6723D01*
X7676Y6686D01*
Y6648D01*
X7657Y6611D01*
X7638Y6592D01*
X7601Y6573D01*
X7376Y6367D02*
X7507D01*
X7544Y6573D02*
X7582Y6555D01*
X7601Y6536D01*
X7657Y6405D01*
X7676Y6386D01*
X7694D01*
X7713Y6405D01*
X7582Y6555D02*
X7601Y6517D01*
X7638Y6386D01*
X7657Y6367D01*
X7694D01*
X7713Y6405D01*
Y6424D01*
X7764Y6686D02*
X7801Y6705D01*
X7857Y6761D01*
Y6367D01*
X7839Y6742D02*
Y6367D01*
X7764D02*
X7932D01*
X4151Y11417D02*
Y11024D01*
X4169Y11417D02*
Y11024D01*
X4094Y11417D02*
X4319D01*
X4376Y11399D01*
X4394Y11380D01*
X4413Y11342D01*
Y11286D01*
X4394Y11249D01*
X4376Y11230D01*
X4319Y11211D01*
X4169D01*
X4319Y11417D02*
X4357Y11399D01*
X4376Y11380D01*
X4394Y11342D01*
Y11286D01*
X4376Y11249D01*
X4357Y11230D01*
X4319Y11211D01*
X4094Y11024D02*
X4226D01*
X4484Y11342D02*
X4503Y11324D01*
X4484Y11305D01*
X4466Y11324D01*
Y11342D01*
X4484Y11380D01*
X4503Y11399D01*
X4559Y11417D01*
X4634D01*
X4691Y11399D01*
X4709Y11380D01*
X4728Y11342D01*
Y11305D01*
X4709Y11267D01*
X4653Y11230D01*
X4559Y11192D01*
X4522Y11174D01*
X4484Y11136D01*
X4466Y11080D01*
Y11024D01*
X4634Y11417D02*
X4672Y11399D01*
X4691Y11380D01*
X4709Y11342D01*
Y11305D01*
X4691Y11267D01*
X4634Y11230D01*
X4559Y11192D01*
X4466Y11061D02*
X4484Y11080D01*
X4522D01*
X4616Y11042D01*
X4672D01*
X4709Y11061D01*
X4728Y11080D01*
Y11117D01*
X4522Y11080D02*
X4616Y11024D01*
X4691D01*
X4709Y11042D01*
X4728Y11080D01*
X2846Y11417D02*
Y11024D01*
X2865Y11417D02*
Y11024D01*
X3090Y11417D02*
Y11024D01*
X3109Y11417D02*
Y11024D01*
X2790Y11417D02*
X2921D01*
X3034D02*
X3165D01*
X2865Y11230D02*
X3090D01*
X2790Y11024D02*
X2921D01*
X3034D02*
X3165D01*
X3212Y11342D02*
X3249Y11361D01*
X3305Y11417D01*
Y11024D01*
X3287Y11399D02*
Y11024D01*
X3212D02*
X3380D01*
X9899Y6820D02*
Y6426D01*
X9917Y6820D02*
Y6426D01*
X9843Y6820D02*
X10030D01*
X10086Y6801D01*
X10124Y6763D01*
X10142Y6726D01*
X10161Y6670D01*
Y6576D01*
X10142Y6520D01*
X10124Y6482D01*
X10086Y6445D01*
X10030Y6426D01*
X9843D01*
X10030Y6820D02*
X10067Y6801D01*
X10105Y6763D01*
X10124Y6726D01*
X10142Y6670D01*
Y6576D01*
X10124Y6520D01*
X10105Y6482D01*
X10067Y6445D01*
X10030Y6426D01*
X10214Y6745D02*
X10251Y6763D01*
X10307Y6820D01*
Y6426D01*
X10289Y6801D02*
Y6426D01*
X10214D02*
X10382D01*
X6828Y5173D02*
X6847Y5117D01*
Y5230D01*
X6828Y5173D01*
X6791Y5211D01*
X6735Y5230D01*
X6697D01*
X6641Y5211D01*
X6603Y5173D01*
X6585Y5136D01*
X6566Y5080D01*
Y4986D01*
X6585Y4930D01*
X6603Y4892D01*
X6641Y4855D01*
X6697Y4836D01*
X6735D01*
X6791Y4855D01*
X6828Y4892D01*
X6847Y4930D01*
X6697Y5230D02*
X6660Y5211D01*
X6622Y5173D01*
X6603Y5136D01*
X6585Y5080D01*
Y4986D01*
X6603Y4930D01*
X6622Y4892D01*
X6660Y4855D01*
X6697Y4836D01*
X6903Y5155D02*
X6941Y5173D01*
X6997Y5230D01*
Y4836D01*
X6978Y5211D02*
Y4836D01*
X6903D02*
X7072D01*
X7140Y5155D02*
X7177Y5173D01*
X7233Y5230D01*
Y4836D01*
X7215Y5211D02*
Y4836D01*
X7140D02*
X7308D01*
X4858Y5173D02*
X4877Y5117D01*
Y5230D01*
X4858Y5173D01*
X4821Y5211D01*
X4765Y5230D01*
X4727D01*
X4671Y5211D01*
X4633Y5173D01*
X4615Y5136D01*
X4596Y5080D01*
Y4986D01*
X4615Y4930D01*
X4633Y4892D01*
X4671Y4855D01*
X4727Y4836D01*
X4765D01*
X4821Y4855D01*
X4858Y4892D01*
X4877Y4930D01*
X4727Y5230D02*
X4690Y5211D01*
X4652Y5173D01*
X4633Y5136D01*
X4615Y5080D01*
Y4986D01*
X4633Y4930D01*
X4652Y4892D01*
X4690Y4855D01*
X4727Y4836D01*
X5177Y5098D02*
X5158Y5042D01*
X5121Y5005D01*
X5065Y4986D01*
X5046D01*
X4990Y5005D01*
X4952Y5042D01*
X4933Y5098D01*
Y5117D01*
X4952Y5173D01*
X4990Y5211D01*
X5046Y5230D01*
X5083D01*
X5140Y5211D01*
X5177Y5173D01*
X5196Y5117D01*
Y5005D01*
X5177Y4930D01*
X5158Y4892D01*
X5121Y4855D01*
X5065Y4836D01*
X5008D01*
X4971Y4855D01*
X4952Y4892D01*
Y4911D01*
X4971Y4930D01*
X4990Y4911D01*
X4971Y4892D01*
X5046Y4986D02*
X5008Y5005D01*
X4971Y5042D01*
X4952Y5098D01*
Y5117D01*
X4971Y5173D01*
X5008Y5211D01*
X5046Y5230D01*
X5083D02*
X5121Y5211D01*
X5158Y5173D01*
X5177Y5117D01*
Y5005D01*
X5158Y4930D01*
X5140Y4892D01*
X5102Y4855D01*
X5065Y4836D01*
X10105Y10180D02*
X10124Y10124D01*
Y10236D01*
X10105Y10180D01*
X10067Y10217D01*
X10011Y10236D01*
X9974D01*
X9917Y10217D01*
X9880Y10180D01*
X9861Y10142D01*
X9843Y10086D01*
Y9992D01*
X9861Y9936D01*
X9880Y9899D01*
X9917Y9861D01*
X9974Y9843D01*
X10011D01*
X10067Y9861D01*
X10105Y9899D01*
X10124Y9936D01*
X9974Y10236D02*
X9936Y10217D01*
X9899Y10180D01*
X9880Y10142D01*
X9861Y10086D01*
Y9992D01*
X9880Y9936D01*
X9899Y9899D01*
X9936Y9861D01*
X9974Y9843D01*
X10274Y10236D02*
X10217Y10217D01*
X10199Y10180D01*
Y10124D01*
X10217Y10086D01*
X10274Y10067D01*
X10349D01*
X10405Y10086D01*
X10424Y10124D01*
Y10180D01*
X10405Y10217D01*
X10349Y10236D01*
X10274D01*
X10236Y10217D01*
X10217Y10180D01*
Y10124D01*
X10236Y10086D01*
X10274Y10067D01*
X10349D02*
X10386Y10086D01*
X10405Y10124D01*
Y10180D01*
X10386Y10217D01*
X10349Y10236D01*
X10274Y10067D02*
X10217Y10049D01*
X10199Y10030D01*
X10180Y9992D01*
Y9918D01*
X10199Y9880D01*
X10217Y9861D01*
X10274Y9843D01*
X10349D01*
X10405Y9861D01*
X10424Y9880D01*
X10442Y9918D01*
Y9992D01*
X10424Y10030D01*
X10405Y10049D01*
X10349Y10067D01*
X10274D02*
X10236Y10049D01*
X10217Y10030D01*
X10199Y9992D01*
Y9918D01*
X10217Y9880D01*
X10236Y9861D01*
X10274Y9843D01*
X10349D02*
X10386Y9861D01*
X10405Y9880D01*
X10424Y9918D01*
Y9992D01*
X10405Y10030D01*
X10386Y10049D01*
X10349Y10067D01*
X3878Y5173D02*
X3897Y5117D01*
Y5230D01*
X3878Y5173D01*
X3841Y5211D01*
X3785Y5230D01*
X3747D01*
X3691Y5211D01*
X3653Y5173D01*
X3635Y5136D01*
X3616Y5080D01*
Y4986D01*
X3635Y4930D01*
X3653Y4892D01*
X3691Y4855D01*
X3747Y4836D01*
X3785D01*
X3841Y4855D01*
X3878Y4892D01*
X3897Y4930D01*
X3747Y5230D02*
X3710Y5211D01*
X3672Y5173D01*
X3653Y5136D01*
X3635Y5080D01*
Y4986D01*
X3653Y4930D01*
X3672Y4892D01*
X3710Y4855D01*
X3747Y4836D01*
X3953Y5230D02*
Y5117D01*
Y5155D02*
X3972Y5192D01*
X4010Y5230D01*
X4047D01*
X4141Y5173D01*
X4178D01*
X4197Y5192D01*
X4216Y5230D01*
X3972Y5192D02*
X4010Y5211D01*
X4047D01*
X4141Y5173D01*
X4216Y5230D02*
Y5173D01*
X4197Y5117D01*
X4122Y5023D01*
X4103Y4986D01*
X4085Y4930D01*
Y4836D01*
X4197Y5117D02*
X4103Y5023D01*
X4085Y4986D01*
X4066Y4930D01*
Y4836D01*
X2898Y5173D02*
X2917Y5117D01*
Y5230D01*
X2898Y5173D01*
X2861Y5211D01*
X2805Y5230D01*
X2767D01*
X2711Y5211D01*
X2673Y5173D01*
X2655Y5136D01*
X2636Y5080D01*
Y4986D01*
X2655Y4930D01*
X2673Y4892D01*
X2711Y4855D01*
X2767Y4836D01*
X2805D01*
X2861Y4855D01*
X2898Y4892D01*
X2917Y4930D01*
X2767Y5230D02*
X2730Y5211D01*
X2692Y5173D01*
X2673Y5136D01*
X2655Y5080D01*
Y4986D01*
X2673Y4930D01*
X2692Y4892D01*
X2730Y4855D01*
X2767Y4836D01*
X3198Y5173D02*
X3180Y5155D01*
X3198Y5136D01*
X3217Y5155D01*
Y5173D01*
X3198Y5211D01*
X3161Y5230D01*
X3105D01*
X3048Y5211D01*
X3011Y5173D01*
X2992Y5136D01*
X2973Y5061D01*
Y4948D01*
X2992Y4892D01*
X3030Y4855D01*
X3086Y4836D01*
X3123D01*
X3180Y4855D01*
X3217Y4892D01*
X3236Y4948D01*
Y4967D01*
X3217Y5023D01*
X3180Y5061D01*
X3123Y5080D01*
X3105D01*
X3048Y5061D01*
X3011Y5023D01*
X2992Y4967D01*
X3105Y5230D02*
X3067Y5211D01*
X3030Y5173D01*
X3011Y5136D01*
X2992Y5061D01*
Y4948D01*
X3011Y4892D01*
X3048Y4855D01*
X3086Y4836D01*
X3123D02*
X3161Y4855D01*
X3198Y4892D01*
X3217Y4948D01*
Y4967D01*
X3198Y5023D01*
X3161Y5061D01*
X3123Y5080D01*
X1928Y5173D02*
X1947Y5117D01*
Y5230D01*
X1928Y5173D01*
X1891Y5211D01*
X1835Y5230D01*
X1797D01*
X1741Y5211D01*
X1703Y5173D01*
X1685Y5136D01*
X1666Y5080D01*
Y4986D01*
X1685Y4930D01*
X1703Y4892D01*
X1741Y4855D01*
X1797Y4836D01*
X1835D01*
X1891Y4855D01*
X1928Y4892D01*
X1947Y4930D01*
X1797Y5230D02*
X1760Y5211D01*
X1722Y5173D01*
X1703Y5136D01*
X1685Y5080D01*
Y4986D01*
X1703Y4930D01*
X1722Y4892D01*
X1760Y4855D01*
X1797Y4836D01*
X2041Y5230D02*
X2003Y5042D01*
X2041Y5080D01*
X2097Y5098D01*
X2153D01*
X2210Y5080D01*
X2247Y5042D01*
X2266Y4986D01*
Y4948D01*
X2247Y4892D01*
X2210Y4855D01*
X2153Y4836D01*
X2097D01*
X2041Y4855D01*
X2022Y4873D01*
X2003Y4911D01*
Y4930D01*
X2022Y4948D01*
X2041Y4930D01*
X2022Y4911D01*
X2153Y5098D02*
X2191Y5080D01*
X2228Y5042D01*
X2247Y4986D01*
Y4948D01*
X2228Y4892D01*
X2191Y4855D01*
X2153Y4836D01*
X2041Y5230D02*
X2228D01*
X2041Y5211D02*
X2135D01*
X2228Y5230D01*
X938Y5173D02*
X957Y5117D01*
Y5230D01*
X938Y5173D01*
X901Y5211D01*
X845Y5230D01*
X807D01*
X751Y5211D01*
X713Y5173D01*
X695Y5136D01*
X676Y5080D01*
Y4986D01*
X695Y4930D01*
X713Y4892D01*
X751Y4855D01*
X807Y4836D01*
X845D01*
X901Y4855D01*
X938Y4892D01*
X957Y4930D01*
X807Y5230D02*
X770Y5211D01*
X732Y5173D01*
X713Y5136D01*
X695Y5080D01*
Y4986D01*
X713Y4930D01*
X732Y4892D01*
X770Y4855D01*
X807Y4836D01*
X1201Y5192D02*
Y4836D01*
X1313Y4948D02*
X1013D01*
X1220Y5230D01*
Y4836D01*
X1145D02*
X1276D01*
X2908Y7533D02*
X2927Y7477D01*
Y7590D01*
X2908Y7533D01*
X2871Y7571D01*
X2815Y7590D01*
X2777D01*
X2721Y7571D01*
X2683Y7533D01*
X2665Y7496D01*
X2646Y7440D01*
Y7346D01*
X2665Y7290D01*
X2683Y7252D01*
X2721Y7215D01*
X2777Y7196D01*
X2815D01*
X2871Y7215D01*
X2908Y7252D01*
X2927Y7290D01*
X2777Y7590D02*
X2740Y7571D01*
X2702Y7533D01*
X2683Y7496D01*
X2665Y7440D01*
Y7346D01*
X2683Y7290D01*
X2702Y7252D01*
X2740Y7215D01*
X2777Y7196D01*
X3002Y7515D02*
X3021Y7496D01*
X3002Y7477D01*
X2983Y7496D01*
Y7515D01*
X3002Y7552D01*
X3021Y7571D01*
X3077Y7590D01*
X3152D01*
X3208Y7571D01*
X3227Y7533D01*
Y7477D01*
X3208Y7440D01*
X3152Y7421D01*
X3096D01*
X3152Y7590D02*
X3190Y7571D01*
X3208Y7533D01*
Y7477D01*
X3190Y7440D01*
X3152Y7421D01*
X3190Y7402D01*
X3227Y7365D01*
X3246Y7327D01*
Y7271D01*
X3227Y7233D01*
X3208Y7215D01*
X3152Y7196D01*
X3077D01*
X3021Y7215D01*
X3002Y7233D01*
X2983Y7271D01*
Y7290D01*
X3002Y7308D01*
X3021Y7290D01*
X3002Y7271D01*
X3208Y7383D02*
X3227Y7327D01*
Y7271D01*
X3208Y7233D01*
X3190Y7215D01*
X3152Y7196D01*
X1928Y7533D02*
X1947Y7477D01*
Y7590D01*
X1928Y7533D01*
X1891Y7571D01*
X1835Y7590D01*
X1797D01*
X1741Y7571D01*
X1703Y7533D01*
X1685Y7496D01*
X1666Y7440D01*
Y7346D01*
X1685Y7290D01*
X1703Y7252D01*
X1741Y7215D01*
X1797Y7196D01*
X1835D01*
X1891Y7215D01*
X1928Y7252D01*
X1947Y7290D01*
X1797Y7590D02*
X1760Y7571D01*
X1722Y7533D01*
X1703Y7496D01*
X1685Y7440D01*
Y7346D01*
X1703Y7290D01*
X1722Y7252D01*
X1760Y7215D01*
X1797Y7196D01*
X2022Y7515D02*
X2041Y7496D01*
X2022Y7477D01*
X2003Y7496D01*
Y7515D01*
X2022Y7552D01*
X2041Y7571D01*
X2097Y7590D01*
X2172D01*
X2228Y7571D01*
X2247Y7552D01*
X2266Y7515D01*
Y7477D01*
X2247Y7440D01*
X2191Y7402D01*
X2097Y7365D01*
X2060Y7346D01*
X2022Y7308D01*
X2003Y7252D01*
Y7196D01*
X2172Y7590D02*
X2210Y7571D01*
X2228Y7552D01*
X2247Y7515D01*
Y7477D01*
X2228Y7440D01*
X2172Y7402D01*
X2097Y7365D01*
X2003Y7233D02*
X2022Y7252D01*
X2060D01*
X2153Y7215D01*
X2210D01*
X2247Y7233D01*
X2266Y7252D01*
Y7290D01*
X2060Y7252D02*
X2153Y7196D01*
X2228D01*
X2247Y7215D01*
X2266Y7252D01*
X897Y7533D02*
X916Y7477D01*
Y7590D01*
X897Y7533D01*
X860Y7571D01*
X804Y7590D01*
X766D01*
X710Y7571D01*
X673Y7533D01*
X654Y7496D01*
X635Y7440D01*
Y7346D01*
X654Y7290D01*
X673Y7252D01*
X710Y7215D01*
X766Y7196D01*
X804D01*
X860Y7215D01*
X897Y7252D01*
X916Y7290D01*
X766Y7590D02*
X729Y7571D01*
X691Y7533D01*
X673Y7496D01*
X654Y7440D01*
Y7346D01*
X673Y7290D01*
X691Y7252D01*
X729Y7215D01*
X766Y7196D01*
X972Y7515D02*
X1010Y7533D01*
X1066Y7590D01*
Y7196D01*
X1047Y7571D02*
Y7196D01*
X972D02*
X1141D01*
M02*
