G04*
G04 #@! TF.GenerationSoftware,Altium Limited,Altium Designer,18.1.9 (240)*
G04*
G04 Layer_Physical_Order=2*
G04 Layer_Color=16711680*
%FSLAX24Y24*%
%MOIN*%
G70*
G01*
G75*
%ADD11C,0.0100*%
%ADD39C,0.0080*%
%ADD40C,0.2638*%
%ADD41C,0.0472*%
%ADD42C,0.0598*%
%ADD43R,0.0598X0.0598*%
%ADD44C,0.0150*%
G36*
X1816Y11145D02*
X1821Y11084D01*
X1824Y11057D01*
X1830Y11032D01*
X1836Y11010D01*
X1843Y10990D01*
X1852Y10973D01*
X1862Y10957D01*
X1873Y10945D01*
X1816Y10888D01*
X1804Y10899D01*
X1788Y10909D01*
X1771Y10918D01*
X1751Y10925D01*
X1729Y10932D01*
X1704Y10937D01*
X1680Y10940D01*
X1665Y10920D01*
X1651Y10900D01*
X1640Y10879D01*
X1631Y10860D01*
X1625Y10841D01*
X1621Y10824D01*
X1620Y10807D01*
X1540D01*
X1539Y10824D01*
X1535Y10841D01*
X1529Y10860D01*
X1520Y10879D01*
X1509Y10900D01*
X1495Y10920D01*
X1479Y10942D01*
X1438Y10988D01*
X1415Y11012D01*
X1650D01*
X1816Y11179D01*
X1816Y11145D01*
D02*
G37*
G36*
X2079Y10739D02*
X2055Y10763D01*
X2009Y10803D01*
X1987Y10819D01*
X1966Y10833D01*
X1946Y10844D01*
X1927Y10853D01*
X1908Y10859D01*
X1891Y10863D01*
X1874Y10864D01*
Y10944D01*
X1891Y10946D01*
X1908Y10949D01*
X1927Y10956D01*
X1946Y10964D01*
X1966Y10976D01*
X1987Y10989D01*
X2009Y11006D01*
X2055Y11046D01*
X2079Y11070D01*
Y10739D01*
D02*
G37*
G36*
X7058Y10938D02*
X7045Y10923D01*
X7033Y10904D01*
X7023Y10882D01*
X7015Y10857D01*
X7007Y10828D01*
X7001Y10796D01*
X6997Y10760D01*
X6992Y10679D01*
X6992Y10633D01*
X6696Y10929D01*
X6742Y10929D01*
X6823Y10934D01*
X6859Y10938D01*
X6891Y10944D01*
X6920Y10952D01*
X6945Y10960D01*
X6967Y10970D01*
X6986Y10982D01*
X7001Y10995D01*
X7058Y10938D01*
D02*
G37*
G36*
X4536Y10680D02*
X4540Y10678D01*
X4544Y10676D01*
X4548Y10674D01*
X4553Y10673D01*
X4559Y10672D01*
X4566Y10671D01*
X4580Y10670D01*
X4588Y10670D01*
Y10590D01*
X4580Y10590D01*
X4566Y10589D01*
X4559Y10588D01*
X4553Y10587D01*
X4548Y10585D01*
X4544Y10584D01*
X4540Y10582D01*
X4536Y10580D01*
X4534Y10577D01*
Y10682D01*
X4536Y10680D01*
D02*
G37*
G36*
X1053Y10711D02*
X1013Y10666D01*
X997Y10644D01*
X983Y10623D01*
X972Y10603D01*
X963Y10583D01*
X957Y10565D01*
X953Y10547D01*
X952Y10530D01*
X872D01*
X871Y10547D01*
X867Y10565D01*
X861Y10583D01*
X852Y10603D01*
X840Y10623D01*
X827Y10644D01*
X810Y10666D01*
X770Y10711D01*
X746Y10736D01*
X1077D01*
X1053Y10711D01*
D02*
G37*
G36*
X5479Y10420D02*
X5447Y10453D01*
X5386Y10507D01*
X5358Y10529D01*
X5331Y10548D01*
X5305Y10563D01*
X5281Y10575D01*
X5258Y10583D01*
X5237Y10588D01*
X5217Y10590D01*
Y10670D01*
X5237Y10672D01*
X5258Y10677D01*
X5281Y10685D01*
X5305Y10697D01*
X5331Y10712D01*
X5358Y10731D01*
X5386Y10753D01*
X5447Y10807D01*
X5479Y10839D01*
Y10420D01*
D02*
G37*
G36*
X8508Y10332D02*
X8502Y10336D01*
X8494Y10339D01*
X8486D01*
X8476Y10336D01*
X8466Y10332D01*
X8454Y10325D01*
X8441Y10316D01*
X8427Y10305D01*
X8395Y10275D01*
X8338Y10332D01*
X8354Y10348D01*
X8379Y10378D01*
X8388Y10391D01*
X8395Y10403D01*
X8399Y10413D01*
X8402Y10423D01*
Y10431D01*
X8399Y10439D01*
X8395Y10445D01*
X8508Y10332D01*
D02*
G37*
G36*
X867Y10282D02*
X869Y10281D01*
X871Y10280D01*
X874Y10279D01*
X879Y10278D01*
X884Y10277D01*
X896Y10277D01*
X912Y10276D01*
Y10196D01*
X903Y10196D01*
X879Y10194D01*
X874Y10194D01*
X871Y10193D01*
X869Y10192D01*
X867Y10190D01*
X866Y10189D01*
Y10284D01*
X867Y10282D01*
D02*
G37*
G36*
X2707Y10956D02*
X3242Y10455D01*
X3351Y10374D01*
X3449Y10311D01*
X3538Y10267D01*
X3616Y10240D01*
X3685Y10231D01*
X3682Y10151D01*
X3619Y10142D01*
X3543Y10116D01*
X3455Y10072D01*
X3354Y10012D01*
X3240Y9933D01*
X2976Y9725D01*
X2661Y9446D01*
X2484Y9281D01*
X2515Y10163D01*
X2391Y10041D01*
X2360Y10062D01*
X2304Y10097D01*
X2255Y10123D01*
X2233Y10133D01*
X2212Y10141D01*
X2194Y10146D01*
X2178Y10150D01*
X2163Y10151D01*
X2147Y10231D01*
X2165Y10232D01*
X2183Y10236D01*
X2202Y10243D01*
X2220Y10252D01*
X2238Y10265D01*
X2256Y10279D01*
X2274Y10297D01*
X2292Y10317D01*
X2310Y10340D01*
X2327Y10366D01*
X2515Y10182D01*
X2548Y11126D01*
X2707Y10956D01*
D02*
G37*
G36*
X9110Y9794D02*
X9108Y9790D01*
X9106Y9786D01*
X9104Y9782D01*
X9103Y9777D01*
X9102Y9771D01*
X9101Y9764D01*
X9100Y9750D01*
X9100Y9742D01*
X9020D01*
X9020Y9750D01*
X9019Y9764D01*
X9018Y9771D01*
X9017Y9777D01*
X9015Y9782D01*
X9014Y9786D01*
X9012Y9790D01*
X9010Y9794D01*
X9007Y9796D01*
X9112D01*
X9110Y9794D01*
D02*
G37*
G36*
X952Y9943D02*
X953Y9926D01*
X957Y9908D01*
X963Y9889D01*
X972Y9870D01*
X983Y9850D01*
X997Y9829D01*
X1013Y9807D01*
X1053Y9761D01*
X1077Y9737D01*
X746Y9737D01*
X770Y9761D01*
X810Y9807D01*
X827Y9829D01*
X840Y9850D01*
X852Y9870D01*
X861Y9889D01*
X867Y9908D01*
X871Y9926D01*
X872Y9943D01*
X952Y9943D01*
D02*
G37*
G36*
X1111Y9701D02*
X1178Y9638D01*
X1198Y9622D01*
X1218Y9609D01*
X1236Y9598D01*
X1254Y9589D01*
X1270Y9584D01*
X1286Y9580D01*
X1283Y9500D01*
X1266Y9501D01*
X1247Y9500D01*
X1228Y9496D01*
X1208Y9489D01*
X1187Y9480D01*
X1166Y9469D01*
X1154Y9461D01*
X1156Y9444D01*
X1161Y9419D01*
X1168Y9397D01*
X1175Y9377D01*
X1184Y9360D01*
X1194Y9344D01*
X1205Y9332D01*
X1148Y9275D01*
X1135Y9286D01*
X1120Y9296D01*
X1103Y9305D01*
X1083Y9312D01*
X1060Y9319D01*
X1036Y9324D01*
X1009Y9327D01*
X948Y9332D01*
X914Y9332D01*
X1078Y9496D01*
X1086Y9727D01*
X1111Y9701D01*
D02*
G37*
G36*
X2079Y9403D02*
X2055Y9427D01*
X2009Y9467D01*
X1987Y9483D01*
X1966Y9497D01*
X1946Y9508D01*
X1927Y9517D01*
X1908Y9523D01*
X1891Y9527D01*
X1874Y9528D01*
Y9608D01*
X1891Y9609D01*
X1908Y9613D01*
X1927Y9619D01*
X1946Y9628D01*
X1966Y9639D01*
X1987Y9653D01*
X2009Y9670D01*
X2055Y9710D01*
X2079Y9733D01*
Y9403D01*
D02*
G37*
G36*
X1873Y9528D02*
X1862Y9515D01*
X1852Y9500D01*
X1843Y9482D01*
X1836Y9462D01*
X1830Y9440D01*
X1824Y9415D01*
X1821Y9388D01*
X1816Y9328D01*
X1816Y9294D01*
X1582Y9528D01*
X1616Y9528D01*
X1677Y9532D01*
X1704Y9536D01*
X1729Y9541D01*
X1751Y9547D01*
X1771Y9555D01*
X1788Y9563D01*
X1804Y9573D01*
X1816Y9584D01*
X1873Y9528D01*
D02*
G37*
G36*
X1411Y9126D02*
X1387Y9150D01*
X1341Y9190D01*
X1319Y9206D01*
X1298Y9220D01*
X1278Y9231D01*
X1259Y9240D01*
X1240Y9246D01*
X1222Y9250D01*
X1205Y9251D01*
Y9331D01*
X1222Y9333D01*
X1240Y9336D01*
X1259Y9343D01*
X1278Y9351D01*
X1298Y9363D01*
X1319Y9376D01*
X1341Y9393D01*
X1387Y9433D01*
X1411Y9457D01*
Y9126D01*
D02*
G37*
G36*
X10856Y6960D02*
X10854Y6956D01*
X10852Y6952D01*
X10850Y6948D01*
X10849Y6943D01*
X10848Y6937D01*
X10847Y6930D01*
X10846Y6916D01*
X10846Y6908D01*
X10766D01*
X10766Y6916D01*
X10765Y6930D01*
X10764Y6937D01*
X10763Y6943D01*
X10761Y6948D01*
X10760Y6952D01*
X10758Y6956D01*
X10756Y6960D01*
X10753Y6962D01*
X10858D01*
X10856Y6960D01*
D02*
G37*
G36*
X11024Y11809D02*
Y11024D01*
X11811D01*
Y806D01*
X11045D01*
X11026Y787D01*
Y0D01*
X9843D01*
Y394D01*
X1969D01*
X1986Y377D01*
Y0D01*
X787D01*
Y787D01*
X0D01*
Y8661D01*
X3150D01*
Y9779D01*
X3279Y9881D01*
X3389Y9957D01*
X3486Y10015D01*
X3568Y10056D01*
X3634Y10079D01*
X3691Y10086D01*
X3695Y10089D01*
X8254D01*
X8293Y10097D01*
X8326Y10119D01*
X8432Y10225D01*
X8439Y10228D01*
X8469Y10256D01*
X8480Y10264D01*
X8488Y10270D01*
X8489Y10271D01*
X8499D01*
X8508Y10267D01*
X8513Y10269D01*
X8518Y10268D01*
X8523Y10271D01*
X9052D01*
Y10989D01*
X8334D01*
Y10460D01*
X8331Y10455D01*
X8332Y10450D01*
X8330Y10445D01*
X8334Y10436D01*
Y10426D01*
X8333Y10425D01*
X8328Y10417D01*
X8306Y10392D01*
X8292Y10377D01*
X8289Y10370D01*
X8211Y10293D01*
X7926D01*
X7909Y10343D01*
X7949Y10374D01*
X8007Y10449D01*
X8043Y10536D01*
X8055Y10630D01*
X8043Y10724D01*
X8007Y10811D01*
X7949Y10886D01*
X7874Y10944D01*
X7787Y10980D01*
X7693Y10992D01*
X7599Y10980D01*
X7512Y10944D01*
X7437Y10886D01*
X7379Y10811D01*
X7343Y10724D01*
X7331Y10630D01*
X7343Y10536D01*
X7379Y10449D01*
X7437Y10374D01*
X7477Y10343D01*
X7460Y10293D01*
X6926D01*
X6909Y10343D01*
X6949Y10374D01*
X7007Y10449D01*
X7043Y10536D01*
X7055Y10627D01*
X7057Y10633D01*
X7057Y10677D01*
X7062Y10754D01*
X7066Y10786D01*
X7071Y10814D01*
X7077Y10838D01*
X7084Y10858D01*
X7091Y10874D01*
X7098Y10885D01*
X7107Y10896D01*
X7109Y10902D01*
X7354Y11147D01*
X10456D01*
X11204Y10399D01*
Y6011D01*
X11177Y5990D01*
X11128Y6012D01*
Y7426D01*
X11120Y7465D01*
X11098Y7498D01*
X9162Y9434D01*
Y9734D01*
X9165Y9741D01*
X9165Y9747D01*
X9166Y9758D01*
X9166Y9760D01*
X9166Y9762D01*
X9167Y9763D01*
X9167Y9763D01*
X9167Y9765D01*
X9167Y9767D01*
X9187Y9797D01*
X9198Y9850D01*
X9187Y9903D01*
X9157Y9947D01*
X9113Y9977D01*
X9060Y9988D01*
X9007Y9977D01*
X8963Y9947D01*
X8933Y9903D01*
X8922Y9850D01*
X8933Y9797D01*
X8953Y9767D01*
X8953Y9765D01*
X8953Y9763D01*
X8953Y9763D01*
X8954Y9762D01*
X8954Y9760D01*
X8954Y9758D01*
X8955Y9747D01*
X8955Y9741D01*
X8958Y9734D01*
Y9392D01*
X8966Y9353D01*
X8988Y9320D01*
X10924Y7384D01*
Y7160D01*
X10874Y7133D01*
X10859Y7143D01*
X10806Y7154D01*
X10753Y7143D01*
X10709Y7113D01*
X10679Y7069D01*
X10668Y7016D01*
X10679Y6963D01*
X10699Y6933D01*
X10699Y6931D01*
X10699Y6929D01*
X10699Y6929D01*
X10700Y6928D01*
X10700Y6926D01*
X10700Y6924D01*
X10701Y6913D01*
X10701Y6907D01*
X10704Y6900D01*
Y6341D01*
X10195Y5832D01*
X4096D01*
X4089Y5835D01*
X4083Y5835D01*
X4072Y5836D01*
X4070Y5836D01*
X4068Y5836D01*
X4067Y5837D01*
X4067Y5837D01*
X4065Y5837D01*
X4063Y5837D01*
X4033Y5857D01*
X3980Y5868D01*
X3927Y5857D01*
X3883Y5827D01*
X3853Y5783D01*
X3842Y5730D01*
X3853Y5677D01*
X3883Y5633D01*
X3927Y5603D01*
X3980Y5592D01*
X4033Y5603D01*
X4063Y5623D01*
X4065Y5623D01*
X4067Y5623D01*
X4067Y5623D01*
X4068Y5624D01*
X4070Y5624D01*
X4072Y5624D01*
X4083Y5625D01*
X4089Y5625D01*
X4096Y5628D01*
X4555D01*
X4570Y5595D01*
X4572Y5578D01*
X2515Y3521D01*
X1649D01*
X1640Y3519D01*
X1610Y3564D01*
X1623Y3583D01*
X1634Y3636D01*
X1623Y3689D01*
X1603Y3719D01*
X1603Y3721D01*
X1603Y3723D01*
X1603Y3723D01*
X1602Y3724D01*
X1602Y3726D01*
X1602Y3728D01*
X1601Y3739D01*
X1601Y3745D01*
X1598Y3752D01*
Y4684D01*
X2192Y5278D01*
X2266D01*
X2281Y5228D01*
X2259Y5213D01*
X2229Y5169D01*
X2218Y5116D01*
X2229Y5063D01*
X2245Y5039D01*
X2245Y5035D01*
X2245Y5034D01*
X2245Y5034D01*
X2246Y5033D01*
X2246Y5032D01*
X2246Y5031D01*
X2247Y5015D01*
X2247Y5009D01*
X2250Y5002D01*
Y3862D01*
X2247Y3855D01*
X2247Y3848D01*
X2246Y3838D01*
X2246Y3835D01*
X2246Y3833D01*
X2245Y3833D01*
X2245Y3832D01*
X2245Y3831D01*
X2245Y3828D01*
X2225Y3798D01*
X2215Y3745D01*
X2225Y3693D01*
X2255Y3648D01*
X2299Y3618D01*
X2352Y3608D01*
X2405Y3618D01*
X2449Y3648D01*
X2479Y3693D01*
X2490Y3745D01*
X2479Y3798D01*
X2459Y3828D01*
X2459Y3831D01*
X2459Y3832D01*
X2459Y3833D01*
X2459Y3833D01*
X2458Y3835D01*
X2458Y3838D01*
X2457Y3848D01*
X2457Y3855D01*
X2454Y3862D01*
Y4995D01*
X2457Y5001D01*
X2456Y5003D01*
X2457Y5004D01*
X2457Y5011D01*
X2458Y5021D01*
X2458Y5023D01*
X2458Y5024D01*
X2458Y5024D01*
X2458Y5024D01*
X2459Y5024D01*
X2459Y5025D01*
X2459Y5026D01*
X2459Y5027D01*
X2459Y5027D01*
X2459Y5028D01*
X2483Y5063D01*
X2494Y5116D01*
X2483Y5169D01*
X2453Y5213D01*
X2431Y5228D01*
X2446Y5278D01*
X2844D01*
X2851Y5275D01*
X2857Y5275D01*
X2868Y5274D01*
X2870Y5274D01*
X2872Y5274D01*
X2873Y5273D01*
X2873Y5273D01*
X2875Y5273D01*
X2877Y5273D01*
X2907Y5253D01*
X2960Y5242D01*
X3013Y5253D01*
X3057Y5283D01*
X3087Y5327D01*
X3098Y5380D01*
X3087Y5433D01*
X3057Y5477D01*
X3013Y5507D01*
X2960Y5518D01*
X2907Y5507D01*
X2877Y5487D01*
X2875Y5487D01*
X2873Y5487D01*
X2873Y5487D01*
X2872Y5486D01*
X2870Y5486D01*
X2868Y5486D01*
X2857Y5485D01*
X2851Y5485D01*
X2844Y5482D01*
X2150D01*
X2111Y5474D01*
X2078Y5452D01*
X1424Y4798D01*
X1402Y4765D01*
X1394Y4726D01*
Y3752D01*
X1391Y3745D01*
X1391Y3739D01*
X1390Y3728D01*
X1390Y3726D01*
X1390Y3724D01*
X1389Y3723D01*
X1389Y3723D01*
X1389Y3721D01*
X1389Y3719D01*
X1369Y3689D01*
X1358Y3636D01*
X1369Y3583D01*
X1399Y3539D01*
X1443Y3509D01*
X1496Y3498D01*
X1518Y3503D01*
X1542Y3457D01*
X1414Y3328D01*
X1392Y3295D01*
X1384Y3256D01*
Y1726D01*
X1392Y1687D01*
X1414Y1654D01*
X2334Y734D01*
X2367Y712D01*
X2406Y704D01*
X8608D01*
X8615Y701D01*
X8621Y701D01*
X8632Y700D01*
X8635Y700D01*
X8636Y700D01*
X8637Y699D01*
X8637Y699D01*
X8639Y699D01*
X8642Y699D01*
X8672Y679D01*
X8724Y668D01*
X8777Y679D01*
X8822Y709D01*
X8852Y753D01*
X8862Y806D01*
X8852Y859D01*
X8822Y903D01*
X8777Y933D01*
X8724Y944D01*
X8672Y933D01*
X8642Y913D01*
X8639Y913D01*
X8637Y913D01*
X8637Y913D01*
X8636Y912D01*
X8635Y912D01*
X8632Y912D01*
X8621Y911D01*
X8615Y911D01*
X8608Y908D01*
X2448D01*
X1588Y1768D01*
Y2792D01*
X1638Y2819D01*
X1653Y2809D01*
X1706Y2798D01*
X1759Y2809D01*
X1803Y2839D01*
X1833Y2883D01*
X1840Y2919D01*
X1842Y2920D01*
X1843Y2922D01*
X1843Y2922D01*
X1843Y2923D01*
X1845Y2924D01*
X1846Y2926D01*
X1853Y2934D01*
X1858Y2939D01*
X1860Y2946D01*
X2028Y3114D01*
X3576D01*
X3615Y3121D01*
X3648Y3144D01*
X4728Y4224D01*
X6189D01*
X6196Y4221D01*
X6202Y4221D01*
X6213Y4220D01*
X6216Y4220D01*
X6217Y4220D01*
X6218Y4219D01*
X6218Y4219D01*
X6220Y4219D01*
X6223Y4219D01*
X6253Y4199D01*
X6305Y4188D01*
X6358Y4199D01*
X6403Y4229D01*
X6433Y4273D01*
X6443Y4326D01*
X6433Y4379D01*
X6403Y4423D01*
X6358Y4453D01*
X6305Y4464D01*
X6253Y4453D01*
X6223Y4433D01*
X6220Y4433D01*
X6218Y4433D01*
X6218Y4433D01*
X6217Y4432D01*
X6216Y4432D01*
X6213Y4432D01*
X6202Y4431D01*
X6196Y4431D01*
X6189Y4428D01*
X4686D01*
X4647Y4420D01*
X4614Y4398D01*
X3533Y3318D01*
X2671D01*
X2650Y3368D01*
X4691Y5408D01*
X4784D01*
X4791Y5405D01*
X4797Y5405D01*
X4808Y5404D01*
X4810Y5404D01*
X4812Y5404D01*
X4813Y5403D01*
X4813Y5403D01*
X4815Y5403D01*
X4817Y5403D01*
X4847Y5383D01*
X4900Y5372D01*
X4953Y5383D01*
X4997Y5413D01*
X5027Y5457D01*
X5038Y5510D01*
X5027Y5563D01*
X5017Y5578D01*
X5044Y5628D01*
X10237D01*
X10276Y5636D01*
X10309Y5658D01*
X10874Y6223D01*
X10891Y6221D01*
X10924Y6206D01*
Y5973D01*
X10437Y5485D01*
X10432Y5486D01*
X10430Y5486D01*
X10428Y5486D01*
X10427Y5487D01*
X10427Y5487D01*
X10425Y5487D01*
X10423Y5487D01*
X10393Y5507D01*
X10340Y5518D01*
X10287Y5507D01*
X10243Y5477D01*
X10213Y5433D01*
X10202Y5380D01*
X10213Y5327D01*
X10243Y5283D01*
X10287Y5253D01*
X10340Y5242D01*
X10396Y5203D01*
X10398Y5192D01*
X10176Y4970D01*
X9470Y4264D01*
X9463Y4262D01*
X9459Y4257D01*
X9450Y4250D01*
X9448Y4249D01*
X9447Y4248D01*
X9446Y4247D01*
X9446Y4247D01*
X9444Y4246D01*
X9443Y4244D01*
X9407Y4237D01*
X9363Y4207D01*
X9333Y4163D01*
X9322Y4110D01*
X9333Y4057D01*
X9363Y4013D01*
X9407Y3983D01*
X9460Y3972D01*
X9513Y3983D01*
X9557Y4013D01*
X9587Y4057D01*
X9594Y4093D01*
X9596Y4094D01*
X9597Y4096D01*
X9597Y4096D01*
X9597Y4097D01*
X9599Y4098D01*
X9600Y4100D01*
X9607Y4109D01*
X9612Y4113D01*
X9614Y4120D01*
X10320Y4826D01*
X11378Y5884D01*
X11400Y5917D01*
X11408Y5956D01*
Y10441D01*
X11400Y10481D01*
X11378Y10514D01*
X10570Y11321D01*
X10537Y11343D01*
X10498Y11351D01*
X7312D01*
X7273Y11343D01*
X7240Y11321D01*
X6965Y11046D01*
X6959Y11044D01*
X6948Y11035D01*
X6937Y11028D01*
X6921Y11021D01*
X6901Y11014D01*
X6877Y11008D01*
X6849Y11003D01*
X6817Y10999D01*
X6740Y10994D01*
X6696Y10994D01*
X6690Y10992D01*
X6599Y10980D01*
X6512Y10944D01*
X6437Y10886D01*
X6379Y10811D01*
X6343Y10724D01*
X6331Y10630D01*
X6343Y10536D01*
X6379Y10449D01*
X6437Y10374D01*
X6477Y10343D01*
X6460Y10293D01*
X5926D01*
X5909Y10343D01*
X5949Y10374D01*
X6007Y10449D01*
X6043Y10536D01*
X6055Y10630D01*
X6043Y10724D01*
X6007Y10811D01*
X5949Y10886D01*
X5874Y10944D01*
X5787Y10980D01*
X5693Y10992D01*
X5599Y10980D01*
X5512Y10944D01*
X5439Y10888D01*
X5434Y10886D01*
X5402Y10855D01*
X5344Y10803D01*
X5319Y10783D01*
X5295Y10767D01*
X5274Y10754D01*
X5255Y10745D01*
X5239Y10739D01*
X5226Y10736D01*
X5211Y10735D01*
X5206Y10732D01*
X4596D01*
X4589Y10735D01*
X4583Y10735D01*
X4572Y10736D01*
X4570Y10736D01*
X4568Y10736D01*
X4567Y10737D01*
X4567Y10737D01*
X4565Y10737D01*
X4563Y10737D01*
X4533Y10757D01*
X4480Y10768D01*
X4427Y10757D01*
X4383Y10727D01*
X4353Y10683D01*
X4342Y10630D01*
X4353Y10577D01*
X4383Y10533D01*
X4427Y10503D01*
X4480Y10492D01*
X4533Y10503D01*
X4563Y10523D01*
X4565Y10523D01*
X4567Y10523D01*
X4567Y10523D01*
X4568Y10523D01*
X4570Y10524D01*
X4572Y10524D01*
X4583Y10525D01*
X4589Y10525D01*
X4596Y10528D01*
X5206D01*
X5211Y10525D01*
X5226Y10524D01*
X5239Y10521D01*
X5255Y10515D01*
X5274Y10506D01*
X5295Y10493D01*
X5319Y10477D01*
X5344Y10457D01*
X5402Y10405D01*
X5434Y10374D01*
X5439Y10372D01*
X5477Y10343D01*
X5460Y10293D01*
X3698D01*
X3693Y10295D01*
X3631Y10303D01*
X3563Y10327D01*
X3481Y10368D01*
X3387Y10428D01*
X3284Y10505D01*
X3150Y10630D01*
Y11811D01*
X11023D01*
X11024Y11809D01*
D02*
G37*
G36*
X4036Y5780D02*
X4040Y5778D01*
X4044Y5776D01*
X4048Y5774D01*
X4053Y5773D01*
X4059Y5772D01*
X4066Y5771D01*
X4080Y5770D01*
X4088Y5770D01*
Y5690D01*
X4080Y5690D01*
X4066Y5689D01*
X4059Y5688D01*
X4053Y5687D01*
X4048Y5685D01*
X4044Y5684D01*
X4040Y5682D01*
X4036Y5680D01*
X4034Y5677D01*
Y5782D01*
X4036Y5780D01*
D02*
G37*
G36*
X4846Y5458D02*
X4844Y5460D01*
X4840Y5462D01*
X4836Y5464D01*
X4832Y5465D01*
X4827Y5467D01*
X4821Y5468D01*
X4814Y5469D01*
X4800Y5470D01*
X4792Y5470D01*
Y5550D01*
X4800Y5550D01*
X4814Y5551D01*
X4821Y5552D01*
X4827Y5553D01*
X4832Y5555D01*
X4836Y5556D01*
X4840Y5558D01*
X4844Y5560D01*
X4846Y5562D01*
Y5458D01*
D02*
G37*
G36*
X10396Y5430D02*
X10400Y5428D01*
X10404Y5426D01*
X10408Y5425D01*
X10413Y5423D01*
X10419Y5422D01*
X10426Y5421D01*
X10440Y5420D01*
X10448Y5420D01*
Y5340D01*
X10440Y5340D01*
X10426Y5339D01*
X10419Y5338D01*
X10413Y5337D01*
X10408Y5336D01*
X10404Y5334D01*
X10400Y5332D01*
X10396Y5330D01*
X10394Y5328D01*
Y5433D01*
X10396Y5430D01*
D02*
G37*
G36*
X2906Y5328D02*
X2904Y5330D01*
X2900Y5332D01*
X2896Y5334D01*
X2892Y5336D01*
X2887Y5337D01*
X2881Y5338D01*
X2874Y5339D01*
X2860Y5340D01*
X2852Y5340D01*
Y5420D01*
X2860Y5420D01*
X2874Y5421D01*
X2881Y5422D01*
X2887Y5423D01*
X2892Y5425D01*
X2896Y5426D01*
X2900Y5428D01*
X2904Y5430D01*
X2906Y5433D01*
Y5328D01*
D02*
G37*
G36*
X2406Y5060D02*
X2403Y5057D01*
X2401Y5054D01*
X2399Y5050D01*
X2397Y5045D01*
X2396Y5040D01*
X2394Y5034D01*
X2393Y5028D01*
X2392Y5013D01*
X2392Y5005D01*
X2312Y5010D01*
X2312Y5018D01*
X2310Y5039D01*
X2309Y5045D01*
X2308Y5050D01*
X2307Y5055D01*
X2305Y5059D01*
X2303Y5062D01*
X2301Y5065D01*
X2406Y5060D01*
D02*
G37*
G36*
X6252Y4273D02*
X6249Y4276D01*
X6246Y4278D01*
X6242Y4280D01*
X6237Y4281D01*
X6232Y4283D01*
X6226Y4284D01*
X6220Y4285D01*
X6205Y4286D01*
X6197Y4286D01*
Y4366D01*
X6205Y4366D01*
X6220Y4367D01*
X6226Y4368D01*
X6232Y4369D01*
X6237Y4370D01*
X6242Y4372D01*
X6246Y4374D01*
X6249Y4376D01*
X6252Y4378D01*
Y4273D01*
D02*
G37*
G36*
X9565Y4158D02*
X9559Y4153D01*
X9550Y4141D01*
X9546Y4136D01*
X9542Y4131D01*
X9540Y4127D01*
X9538Y4122D01*
X9536Y4118D01*
X9535Y4114D01*
X9535Y4111D01*
X9461Y4185D01*
X9464Y4185D01*
X9468Y4186D01*
X9472Y4188D01*
X9477Y4190D01*
X9481Y4192D01*
X9486Y4196D01*
X9491Y4200D01*
X9503Y4209D01*
X9508Y4215D01*
X9565Y4158D01*
D02*
G37*
G36*
X2392Y3846D02*
X2393Y3831D01*
X2394Y3825D01*
X2395Y3819D01*
X2397Y3814D01*
X2398Y3809D01*
X2400Y3805D01*
X2402Y3802D01*
X2405Y3799D01*
X2300D01*
X2302Y3802D01*
X2304Y3805D01*
X2306Y3809D01*
X2308Y3814D01*
X2309Y3819D01*
X2310Y3825D01*
X2311Y3831D01*
X2312Y3846D01*
X2312Y3854D01*
X2392D01*
X2392Y3846D01*
D02*
G37*
G36*
X1536Y3736D02*
X1537Y3722D01*
X1538Y3715D01*
X1539Y3709D01*
X1540Y3704D01*
X1542Y3700D01*
X1544Y3696D01*
X1546Y3692D01*
X1548Y3690D01*
X1443D01*
X1446Y3692D01*
X1448Y3696D01*
X1450Y3700D01*
X1451Y3704D01*
X1453Y3709D01*
X1454Y3715D01*
X1455Y3722D01*
X1456Y3736D01*
X1456Y3744D01*
X1536D01*
X1536Y3736D01*
D02*
G37*
G36*
X1811Y2984D02*
X1805Y2978D01*
X1796Y2967D01*
X1792Y2962D01*
X1788Y2957D01*
X1786Y2953D01*
X1784Y2948D01*
X1782Y2944D01*
X1781Y2940D01*
X1781Y2937D01*
X1707Y3011D01*
X1710Y3011D01*
X1714Y3012D01*
X1718Y3014D01*
X1723Y3016D01*
X1727Y3018D01*
X1732Y3022D01*
X1737Y3026D01*
X1748Y3035D01*
X1754Y3041D01*
X1811Y2984D01*
D02*
G37*
G36*
X8671Y753D02*
X8668Y756D01*
X8665Y758D01*
X8661Y760D01*
X8656Y761D01*
X8651Y763D01*
X8645Y764D01*
X8639Y765D01*
X8624Y766D01*
X8616Y766D01*
Y846D01*
X8624Y846D01*
X8639Y847D01*
X8645Y848D01*
X8651Y849D01*
X8656Y850D01*
X8661Y852D01*
X8665Y854D01*
X8668Y856D01*
X8671Y858D01*
Y753D01*
D02*
G37*
%LPC*%
G36*
X9809Y7243D02*
X7741D01*
X7702Y7235D01*
X7669Y7213D01*
X6579Y6123D01*
X1566D01*
X1559Y6126D01*
X1531Y6126D01*
X1521Y6127D01*
X1520Y6127D01*
X1520Y6127D01*
X1519Y6127D01*
X1516Y6126D01*
X1476Y6134D01*
X1423Y6123D01*
X1379Y6093D01*
X1349Y6049D01*
X1338Y5996D01*
X1349Y5943D01*
X1379Y5899D01*
X1423Y5869D01*
X1476Y5858D01*
X1529Y5869D01*
X1573Y5899D01*
X1585Y5915D01*
X1590Y5916D01*
X1596Y5916D01*
X1603Y5919D01*
X6621D01*
X6660Y5927D01*
X6693Y5949D01*
X7783Y7039D01*
X7849D01*
X7876Y6989D01*
X7869Y6979D01*
X7858Y6926D01*
X7869Y6873D01*
X7889Y6843D01*
X7889Y6841D01*
X7889Y6839D01*
X7889Y6839D01*
X7890Y6838D01*
X7890Y6836D01*
X7890Y6834D01*
X7891Y6823D01*
X7891Y6817D01*
X7894Y6810D01*
Y6578D01*
X7490Y6174D01*
X7483Y6172D01*
X7479Y6167D01*
X7470Y6160D01*
X7468Y6159D01*
X7467Y6157D01*
X7466Y6157D01*
X7466Y6157D01*
X7464Y6156D01*
X7463Y6154D01*
X7427Y6147D01*
X7383Y6117D01*
X7353Y6073D01*
X7342Y6020D01*
X7353Y5967D01*
X7383Y5923D01*
X7427Y5893D01*
X7480Y5882D01*
X7533Y5893D01*
X7577Y5923D01*
X7607Y5967D01*
X7614Y6003D01*
X7616Y6004D01*
X7617Y6006D01*
X7617Y6006D01*
X7617Y6007D01*
X7619Y6008D01*
X7620Y6010D01*
X7627Y6019D01*
X7632Y6023D01*
X7634Y6030D01*
X8068Y6464D01*
X8090Y6497D01*
X8098Y6536D01*
Y6810D01*
X8101Y6817D01*
X8101Y6823D01*
X8102Y6834D01*
X8102Y6836D01*
X8102Y6838D01*
X8103Y6839D01*
X8103Y6839D01*
X8103Y6841D01*
X8103Y6843D01*
X8123Y6873D01*
X8134Y6926D01*
X8123Y6979D01*
X8116Y6989D01*
X8143Y7039D01*
X9767D01*
X9865Y6941D01*
X9865Y6941D01*
X9867Y6938D01*
X9872Y6934D01*
X9875Y6927D01*
X9880Y6922D01*
X9882Y6919D01*
X9884Y6916D01*
X9884Y6916D01*
X9882Y6905D01*
X9893Y6853D01*
X9923Y6808D01*
X9967Y6778D01*
X10020Y6768D01*
X10073Y6778D01*
X10117Y6808D01*
X10147Y6853D01*
X10158Y6905D01*
X10147Y6958D01*
X10117Y7003D01*
X10073Y7032D01*
X10068Y7033D01*
X10068Y7034D01*
X10065Y7036D01*
X10065Y7036D01*
X10065Y7036D01*
X10065Y7036D01*
X10064Y7036D01*
X10045Y7053D01*
X10040Y7058D01*
X10033Y7061D01*
X9881Y7213D01*
X9848Y7235D01*
X9809Y7243D01*
D02*
G37*
G36*
X10326Y4568D02*
X10273Y4557D01*
X10229Y4527D01*
X10199Y4483D01*
X10192Y4447D01*
X10190Y4446D01*
X10189Y4444D01*
X10189Y4444D01*
X10188Y4443D01*
X10187Y4442D01*
X10186Y4440D01*
X10179Y4432D01*
X10174Y4427D01*
X10172Y4420D01*
X9732Y3980D01*
X9314Y3562D01*
X8285Y2533D01*
X6085D01*
X6078Y2536D01*
X6071Y2536D01*
X6061Y2537D01*
X6058Y2537D01*
X6056Y2537D01*
X6056Y2538D01*
X6056Y2538D01*
X6054Y2538D01*
X6051Y2538D01*
X6021Y2558D01*
X5968Y2569D01*
X5916Y2558D01*
X5898Y2546D01*
X5848Y2573D01*
Y2886D01*
X5840Y2925D01*
X5818Y2958D01*
X5378Y3398D01*
X5345Y3420D01*
X5306Y3428D01*
X5038D01*
X5031Y3431D01*
X5025Y3431D01*
X5014Y3432D01*
X5012Y3432D01*
X5010Y3432D01*
X5009Y3433D01*
X5009Y3433D01*
X5007Y3433D01*
X5004Y3433D01*
X4974Y3453D01*
X4922Y3464D01*
X4869Y3453D01*
X4824Y3423D01*
X4795Y3379D01*
X4784Y3326D01*
X4795Y3273D01*
X4824Y3229D01*
X4869Y3199D01*
X4922Y3188D01*
X4974Y3199D01*
X5004Y3219D01*
X5007Y3219D01*
X5009Y3219D01*
X5009Y3219D01*
X5010Y3220D01*
X5012Y3220D01*
X5014Y3220D01*
X5025Y3221D01*
X5031Y3221D01*
X5038Y3224D01*
X5264D01*
X5483Y3005D01*
X5466Y2951D01*
X5447Y2947D01*
X5403Y2917D01*
X5373Y2873D01*
X5366Y2837D01*
X5364Y2836D01*
X5363Y2834D01*
X5363Y2834D01*
X5363Y2833D01*
X5361Y2832D01*
X5360Y2830D01*
X5353Y2822D01*
X5348Y2817D01*
X5346Y2810D01*
X5328Y2792D01*
X2816D01*
X2809Y2795D01*
X2803Y2795D01*
X2792Y2796D01*
X2790Y2796D01*
X2788Y2796D01*
X2787Y2797D01*
X2787Y2797D01*
X2785Y2797D01*
X2783Y2797D01*
X2753Y2817D01*
X2700Y2828D01*
X2647Y2817D01*
X2603Y2787D01*
X2573Y2743D01*
X2562Y2690D01*
X2573Y2637D01*
X2603Y2593D01*
X2647Y2563D01*
X2700Y2552D01*
X2753Y2563D01*
X2783Y2583D01*
X2785Y2583D01*
X2787Y2583D01*
X2787Y2583D01*
X2788Y2584D01*
X2790Y2584D01*
X2792Y2584D01*
X2803Y2585D01*
X2809Y2585D01*
X2816Y2588D01*
X5370D01*
X5409Y2596D01*
X5442Y2618D01*
X5490Y2666D01*
X5497Y2668D01*
X5501Y2673D01*
X5510Y2680D01*
X5512Y2681D01*
X5513Y2683D01*
X5514Y2683D01*
X5514Y2683D01*
X5516Y2684D01*
X5517Y2686D01*
X5553Y2693D01*
X5594Y2720D01*
X5611Y2717D01*
X5644Y2703D01*
Y2492D01*
X5641Y2489D01*
X5598Y2470D01*
X5594Y2470D01*
X5565Y2489D01*
X5512Y2500D01*
X5459Y2489D01*
X5429Y2469D01*
X5426Y2470D01*
X5425Y2469D01*
X5424Y2469D01*
X5424Y2469D01*
X5422Y2468D01*
X5420Y2468D01*
X5409Y2467D01*
X5402Y2467D01*
X5396Y2464D01*
X2039D01*
X2032Y2467D01*
X2017Y2467D01*
X2007Y2468D01*
X2001Y2469D01*
X1999Y2469D01*
X1999Y2469D01*
X1999Y2469D01*
X1997Y2469D01*
X1995Y2469D01*
X1989Y2473D01*
X1936Y2484D01*
X1883Y2473D01*
X1839Y2443D01*
X1809Y2399D01*
X1798Y2346D01*
X1809Y2293D01*
X1839Y2249D01*
X1883Y2219D01*
X1936Y2208D01*
X1989Y2219D01*
X2033Y2249D01*
X2038Y2256D01*
X2047Y2257D01*
X2053Y2257D01*
X2060Y2260D01*
X2063D01*
X2069Y2259D01*
X2070Y2260D01*
X5396D01*
X5402Y2257D01*
X5409Y2257D01*
X5412Y2257D01*
X5418Y2231D01*
X5440Y2198D01*
X5954Y1684D01*
X5987Y1662D01*
X6026Y1654D01*
X8576D01*
X8615Y1662D01*
X8648Y1684D01*
X9680Y2716D01*
X9687Y2718D01*
X9692Y2723D01*
X9700Y2730D01*
X9702Y2731D01*
X9703Y2733D01*
X9704Y2733D01*
X9704Y2733D01*
X9706Y2734D01*
X9707Y2736D01*
X9743Y2743D01*
X9787Y2773D01*
X9817Y2817D01*
X9828Y2870D01*
X9817Y2923D01*
X9787Y2967D01*
X9743Y2997D01*
X9690Y3008D01*
X9637Y2997D01*
X9593Y2967D01*
X9563Y2923D01*
X9556Y2887D01*
X9554Y2886D01*
X9553Y2884D01*
X9553Y2884D01*
X9553Y2883D01*
X9551Y2882D01*
X9550Y2880D01*
X9543Y2871D01*
X9538Y2867D01*
X9536Y2860D01*
X8534Y1858D01*
X6068D01*
X5862Y2064D01*
X5883Y2114D01*
X8502D01*
X8541Y2122D01*
X8574Y2144D01*
X9292Y2862D01*
X9299Y2864D01*
X9304Y2869D01*
X9312Y2876D01*
X9314Y2877D01*
X9315Y2878D01*
X9316Y2879D01*
X9316Y2879D01*
X9318Y2880D01*
X9320Y2882D01*
X9355Y2889D01*
X9400Y2919D01*
X9429Y2963D01*
X9440Y3016D01*
X9429Y3069D01*
X9400Y3113D01*
X9355Y3143D01*
X9302Y3154D01*
X9302Y3153D01*
X9245Y3193D01*
X9243Y3203D01*
X9876Y3836D01*
X10316Y4276D01*
X10323Y4278D01*
X10327Y4283D01*
X10336Y4290D01*
X10338Y4291D01*
X10339Y4293D01*
X10340Y4293D01*
X10340Y4293D01*
X10342Y4294D01*
X10343Y4296D01*
X10379Y4303D01*
X10423Y4333D01*
X10453Y4377D01*
X10464Y4430D01*
X10453Y4483D01*
X10423Y4527D01*
X10379Y4557D01*
X10326Y4568D01*
D02*
G37*
%LPD*%
G36*
X10001Y7006D02*
X10025Y6985D01*
X10028Y6982D01*
X10032Y6980D01*
X10034Y6979D01*
X10037Y6978D01*
X9947Y6923D01*
X9948Y6927D01*
X9948Y6931D01*
X9947Y6935D01*
X9945Y6940D01*
X9943Y6945D01*
X9940Y6950D01*
X9937Y6955D01*
X9932Y6960D01*
X9927Y6966D01*
X9922Y6972D01*
X9995Y7012D01*
X10001Y7006D01*
D02*
G37*
G36*
X8046Y6870D02*
X8044Y6866D01*
X8042Y6862D01*
X8040Y6858D01*
X8039Y6853D01*
X8038Y6847D01*
X8037Y6840D01*
X8036Y6826D01*
X8036Y6818D01*
X7956D01*
X7956Y6826D01*
X7955Y6840D01*
X7954Y6847D01*
X7953Y6853D01*
X7951Y6858D01*
X7950Y6862D01*
X7948Y6866D01*
X7946Y6870D01*
X7943Y6872D01*
X8048D01*
X8046Y6870D01*
D02*
G37*
G36*
X7585Y6068D02*
X7579Y6062D01*
X7570Y6051D01*
X7566Y6046D01*
X7562Y6041D01*
X7560Y6037D01*
X7558Y6032D01*
X7556Y6028D01*
X7555Y6024D01*
X7555Y6021D01*
X7481Y6095D01*
X7484Y6095D01*
X7488Y6096D01*
X7492Y6098D01*
X7497Y6100D01*
X7501Y6102D01*
X7506Y6106D01*
X7511Y6110D01*
X7522Y6119D01*
X7528Y6125D01*
X7585Y6068D01*
D02*
G37*
G36*
X1510Y6063D02*
X1512Y6062D01*
X1515Y6062D01*
X1529Y6061D01*
X1558Y6061D01*
X1594Y5981D01*
X1586Y5981D01*
X1572Y5979D01*
X1566Y5978D01*
X1560Y5977D01*
X1556Y5975D01*
X1552Y5973D01*
X1548Y5970D01*
X1546Y5968D01*
X1544Y5964D01*
X1509Y6063D01*
X1510Y6063D01*
D02*
G37*
G36*
X10325Y4355D02*
X10322Y4355D01*
X10318Y4354D01*
X10314Y4352D01*
X10309Y4350D01*
X10305Y4348D01*
X10300Y4344D01*
X10295Y4340D01*
X10283Y4331D01*
X10278Y4325D01*
X10221Y4382D01*
X10227Y4388D01*
X10236Y4399D01*
X10240Y4404D01*
X10244Y4409D01*
X10246Y4413D01*
X10248Y4418D01*
X10250Y4422D01*
X10251Y4426D01*
X10251Y4429D01*
X10325Y4355D01*
D02*
G37*
G36*
X4978Y3376D02*
X4981Y3374D01*
X4985Y3372D01*
X4990Y3370D01*
X4995Y3369D01*
X5001Y3368D01*
X5007Y3367D01*
X5022Y3366D01*
X5030Y3366D01*
Y3286D01*
X5022Y3286D01*
X5007Y3285D01*
X5001Y3284D01*
X4995Y3283D01*
X4990Y3281D01*
X4985Y3280D01*
X4981Y3278D01*
X4978Y3276D01*
X4975Y3273D01*
Y3378D01*
X4978Y3376D01*
D02*
G37*
G36*
X9302Y2941D02*
X9298Y2941D01*
X9294Y2940D01*
X9290Y2938D01*
X9286Y2936D01*
X9281Y2934D01*
X9276Y2930D01*
X9271Y2926D01*
X9260Y2917D01*
X9254Y2911D01*
X9197Y2968D01*
X9203Y2973D01*
X9213Y2985D01*
X9217Y2990D01*
X9220Y2995D01*
X9223Y2999D01*
X9225Y3004D01*
X9226Y3008D01*
X9227Y3012D01*
X9227Y3015D01*
X9302Y2941D01*
D02*
G37*
G36*
X9689Y2795D02*
X9686Y2795D01*
X9682Y2794D01*
X9678Y2792D01*
X9673Y2790D01*
X9669Y2788D01*
X9664Y2784D01*
X9659Y2780D01*
X9648Y2771D01*
X9642Y2765D01*
X9585Y2822D01*
X9591Y2828D01*
X9600Y2839D01*
X9604Y2844D01*
X9608Y2849D01*
X9610Y2853D01*
X9612Y2858D01*
X9614Y2862D01*
X9615Y2866D01*
X9615Y2869D01*
X9689Y2795D01*
D02*
G37*
G36*
X5499Y2745D02*
X5496Y2745D01*
X5492Y2744D01*
X5488Y2742D01*
X5483Y2740D01*
X5479Y2738D01*
X5474Y2734D01*
X5469Y2730D01*
X5458Y2721D01*
X5452Y2715D01*
X5395Y2772D01*
X5401Y2778D01*
X5410Y2789D01*
X5414Y2794D01*
X5418Y2799D01*
X5420Y2803D01*
X5422Y2808D01*
X5424Y2812D01*
X5425Y2816D01*
X5425Y2819D01*
X5499Y2745D01*
D02*
G37*
G36*
X2756Y2740D02*
X2760Y2738D01*
X2764Y2736D01*
X2768Y2734D01*
X2773Y2733D01*
X2779Y2732D01*
X2786Y2731D01*
X2800Y2730D01*
X2808Y2730D01*
Y2650D01*
X2800Y2650D01*
X2786Y2649D01*
X2779Y2648D01*
X2773Y2647D01*
X2768Y2646D01*
X2764Y2644D01*
X2760Y2642D01*
X2756Y2640D01*
X2754Y2637D01*
Y2743D01*
X2756Y2740D01*
D02*
G37*
G36*
X6025Y2481D02*
X6028Y2479D01*
X6032Y2477D01*
X6037Y2475D01*
X6042Y2474D01*
X6048Y2473D01*
X6054Y2472D01*
X6069Y2471D01*
X6077Y2471D01*
Y2391D01*
X6069Y2391D01*
X6054Y2390D01*
X6048Y2389D01*
X6042Y2388D01*
X6037Y2386D01*
X6032Y2385D01*
X6028Y2383D01*
X6025Y2381D01*
X6022Y2378D01*
Y2483D01*
X6025Y2481D01*
D02*
G37*
G36*
X5458Y2310D02*
X5456Y2312D01*
X5452Y2314D01*
X5448Y2316D01*
X5444Y2318D01*
X5438Y2319D01*
X5433Y2320D01*
X5426Y2321D01*
X5412Y2322D01*
X5403Y2322D01*
Y2402D01*
X5412Y2402D01*
X5426Y2403D01*
X5433Y2404D01*
X5438Y2405D01*
X5444Y2407D01*
X5448Y2408D01*
X5452Y2410D01*
X5456Y2412D01*
X5458Y2415D01*
Y2310D01*
D02*
G37*
G36*
X1979Y2408D02*
X1982Y2406D01*
X1986Y2405D01*
X1990Y2405D01*
X2001Y2403D01*
X2015Y2402D01*
X2031Y2402D01*
X2052Y2322D01*
X2044Y2322D01*
X2030Y2321D01*
X2023Y2320D01*
X2018Y2318D01*
X2013Y2316D01*
X2009Y2314D01*
X2005Y2312D01*
X2002Y2309D01*
X2000Y2306D01*
X1977Y2409D01*
X1979Y2408D01*
D02*
G37*
D11*
X11024Y0D02*
G03*
X11811Y787I0J787D01*
G01*
Y11024D02*
G03*
X11024Y11811I-787J0D01*
G01*
X787D02*
G03*
X0Y11024I0J-787D01*
G01*
Y787D02*
G03*
X787Y0I787J0D01*
G01*
X9843Y0D02*
X11024D01*
X9449Y394D02*
X9843Y0D01*
X2362Y394D02*
X9449D01*
X1969Y0D02*
X2362Y394D01*
X787Y0D02*
X1969D01*
X11811Y787D02*
Y11024D01*
X787Y11811D02*
X11024D01*
X0Y787D02*
Y11024D01*
D39*
X11306Y5956D02*
Y10441D01*
X10498Y11249D02*
X11306Y10441D01*
X8384Y11249D02*
X10498D01*
X1920Y2362D02*
X5512D01*
X5512Y2270D02*
X5512D01*
X9386Y3490D02*
X10326Y4430D01*
X8327Y2431D02*
X9804Y3908D01*
X5306Y3326D02*
X5746Y2886D01*
Y2472D02*
Y2886D01*
X4648Y5510D02*
X4900D01*
X2557Y3419D02*
X4648Y5510D01*
X3576Y3216D02*
X4686Y4326D01*
X1986Y3216D02*
X3576D01*
X1706Y2936D02*
X1986Y3216D01*
X9060Y9392D02*
Y9850D01*
Y9392D02*
X11026Y7426D01*
X1580Y9726D02*
Y11181D01*
X1575Y10236D02*
X1620Y10191D01*
X8254D01*
X8693Y10630D01*
X4480D02*
X5679D01*
X5693Y10616D01*
X10020Y6905D02*
Y6930D01*
X9809Y7141D02*
X10020Y6930D01*
X7741Y7141D02*
X9809D01*
X6621Y6021D02*
X7741Y7141D01*
X11026Y5931D02*
Y7426D01*
X10475Y5380D02*
X11026Y5931D01*
X10248Y4898D02*
X11306Y5956D01*
X1501Y6021D02*
X6621D01*
X7996Y6536D02*
Y6926D01*
X7480Y6020D02*
X7996Y6536D01*
X10237Y5730D02*
X10806Y6299D01*
X3980Y5730D02*
X10237D01*
X10340Y5380D02*
X10475D01*
X9460Y4110D02*
X10248Y4898D01*
X2352Y3745D02*
Y5112D01*
X2356Y5116D01*
X1476Y5996D02*
X1501Y6021D01*
X2150Y5380D02*
X2502D01*
X1496Y4726D02*
X2150Y5380D01*
X2502D02*
X2960D01*
X1189Y9291D02*
X1580D01*
X912Y9594D02*
Y10236D01*
Y10904D01*
X916Y9594D02*
X1380Y9526D01*
X8576Y1756D02*
X9690Y2870D01*
X5968Y2431D02*
X8327D01*
X1920Y2362D02*
X1936Y2346D01*
X5512Y2270D02*
Y2362D01*
X5746Y2326D02*
Y2472D01*
Y2326D02*
X5856Y2216D01*
X5512Y2270D02*
X6026Y1756D01*
X2700Y2690D02*
X5370D01*
X10806Y6299D02*
Y7016D01*
X5693Y10616D02*
Y10630D01*
X6026Y1756D02*
X8576D01*
X4922Y3326D02*
X5306D01*
X5370Y2690D02*
X5500Y2820D01*
X5856Y2216D02*
X8502D01*
X635Y10236D02*
X912D01*
Y9594D02*
X916Y9594D01*
X1857Y9568D02*
X2248D01*
X1580Y9291D02*
X1857Y9568D01*
X912D02*
X1189Y9291D01*
X1380Y9526D02*
X1580Y9726D01*
X1857Y10904D02*
X2248D01*
X1580Y11181D02*
X1857Y10904D01*
X8502Y2216D02*
X9302Y3016D01*
X2406Y806D02*
X8724D01*
X1486Y1726D02*
X2406Y806D01*
X1486Y1726D02*
Y3256D01*
X1649Y3419D01*
X2557D01*
X4686Y4326D02*
X6305D01*
X1496Y3636D02*
Y4726D01*
X7312Y11249D02*
X8384D01*
X6693Y10630D02*
X7312Y11249D01*
X912Y10236D02*
X1575D01*
D40*
D03*
D41*
X2525D02*
D03*
X2248Y9568D02*
D03*
X1580Y9291D02*
D03*
X912Y9568D02*
D03*
X635Y10236D02*
D03*
X912Y10904D02*
D03*
X1580Y11181D02*
D03*
X2248Y10904D02*
D03*
D42*
X5693Y10630D02*
D03*
X6693D02*
D03*
X7693D02*
D03*
D43*
X8693D02*
D03*
D44*
X9060Y9850D02*
D03*
X4480Y10630D02*
D03*
X10020Y6905D02*
D03*
X7480Y6020D02*
D03*
X10340Y5380D02*
D03*
X2352Y3745D02*
D03*
X4900Y5510D02*
D03*
X3980Y5730D02*
D03*
X2960Y5380D02*
D03*
X9690Y2870D02*
D03*
X9460Y4110D02*
D03*
X7996Y6926D02*
D03*
X5512Y2362D02*
D03*
X5968Y2431D02*
D03*
X2700Y2690D02*
D03*
X1936Y2346D02*
D03*
X4922Y3326D02*
D03*
X5500Y2820D02*
D03*
X10326Y4430D02*
D03*
X9302Y3016D02*
D03*
X8724Y806D02*
D03*
X6305Y4326D02*
D03*
X1706Y2936D02*
D03*
X1496Y3636D02*
D03*
X1476Y5996D02*
D03*
X2356Y5116D02*
D03*
X10806Y7016D02*
D03*
M02*
