G04*
G04 #@! TF.GenerationSoftware,Altium Limited,Altium Designer,18.1.9 (240)*
G04*
G04 Layer_Color=8388736*
%FSLAX24Y24*%
%MOIN*%
G70*
G01*
G75*
%ADD11C,0.0100*%
%ADD25R,0.0466X0.0446*%
%ADD26R,0.0234X0.1261*%
%ADD27R,0.0446X0.0466*%
%ADD28R,0.0572X0.0356*%
%ADD29R,0.0572X0.0356*%
%ADD30R,0.0466X0.0446*%
%ADD31R,0.0446X0.0466*%
%ADD32R,0.0580X0.0867*%
%ADD33R,0.0332X0.0277*%
%ADD34C,0.2718*%
%ADD35C,0.0552*%
%ADD36C,0.0678*%
%ADD37R,0.0678X0.0678*%
%ADD38C,0.0230*%
D11*
X11024Y0D02*
G03*
X11811Y787I0J787D01*
G01*
Y11024D02*
G03*
X11024Y11811I-787J0D01*
G01*
X787D02*
G03*
X0Y11024I0J-787D01*
G01*
Y787D02*
G03*
X787Y0I787J0D01*
G01*
X9843Y0D02*
X11024D01*
X9449Y394D02*
X9843Y0D01*
X2362Y394D02*
X9449D01*
X1969Y0D02*
X2362Y394D01*
X787Y0D02*
X1969D01*
X11811Y787D02*
Y11024D01*
X787Y11811D02*
X11024D01*
X0Y787D02*
Y11024D01*
D25*
X5903Y4241D02*
D03*
X5905Y3634D02*
D03*
X1984D02*
D03*
X1982Y4241D02*
D03*
X6889Y3634D02*
D03*
X6887Y4241D02*
D03*
X4922Y3634D02*
D03*
X4920Y4241D02*
D03*
X3938Y3634D02*
D03*
X3936Y4241D02*
D03*
X2955Y3634D02*
D03*
X2953Y4241D02*
D03*
X1002Y3634D02*
D03*
X1000Y4241D02*
D03*
X2971Y5996D02*
D03*
X2969Y6603D02*
D03*
X1986Y5996D02*
D03*
X1984Y6603D02*
D03*
X1002Y5996D02*
D03*
X1000Y6603D02*
D03*
D26*
X9827Y1575D02*
D03*
X9551D02*
D03*
X9276D02*
D03*
X9000D02*
D03*
X8724D02*
D03*
X8449D02*
D03*
X8173D02*
D03*
X7898D02*
D03*
X7622D02*
D03*
X7346D02*
D03*
X7071D02*
D03*
X6795D02*
D03*
X6520D02*
D03*
X6244D02*
D03*
X5968D02*
D03*
X5693D02*
D03*
X1835D02*
D03*
X2110D02*
D03*
X2386D02*
D03*
X2661D02*
D03*
X2937D02*
D03*
X3213D02*
D03*
X3488D02*
D03*
X3764D02*
D03*
X4039D02*
D03*
X4315D02*
D03*
X4591D02*
D03*
X4866D02*
D03*
X5142D02*
D03*
X5417D02*
D03*
D27*
X10236Y9449D02*
D03*
X10843Y9451D02*
D03*
D28*
X10138Y8248D02*
D03*
Y7500D02*
D03*
D29*
X11122Y7874D02*
D03*
D30*
X8858Y4235D02*
D03*
Y3628D02*
D03*
X7875Y3625D02*
D03*
Y4232D02*
D03*
D31*
X8645Y9055D02*
D03*
X9252D02*
D03*
X8645Y8071D02*
D03*
X9252D02*
D03*
X9255Y7087D02*
D03*
X8648D02*
D03*
X8645Y6102D02*
D03*
X9252D02*
D03*
D32*
X10324Y3740D02*
D03*
X11024D02*
D03*
D33*
X10055Y5906D02*
D03*
X10630D02*
D03*
D34*
X1575Y10236D02*
D03*
D35*
X2525D02*
D03*
X2248Y9568D02*
D03*
X1580Y9291D02*
D03*
X912Y9568D02*
D03*
X635Y10236D02*
D03*
X912Y10904D02*
D03*
X1580Y11181D02*
D03*
X2248Y10904D02*
D03*
D36*
X5693Y10630D02*
D03*
X6693D02*
D03*
X7693D02*
D03*
D37*
X8693D02*
D03*
D38*
X9060Y9850D02*
D03*
X4480Y10630D02*
D03*
X10020Y6905D02*
D03*
X7480Y6020D02*
D03*
X10340Y5380D02*
D03*
X2352Y3745D02*
D03*
X4900Y5510D02*
D03*
X3980Y5730D02*
D03*
X2960Y5380D02*
D03*
X9690Y2870D02*
D03*
X9460Y4110D02*
D03*
X7996Y6926D02*
D03*
X5512Y2362D02*
D03*
X5968Y2431D02*
D03*
X2700Y2690D02*
D03*
X1936Y2346D02*
D03*
X4922Y3326D02*
D03*
X5500Y2820D02*
D03*
X10326Y4430D02*
D03*
X9302Y3016D02*
D03*
X8724Y806D02*
D03*
X6305Y4326D02*
D03*
X1706Y2936D02*
D03*
X1496Y3636D02*
D03*
X1476Y5996D02*
D03*
X2356Y5116D02*
D03*
X10806Y7016D02*
D03*
M02*
