G04*
G04 #@! TF.GenerationSoftware,Altium Limited,Altium Designer,18.1.9 (240)*
G04*
G04 Layer_Color=16711935*
%FSLAX24Y24*%
%MOIN*%
G70*
G01*
G75*
%ADD11C,0.0100*%
%ADD34C,0.2718*%
%ADD35C,0.0552*%
%ADD36C,0.0678*%
%ADD37R,0.0678X0.0678*%
%ADD38C,0.0230*%
D11*
X11024Y0D02*
G03*
X11811Y787I0J787D01*
G01*
Y11024D02*
G03*
X11024Y11811I-787J0D01*
G01*
X787D02*
G03*
X0Y11024I0J-787D01*
G01*
Y787D02*
G03*
X787Y0I787J0D01*
G01*
X9843Y0D02*
X11024D01*
X9449Y394D02*
X9843Y0D01*
X2362Y394D02*
X9449D01*
X1969Y0D02*
X2362Y394D01*
X787Y0D02*
X1969D01*
X11811Y787D02*
Y11024D01*
X787Y11811D02*
X11024D01*
X0Y787D02*
Y11024D01*
D34*
X1575Y10236D02*
D03*
D35*
X2525D02*
D03*
X2248Y9568D02*
D03*
X1580Y9291D02*
D03*
X912Y9568D02*
D03*
X635Y10236D02*
D03*
X912Y10904D02*
D03*
X1580Y11181D02*
D03*
X2248Y10904D02*
D03*
D36*
X5693Y10630D02*
D03*
X6693D02*
D03*
X7693D02*
D03*
D37*
X8693D02*
D03*
D38*
X9060Y9850D02*
D03*
X4480Y10630D02*
D03*
X10020Y6905D02*
D03*
X7480Y6020D02*
D03*
X10340Y5380D02*
D03*
X2352Y3745D02*
D03*
X4900Y5510D02*
D03*
X3980Y5730D02*
D03*
X2960Y5380D02*
D03*
X9690Y2870D02*
D03*
X9460Y4110D02*
D03*
X7996Y6926D02*
D03*
X5512Y2362D02*
D03*
X5968Y2431D02*
D03*
X2700Y2690D02*
D03*
X1936Y2346D02*
D03*
X4922Y3326D02*
D03*
X5500Y2820D02*
D03*
X10326Y4430D02*
D03*
X9302Y3016D02*
D03*
X8724Y806D02*
D03*
X6305Y4326D02*
D03*
X1706Y2936D02*
D03*
X1496Y3636D02*
D03*
X1476Y5996D02*
D03*
X2356Y5116D02*
D03*
X10806Y7016D02*
D03*
M02*
