G04*
G04 #@! TF.GenerationSoftware,Altium Limited,Altium Designer,18.1.9 (240)*
G04*
G04 Layer_Color=32896*
%FSLAX24Y24*%
%MOIN*%
G70*
G01*
G75*
%ADD11C,0.0100*%
G36*
X5383Y8019D02*
X5384Y8018D01*
X5384Y8018D01*
Y8017D01*
Y8016D01*
X5384Y8010D01*
X5383Y8004D01*
X5383Y8001D01*
Y8000D01*
X5382Y7998D01*
Y7998D01*
Y7995D01*
Y7992D01*
X5383Y7984D01*
X5385Y7975D01*
X5388Y7966D01*
X5392Y7958D01*
X5393Y7954D01*
X5394Y7950D01*
X5395Y7948D01*
X5396Y7945D01*
X5397Y7944D01*
Y7944D01*
X5403Y7928D01*
X5409Y7914D01*
X5415Y7902D01*
X5420Y7891D01*
X5423Y7887D01*
X5425Y7882D01*
X5428Y7879D01*
X5429Y7875D01*
X5430Y7873D01*
X5431Y7872D01*
X5433Y7870D01*
Y7870D01*
X5436Y7864D01*
X5438Y7860D01*
X5439Y7857D01*
Y7855D01*
Y7854D01*
X5438Y7853D01*
X5436D01*
X5435Y7854D01*
X5430Y7856D01*
X5426Y7858D01*
X5423Y7860D01*
X5423Y7862D01*
X5422D01*
X5417Y7867D01*
X5411Y7872D01*
X5400Y7883D01*
X5390Y7896D01*
X5381Y7909D01*
X5374Y7920D01*
X5370Y7925D01*
X5368Y7930D01*
X5366Y7934D01*
X5364Y7936D01*
X5364Y7938D01*
X5363Y7939D01*
X5352Y7938D01*
X5339Y7939D01*
X5327Y7939D01*
X5314Y7940D01*
X5303Y7941D01*
X5299Y7941D01*
X5294Y7942D01*
X5291Y7943D01*
X5289Y7943D01*
X5287D01*
X5278Y7945D01*
X5271Y7946D01*
X5264Y7948D01*
X5259Y7950D01*
X5256Y7951D01*
X5253Y7953D01*
X5251Y7955D01*
X5249Y7957D01*
X5248Y7959D01*
X5247Y7960D01*
X5247Y7963D01*
X5247Y7965D01*
X5248Y7965D01*
X5250Y7968D01*
X5253Y7970D01*
X5260Y7973D01*
X5268Y7974D01*
X5276D01*
X5283Y7973D01*
X5290Y7972D01*
X5293Y7971D01*
X5294Y7971D01*
X5296Y7970D01*
X5296D01*
X5309Y7967D01*
X5321Y7964D01*
X5331Y7961D01*
X5339Y7960D01*
X5345Y7959D01*
X5350Y7958D01*
X5353Y7958D01*
X5354D01*
X5349Y7966D01*
X5345Y7974D01*
X5342Y7980D01*
X5339Y7985D01*
X5338Y7988D01*
X5337Y7991D01*
X5335Y7992D01*
Y7993D01*
X5334Y7996D01*
Y7999D01*
X5335Y8001D01*
X5337Y8004D01*
X5341Y8006D01*
X5342Y8008D01*
X5343D01*
X5352Y8012D01*
X5360Y8015D01*
X5364Y8016D01*
X5367Y8018D01*
X5369Y8018D01*
X5369D01*
X5374Y8019D01*
X5378Y8020D01*
X5380D01*
X5383Y8019D01*
D02*
G37*
G36*
X4295Y8046D02*
X4299Y8045D01*
X4302Y8043D01*
X4303Y8039D01*
X4303Y8036D01*
Y8035D01*
Y8034D01*
Y8030D01*
Y8025D01*
X4305Y8015D01*
X4309Y8005D01*
X4313Y7995D01*
X4318Y7986D01*
X4320Y7982D01*
X4321Y7978D01*
X4323Y7975D01*
X4324Y7973D01*
X4325Y7972D01*
X4325Y7971D01*
X4335Y7956D01*
X4345Y7941D01*
X4355Y7928D01*
X4364Y7917D01*
X4369Y7912D01*
X4373Y7907D01*
X4376Y7903D01*
X4379Y7899D01*
X4381Y7897D01*
X4383Y7895D01*
X4384Y7894D01*
X4385Y7893D01*
X4390Y7887D01*
X4395Y7882D01*
X4398Y7878D01*
X4400Y7875D01*
X4400Y7873D01*
Y7872D01*
X4400Y7871D01*
X4399D01*
X4395Y7872D01*
X4391Y7873D01*
X4387Y7875D01*
X4386Y7875D01*
X4386D01*
X4379Y7879D01*
X4373Y7884D01*
X4360Y7894D01*
X4348Y7905D01*
X4336Y7917D01*
X4326Y7927D01*
X4323Y7932D01*
X4319Y7936D01*
X4316Y7939D01*
X4314Y7941D01*
X4313Y7943D01*
X4312Y7944D01*
X4310Y7942D01*
X4308Y7940D01*
X4305Y7939D01*
X4301Y7938D01*
X4298Y7938D01*
X4294Y7937D01*
X4292Y7936D01*
X4292D01*
X4284Y7936D01*
X4276D01*
X4268Y7936D01*
X4260Y7937D01*
X4253Y7938D01*
X4247Y7938D01*
X4245D01*
X4243Y7939D01*
X4242D01*
X4239Y7936D01*
X4237Y7934D01*
X4234Y7930D01*
X4233Y7927D01*
X4232Y7924D01*
X4231Y7922D01*
X4230Y7919D01*
Y7919D01*
X4229Y7912D01*
X4228Y7905D01*
X4228Y7897D01*
X4227Y7888D01*
X4226Y7880D01*
Y7874D01*
X4225Y7872D01*
Y7870D01*
Y7869D01*
Y7869D01*
X4240Y7865D01*
X4253Y7862D01*
X4264Y7860D01*
X4273Y7858D01*
X4281Y7855D01*
X4287Y7854D01*
X4289Y7854D01*
X4290D01*
X4291Y7853D01*
X4292D01*
X4300Y7852D01*
X4308Y7851D01*
X4315D01*
X4321Y7852D01*
X4325Y7853D01*
X4328Y7853D01*
X4330Y7854D01*
X4331D01*
X4336Y7857D01*
X4342Y7859D01*
X4348Y7860D01*
X4354Y7862D01*
X4359Y7863D01*
X4363Y7863D01*
X4365Y7864D01*
X4366D01*
X4369Y7864D01*
X4372Y7864D01*
X4374D01*
X4375Y7863D01*
X4376Y7862D01*
X4377Y7861D01*
X4376Y7858D01*
X4375Y7856D01*
X4373Y7853D01*
X4371Y7852D01*
X4371Y7851D01*
X4365Y7845D01*
X4360Y7839D01*
X4356Y7832D01*
X4354Y7826D01*
X4351Y7821D01*
X4350Y7816D01*
X4349Y7813D01*
Y7813D01*
Y7812D01*
X4346Y7803D01*
X4345Y7793D01*
X4343Y7783D01*
X4342Y7773D01*
X4341Y7764D01*
X4341Y7761D01*
Y7758D01*
X4340Y7755D01*
Y7753D01*
Y7752D01*
Y7752D01*
X4344Y7751D01*
X4349Y7751D01*
X4359Y7749D01*
X4370Y7747D01*
X4382Y7746D01*
X4393Y7744D01*
X4398Y7743D01*
X4401Y7742D01*
X4405Y7742D01*
X4408D01*
X4409Y7741D01*
X4410D01*
X4428Y7738D01*
X4435Y7737D01*
X4443Y7736D01*
X4450Y7735D01*
X4456Y7734D01*
X4462Y7734D01*
X4467Y7733D01*
X4472Y7733D01*
X4476Y7732D01*
X4482D01*
X4484Y7732D01*
X4487D01*
X4491Y7731D01*
X4495Y7731D01*
X4499Y7730D01*
X4501Y7729D01*
X4502Y7728D01*
X4504Y7727D01*
X4505Y7725D01*
X4506Y7723D01*
X4505Y7721D01*
X4505Y7720D01*
X4504Y7719D01*
X4500Y7715D01*
X4496Y7711D01*
X4492Y7708D01*
X4489Y7706D01*
X4485Y7705D01*
X4482Y7703D01*
X4480Y7702D01*
X4480D01*
X4473Y7701D01*
X4466D01*
X4458Y7702D01*
X4450Y7703D01*
X4444Y7705D01*
X4438Y7706D01*
X4436Y7707D01*
X4434D01*
X4434Y7707D01*
X4433D01*
X4420Y7711D01*
X4408Y7714D01*
X4394Y7717D01*
X4381Y7720D01*
X4376Y7721D01*
X4370Y7722D01*
X4366Y7722D01*
X4361Y7723D01*
X4358Y7724D01*
X4356D01*
X4354Y7724D01*
X4354D01*
X4344Y7726D01*
X4334Y7728D01*
X4313Y7731D01*
X4291Y7734D01*
X4280Y7736D01*
X4270Y7738D01*
X4260Y7739D01*
X4252Y7741D01*
X4244Y7742D01*
X4237Y7743D01*
X4231Y7743D01*
X4227Y7744D01*
X4224Y7744D01*
X4223D01*
X4224Y7720D01*
Y7697D01*
X4224Y7676D01*
Y7657D01*
Y7640D01*
Y7625D01*
Y7611D01*
Y7599D01*
Y7587D01*
Y7579D01*
Y7571D01*
Y7565D01*
Y7560D01*
Y7557D01*
Y7555D01*
Y7554D01*
X4224Y7545D01*
Y7536D01*
X4223Y7529D01*
X4223Y7523D01*
X4222Y7518D01*
X4222Y7514D01*
X4220Y7511D01*
X4220Y7509D01*
X4219Y7507D01*
X4219Y7505D01*
X4218Y7504D01*
X4217D01*
X4215Y7506D01*
X4214Y7508D01*
X4212Y7511D01*
X4211Y7515D01*
X4209Y7520D01*
X4208Y7525D01*
X4205Y7536D01*
X4203Y7547D01*
X4202Y7551D01*
X4202Y7556D01*
X4201Y7560D01*
X4200Y7562D01*
X4200Y7564D01*
Y7565D01*
X4198Y7576D01*
X4197Y7589D01*
X4196Y7602D01*
X4194Y7617D01*
X4192Y7648D01*
X4191Y7663D01*
X4191Y7678D01*
X4190Y7692D01*
X4189Y7706D01*
X4189Y7718D01*
Y7728D01*
X4188Y7737D01*
Y7741D01*
Y7744D01*
Y7746D01*
Y7748D01*
Y7749D01*
Y7749D01*
X4173Y7750D01*
X4159Y7751D01*
X4147Y7752D01*
X4135Y7752D01*
X4124D01*
X4114Y7753D01*
X4106Y7753D01*
X4091D01*
X4085Y7754D01*
X4043D01*
X4033Y7753D01*
X4017D01*
X4012Y7753D01*
X3993D01*
X3988Y7754D01*
X3985Y7754D01*
X3982Y7756D01*
X3980Y7757D01*
X3979Y7757D01*
X3977Y7760D01*
X3978Y7763D01*
X3979Y7766D01*
X3981Y7768D01*
X3984Y7771D01*
X3986Y7773D01*
X3987Y7774D01*
X3988Y7775D01*
X3993Y7779D01*
X4000Y7782D01*
X4005Y7785D01*
X4010Y7787D01*
X4014Y7788D01*
X4018Y7789D01*
X4020Y7790D01*
X4021D01*
X4025Y7791D01*
X4029Y7791D01*
X4040D01*
X4051Y7791D01*
X4063Y7789D01*
X4075Y7788D01*
X4079Y7787D01*
X4083Y7787D01*
X4087Y7786D01*
X4090D01*
X4092Y7786D01*
X4092D01*
X4112Y7783D01*
X4130Y7780D01*
X4146Y7778D01*
X4154Y7777D01*
X4161Y7776D01*
X4167Y7776D01*
X4172Y7774D01*
X4177Y7774D01*
X4181D01*
X4184Y7773D01*
X4187Y7773D01*
X4188D01*
Y7850D01*
X4176Y7851D01*
X4163Y7853D01*
X4153Y7854D01*
X4143Y7855D01*
X4135Y7856D01*
X4127Y7857D01*
X4121Y7858D01*
X4115Y7859D01*
X4111Y7860D01*
X4107Y7860D01*
X4103Y7861D01*
X4101Y7862D01*
X4099Y7862D01*
X4098Y7863D01*
X4097D01*
X4093Y7864D01*
X4091Y7865D01*
X4090Y7867D01*
X4088Y7868D01*
X4087Y7871D01*
X4087Y7874D01*
X4089Y7877D01*
X4090Y7879D01*
X4092Y7880D01*
X4092Y7880D01*
X4098Y7884D01*
X4104Y7887D01*
X4111Y7888D01*
X4117Y7888D01*
X4123D01*
X4128Y7888D01*
X4131Y7887D01*
X4132D01*
X4152Y7883D01*
X4161Y7882D01*
X4170Y7880D01*
X4177Y7878D01*
X4183Y7877D01*
X4186Y7876D01*
X4187D01*
X4188Y7875D01*
X4188D01*
X4189Y7885D01*
Y7893D01*
X4188Y7900D01*
X4188Y7905D01*
X4187Y7909D01*
X4187Y7912D01*
X4186Y7913D01*
Y7913D01*
X4186Y7915D01*
X4186Y7917D01*
X4187Y7920D01*
X4188Y7922D01*
X4193Y7928D01*
X4198Y7933D01*
X4204Y7938D01*
X4209Y7942D01*
X4211Y7944D01*
X4212Y7945D01*
X4213Y7946D01*
X4214D01*
X4198Y7949D01*
X4183Y7951D01*
X4169Y7954D01*
X4158Y7956D01*
X4147Y7959D01*
X4138Y7961D01*
X4130Y7963D01*
X4123Y7964D01*
X4117Y7966D01*
X4112Y7967D01*
X4108Y7968D01*
X4106Y7969D01*
X4103Y7969D01*
X4102Y7970D01*
X4101Y7970D01*
X4097Y7972D01*
X4094Y7974D01*
X4092Y7975D01*
X4091Y7977D01*
X4091Y7979D01*
X4091Y7980D01*
X4093Y7983D01*
X4096Y7985D01*
X4098Y7988D01*
X4101Y7989D01*
X4101Y7989D01*
X4102D01*
X4110Y7993D01*
X4118Y7994D01*
X4124Y7995D01*
X4135D01*
X4139Y7994D01*
X4141Y7994D01*
X4142D01*
X4148Y7991D01*
X4157Y7989D01*
X4166Y7986D01*
X4174Y7984D01*
X4183Y7982D01*
X4189Y7980D01*
X4192Y7980D01*
X4194Y7979D01*
X4195Y7979D01*
X4196D01*
X4203Y7977D01*
X4211Y7975D01*
X4228Y7971D01*
X4245Y7967D01*
X4262Y7964D01*
X4270Y7962D01*
X4277Y7960D01*
X4284Y7959D01*
X4289Y7958D01*
X4294Y7956D01*
X4298Y7956D01*
X4300Y7955D01*
X4300D01*
X4295Y7963D01*
X4290Y7970D01*
X4285Y7976D01*
X4281Y7981D01*
X4277Y7986D01*
X4274Y7991D01*
X4268Y7998D01*
X4264Y8003D01*
X4260Y8007D01*
X4259Y8009D01*
X4258Y8009D01*
X4255Y8013D01*
X4253Y8017D01*
X4252Y8020D01*
Y8022D01*
X4253Y8025D01*
X4253Y8026D01*
X4254D01*
X4257Y8029D01*
X4261Y8031D01*
X4266Y8034D01*
X4271Y8037D01*
X4275Y8039D01*
X4279Y8041D01*
X4282Y8043D01*
X4283Y8043D01*
X4287Y8045D01*
X4290Y8046D01*
X4293Y8046D01*
X4295Y8046D01*
D02*
G37*
G36*
X7168Y8036D02*
X7171Y8034D01*
X7172Y8031D01*
X7173Y8029D01*
X7172Y8026D01*
X7171Y8024D01*
Y8023D01*
X7170Y8019D01*
X7170Y8014D01*
X7169Y8009D01*
Y8003D01*
X7170Y7990D01*
X7171Y7978D01*
X7173Y7965D01*
X7173Y7960D01*
X7174Y7955D01*
X7175Y7951D01*
X7175Y7949D01*
X7176Y7946D01*
Y7946D01*
X7197Y7943D01*
X7218Y7939D01*
X7227Y7938D01*
X7236Y7936D01*
X7244Y7935D01*
X7251Y7934D01*
X7258Y7933D01*
X7264Y7932D01*
X7269Y7932D01*
X7274Y7930D01*
X7277Y7930D01*
X7279D01*
X7281Y7929D01*
X7281D01*
X7281Y7936D01*
X7280Y7943D01*
X7280Y7949D01*
X7279Y7954D01*
X7279Y7959D01*
X7278Y7963D01*
X7277Y7970D01*
X7276Y7974D01*
X7276Y7978D01*
X7275Y7979D01*
Y7980D01*
X7275Y7984D01*
X7276Y7987D01*
X7278Y7990D01*
X7281Y7992D01*
X7284Y7994D01*
X7286Y7995D01*
X7288Y7996D01*
X7289D01*
X7295Y7998D01*
X7301Y8000D01*
X7308Y8001D01*
X7314Y8003D01*
X7319Y8003D01*
X7323Y8004D01*
X7326Y8004D01*
X7327D01*
X7331Y8005D01*
X7333Y8004D01*
X7336Y8004D01*
X7337Y8003D01*
X7338Y8001D01*
X7338Y8000D01*
X7338Y7996D01*
X7337Y7993D01*
X7335Y7990D01*
X7333Y7988D01*
X7333Y7987D01*
X7327Y7979D01*
X7322Y7969D01*
X7319Y7959D01*
X7316Y7949D01*
X7314Y7939D01*
X7313Y7935D01*
X7312Y7932D01*
X7312Y7929D01*
X7311Y7927D01*
Y7925D01*
Y7925D01*
X7327Y7923D01*
X7342Y7922D01*
X7356Y7920D01*
X7367Y7920D01*
X7378Y7919D01*
X7388Y7918D01*
X7397Y7918D01*
X7404Y7917D01*
X7411D01*
X7416Y7917D01*
X7435D01*
X7438Y7916D01*
X7441Y7915D01*
X7443Y7915D01*
X7443Y7913D01*
X7444Y7912D01*
X7443Y7910D01*
X7442Y7909D01*
X7440Y7906D01*
X7437Y7904D01*
X7434Y7902D01*
X7433Y7901D01*
X7424Y7896D01*
X7415Y7893D01*
X7407Y7890D01*
X7401Y7889D01*
X7396Y7889D01*
X7391D01*
X7389Y7889D01*
X7388D01*
X7383Y7890D01*
X7378Y7892D01*
X7373Y7892D01*
X7367Y7893D01*
X7353Y7895D01*
X7340Y7897D01*
X7327Y7899D01*
X7322Y7900D01*
X7317Y7900D01*
X7312Y7901D01*
X7310D01*
X7307Y7902D01*
X7307D01*
X7306Y7890D01*
X7305Y7880D01*
X7303Y7873D01*
X7301Y7866D01*
X7300Y7862D01*
X7299Y7858D01*
X7298Y7856D01*
Y7855D01*
X7297Y7853D01*
X7295Y7852D01*
X7293Y7850D01*
X7291D01*
X7290Y7850D01*
X7288Y7852D01*
X7287Y7854D01*
X7286Y7855D01*
Y7855D01*
X7285Y7858D01*
X7285Y7862D01*
X7284Y7869D01*
X7282Y7877D01*
X7282Y7886D01*
X7281Y7894D01*
Y7900D01*
Y7903D01*
Y7904D01*
Y7905D01*
Y7906D01*
X7261Y7909D01*
X7243Y7911D01*
X7226Y7913D01*
X7218Y7914D01*
X7211Y7914D01*
X7204Y7915D01*
X7198Y7916D01*
X7193Y7917D01*
X7189Y7917D01*
X7185D01*
X7183Y7918D01*
X7180D01*
X7184Y7906D01*
X7186Y7896D01*
X7189Y7887D01*
X7190Y7880D01*
X7192Y7874D01*
X7193Y7870D01*
X7194Y7868D01*
Y7867D01*
X7194Y7864D01*
Y7862D01*
X7194Y7859D01*
X7193Y7857D01*
X7191Y7857D01*
X7190Y7857D01*
X7188Y7858D01*
X7187Y7859D01*
X7186Y7859D01*
X7184Y7862D01*
X7182Y7865D01*
X7179Y7868D01*
X7176Y7873D01*
X7170Y7883D01*
X7164Y7893D01*
X7159Y7904D01*
X7156Y7908D01*
X7154Y7912D01*
X7152Y7915D01*
X7151Y7918D01*
X7150Y7920D01*
X7150Y7920D01*
X7137Y7921D01*
X7125Y7922D01*
X7114Y7923D01*
X7103Y7923D01*
X7093D01*
X7084Y7924D01*
X7075Y7924D01*
X7060D01*
X7055Y7925D01*
X7030D01*
X7025Y7926D01*
X7020Y7927D01*
X7017Y7928D01*
X7014Y7930D01*
X7013Y7932D01*
X7012Y7933D01*
X7012Y7935D01*
X7013Y7939D01*
X7015Y7943D01*
X7017Y7945D01*
X7018Y7946D01*
X7022Y7950D01*
X7026Y7953D01*
X7034Y7958D01*
X7041Y7960D01*
X7047Y7962D01*
X7052Y7963D01*
X7057D01*
X7059Y7962D01*
X7060D01*
X7064Y7961D01*
X7069Y7960D01*
X7075Y7959D01*
X7081Y7958D01*
X7094Y7956D01*
X7108Y7955D01*
X7120Y7953D01*
X7126Y7952D01*
X7131Y7951D01*
X7135Y7951D01*
X7138D01*
X7140Y7950D01*
X7141D01*
X7138Y7958D01*
X7135Y7965D01*
X7133Y7971D01*
X7130Y7976D01*
X7128Y7981D01*
X7126Y7985D01*
X7124Y7989D01*
X7122Y7991D01*
X7119Y7996D01*
X7118Y7999D01*
X7116Y8000D01*
X7116Y8001D01*
X7114Y8004D01*
X7113Y8007D01*
X7114Y8010D01*
X7116Y8013D01*
X7118Y8015D01*
X7120Y8017D01*
X7121Y8018D01*
X7122Y8019D01*
X7128Y8022D01*
X7133Y8025D01*
X7139Y8028D01*
X7145Y8030D01*
X7150Y8032D01*
X7154Y8034D01*
X7156Y8034D01*
X7157Y8035D01*
X7161Y8036D01*
X7164Y8036D01*
X7168Y8036D01*
D02*
G37*
G36*
X5562Y8013D02*
X5564Y8011D01*
X5565Y8009D01*
X5565Y8007D01*
X5565Y8005D01*
X5564Y8004D01*
Y8003D01*
X5562Y7998D01*
X5561Y7993D01*
X5561Y7987D01*
X5560Y7982D01*
X5561Y7978D01*
Y7974D01*
X5561Y7971D01*
Y7970D01*
X5563Y7962D01*
X5566Y7952D01*
X5570Y7942D01*
X5574Y7932D01*
X5578Y7923D01*
X5580Y7919D01*
X5581Y7915D01*
X5583Y7912D01*
X5584Y7910D01*
X5585Y7909D01*
Y7908D01*
X5592Y7893D01*
X5600Y7880D01*
X5606Y7868D01*
X5612Y7859D01*
X5618Y7851D01*
X5622Y7845D01*
X5624Y7843D01*
X5625Y7842D01*
X5626Y7841D01*
Y7840D01*
X5629Y7836D01*
X5631Y7833D01*
X5632Y7831D01*
Y7829D01*
X5631Y7829D01*
X5630D01*
X5625Y7831D01*
X5620Y7833D01*
X5614Y7836D01*
X5612Y7837D01*
X5610Y7838D01*
X5609Y7839D01*
X5609D01*
X5601Y7844D01*
X5594Y7850D01*
X5581Y7863D01*
X5570Y7877D01*
X5559Y7890D01*
X5555Y7897D01*
X5551Y7903D01*
X5547Y7908D01*
X5545Y7913D01*
X5543Y7917D01*
X5540Y7920D01*
X5540Y7922D01*
X5539Y7923D01*
X5528Y7920D01*
X5515Y7919D01*
X5503D01*
X5491Y7919D01*
X5481Y7920D01*
X5477Y7921D01*
X5474Y7922D01*
X5470Y7922D01*
X5468D01*
X5467Y7923D01*
X5466D01*
X5459Y7924D01*
X5453Y7927D01*
X5448Y7928D01*
X5444Y7930D01*
X5441Y7933D01*
X5439Y7934D01*
X5438Y7936D01*
X5436Y7938D01*
Y7942D01*
X5437Y7945D01*
X5438Y7946D01*
X5439Y7947D01*
X5444Y7951D01*
X5450Y7955D01*
X5456Y7956D01*
X5461Y7956D01*
X5466D01*
X5470Y7956D01*
X5473Y7955D01*
X5474Y7955D01*
X5482Y7953D01*
X5491Y7950D01*
X5501Y7948D01*
X5510Y7946D01*
X5518Y7944D01*
X5524Y7943D01*
X5526Y7942D01*
X5528D01*
X5529Y7941D01*
X5530D01*
X5527Y7949D01*
X5524Y7956D01*
X5521Y7962D01*
X5518Y7968D01*
X5516Y7973D01*
X5514Y7976D01*
X5513Y7978D01*
X5512Y7979D01*
X5510Y7981D01*
X5509Y7984D01*
X5509Y7989D01*
X5510Y7994D01*
X5511Y7996D01*
X5514Y7999D01*
X5516Y8001D01*
X5519Y8001D01*
X5519Y8002D01*
X5532Y8006D01*
X5538Y8009D01*
X5543Y8010D01*
X5547Y8011D01*
X5551Y8012D01*
X5553Y8013D01*
X5554D01*
X5559Y8013D01*
X5562Y8013D01*
D02*
G37*
G36*
X3665Y8039D02*
X3667Y8038D01*
X3668Y8035D01*
Y8033D01*
X3667Y8031D01*
X3666Y8029D01*
X3665Y8027D01*
X3665Y8026D01*
X3662Y8021D01*
X3660Y8015D01*
X3658Y8009D01*
X3657Y8004D01*
X3656Y7999D01*
X3655Y7994D01*
X3654Y7991D01*
Y7990D01*
X3654Y7981D01*
X3653Y7970D01*
X3653Y7959D01*
X3652Y7948D01*
Y7938D01*
Y7934D01*
Y7930D01*
Y7927D01*
Y7925D01*
Y7923D01*
Y7923D01*
X3664Y7920D01*
X3675Y7918D01*
X3686Y7915D01*
X3695Y7913D01*
X3703Y7912D01*
X3708Y7910D01*
X3710Y7910D01*
X3712D01*
X3713Y7909D01*
X3713D01*
X3718Y7908D01*
X3722Y7907D01*
X3725Y7906D01*
X3727Y7905D01*
X3729Y7904D01*
X3730Y7903D01*
X3731Y7901D01*
Y7899D01*
X3730Y7898D01*
X3729Y7897D01*
X3728Y7897D01*
X3723Y7894D01*
X3718Y7893D01*
X3713Y7892D01*
X3708Y7891D01*
X3704Y7890D01*
X3702Y7890D01*
X3692D01*
X3683Y7890D01*
X3675D01*
X3668Y7891D01*
X3662Y7892D01*
X3657D01*
X3653Y7892D01*
X3652D01*
Y7838D01*
X3676Y7833D01*
X3698Y7829D01*
X3708Y7827D01*
X3718Y7824D01*
X3727Y7823D01*
X3735Y7821D01*
X3743Y7819D01*
X3749Y7818D01*
X3755Y7817D01*
X3760Y7816D01*
X3764Y7815D01*
X3767Y7814D01*
X3769Y7814D01*
X3769D01*
X3779Y7812D01*
X3787Y7811D01*
X3795Y7809D01*
X3803Y7808D01*
X3810Y7807D01*
X3816Y7806D01*
X3822Y7804D01*
X3827Y7804D01*
X3831Y7803D01*
X3835Y7803D01*
X3839Y7802D01*
X3841D01*
X3844Y7802D01*
X3846D01*
X3851Y7801D01*
X3854Y7801D01*
X3856Y7800D01*
X3858Y7799D01*
X3858Y7798D01*
Y7797D01*
X3857Y7794D01*
X3855Y7791D01*
X3852Y7789D01*
X3850Y7787D01*
X3849Y7787D01*
X3840Y7782D01*
X3833Y7779D01*
X3826Y7778D01*
X3821Y7777D01*
X3813D01*
X3811Y7777D01*
X3810D01*
X3804Y7779D01*
X3796Y7781D01*
X3788Y7783D01*
X3780Y7786D01*
X3773Y7787D01*
X3766Y7789D01*
X3764Y7789D01*
X3763D01*
X3762Y7790D01*
X3761D01*
X3754Y7792D01*
X3747Y7793D01*
X3732Y7796D01*
X3717Y7799D01*
X3702Y7802D01*
X3695Y7803D01*
X3689Y7804D01*
X3683Y7806D01*
X3678Y7806D01*
X3674Y7807D01*
X3671Y7807D01*
X3669Y7808D01*
X3668D01*
X3666Y7807D01*
X3664Y7805D01*
X3662Y7803D01*
X3660Y7799D01*
X3658Y7792D01*
X3656Y7784D01*
X3655Y7776D01*
X3654Y7768D01*
Y7765D01*
Y7763D01*
Y7762D01*
Y7761D01*
Y7662D01*
X3668Y7671D01*
X3680Y7678D01*
X3690Y7684D01*
X3698Y7689D01*
X3704Y7693D01*
X3708Y7696D01*
X3710Y7697D01*
X3711Y7698D01*
X3723Y7706D01*
X3728Y7709D01*
X3732Y7712D01*
X3736Y7714D01*
X3739Y7716D01*
X3740Y7716D01*
X3741Y7717D01*
X3737Y7723D01*
X3733Y7729D01*
X3729Y7734D01*
X3727Y7738D01*
X3724Y7741D01*
X3723Y7744D01*
X3722Y7745D01*
X3721Y7746D01*
X3720Y7748D01*
X3719Y7749D01*
Y7752D01*
X3720Y7754D01*
X3722Y7758D01*
X3725Y7762D01*
X3729Y7765D01*
X3733Y7768D01*
X3735Y7769D01*
X3736Y7770D01*
X3737D01*
X3740Y7772D01*
X3744Y7774D01*
X3750Y7776D01*
X3754Y7777D01*
X3757Y7776D01*
X3758Y7774D01*
X3759Y7773D01*
Y7772D01*
Y7771D01*
Y7766D01*
X3759Y7759D01*
X3761Y7752D01*
X3763Y7745D01*
X3764Y7739D01*
X3766Y7734D01*
X3767Y7730D01*
X3768Y7729D01*
Y7729D01*
X3773Y7717D01*
X3779Y7705D01*
X3786Y7692D01*
X3794Y7681D01*
X3800Y7670D01*
X3803Y7666D01*
X3806Y7662D01*
X3808Y7658D01*
X3810Y7656D01*
X3811Y7655D01*
X3811Y7654D01*
X3824Y7637D01*
X3837Y7622D01*
X3850Y7609D01*
X3862Y7597D01*
X3867Y7592D01*
X3872Y7588D01*
X3876Y7584D01*
X3880Y7581D01*
X3883Y7578D01*
X3886Y7576D01*
X3887Y7575D01*
X3887Y7575D01*
X3895Y7569D01*
X3900Y7565D01*
X3904Y7561D01*
X3907Y7558D01*
X3908Y7556D01*
X3909Y7555D01*
X3908Y7554D01*
X3907D01*
X3903Y7555D01*
X3899Y7556D01*
X3895Y7558D01*
X3894Y7559D01*
X3894D01*
X3880Y7566D01*
X3866Y7574D01*
X3854Y7582D01*
X3843Y7590D01*
X3833Y7597D01*
X3829Y7600D01*
X3826Y7603D01*
X3823Y7605D01*
X3821Y7607D01*
X3820Y7608D01*
X3820Y7609D01*
X3813Y7615D01*
X3806Y7622D01*
X3793Y7637D01*
X3781Y7653D01*
X3770Y7669D01*
X3765Y7676D01*
X3761Y7683D01*
X3758Y7689D01*
X3754Y7694D01*
X3752Y7698D01*
X3750Y7702D01*
X3749Y7704D01*
X3748Y7705D01*
X3725Y7686D01*
X3704Y7669D01*
X3694Y7661D01*
X3684Y7654D01*
X3675Y7647D01*
X3668Y7641D01*
X3660Y7635D01*
X3654Y7630D01*
X3648Y7626D01*
X3643Y7622D01*
X3639Y7620D01*
X3637Y7617D01*
X3635Y7616D01*
X3634Y7616D01*
X3625Y7609D01*
X3617Y7602D01*
X3608Y7597D01*
X3601Y7591D01*
X3594Y7586D01*
X3588Y7582D01*
X3582Y7578D01*
X3577Y7574D01*
X3572Y7571D01*
X3568Y7568D01*
X3565Y7566D01*
X3562Y7564D01*
X3560Y7562D01*
X3558Y7561D01*
X3558Y7560D01*
X3557D01*
X3547Y7554D01*
X3538Y7549D01*
X3530Y7544D01*
X3522Y7541D01*
X3516Y7539D01*
X3511Y7537D01*
X3508Y7536D01*
X3507Y7536D01*
X3497Y7534D01*
X3487Y7533D01*
X3476D01*
X3466Y7534D01*
X3457Y7534D01*
X3453Y7535D01*
X3450D01*
X3447Y7535D01*
X3445Y7536D01*
X3443D01*
X3429Y7538D01*
X3416Y7540D01*
X3405Y7542D01*
X3396Y7544D01*
X3388Y7546D01*
X3382Y7547D01*
X3381Y7548D01*
X3379D01*
X3379Y7549D01*
X3378D01*
X3374Y7550D01*
X3371Y7551D01*
X3369Y7552D01*
X3367Y7553D01*
X3367Y7554D01*
Y7555D01*
X3369Y7556D01*
X3371Y7557D01*
X3374Y7559D01*
X3377Y7559D01*
X3378D01*
X3383Y7560D01*
X3389Y7561D01*
X3401Y7563D01*
X3414Y7566D01*
X3427Y7568D01*
X3438Y7571D01*
X3443Y7572D01*
X3447Y7573D01*
X3451Y7574D01*
X3454Y7574D01*
X3456Y7575D01*
X3456D01*
X3476Y7580D01*
X3494Y7586D01*
X3511Y7591D01*
X3518Y7594D01*
X3526Y7597D01*
X3532Y7600D01*
X3538Y7602D01*
X3543Y7604D01*
X3547Y7606D01*
X3551Y7607D01*
X3553Y7609D01*
X3554Y7610D01*
X3555D01*
X3571Y7618D01*
X3586Y7625D01*
X3598Y7632D01*
X3609Y7637D01*
X3613Y7640D01*
X3617Y7642D01*
X3621Y7644D01*
X3623Y7646D01*
X3626Y7647D01*
X3627Y7648D01*
X3628Y7648D01*
X3628D01*
Y7662D01*
X3628Y7675D01*
Y7688D01*
X3627Y7700D01*
X3627Y7711D01*
Y7714D01*
Y7718D01*
X3626Y7722D01*
Y7724D01*
Y7725D01*
Y7726D01*
X3607Y7727D01*
X3589Y7728D01*
X3582Y7729D01*
X3574Y7730D01*
X3568Y7731D01*
X3562Y7732D01*
X3557Y7733D01*
X3552Y7733D01*
X3548Y7734D01*
X3544Y7735D01*
X3542Y7736D01*
X3540D01*
X3539Y7736D01*
X3538D01*
X3533Y7738D01*
X3528Y7739D01*
X3524Y7741D01*
X3521Y7743D01*
X3520Y7744D01*
X3518Y7747D01*
X3517Y7748D01*
Y7750D01*
X3518Y7753D01*
X3519Y7755D01*
X3521Y7757D01*
X3521Y7757D01*
X3525Y7759D01*
X3528Y7761D01*
X3536Y7763D01*
X3544Y7764D01*
X3552D01*
X3559Y7763D01*
X3564Y7762D01*
X3567Y7761D01*
X3568Y7761D01*
X3569Y7760D01*
X3570D01*
X3582Y7756D01*
X3593Y7753D01*
X3602Y7751D01*
X3611Y7748D01*
X3617Y7747D01*
X3622Y7746D01*
X3625Y7744D01*
X3626D01*
X3626Y7751D01*
X3625Y7757D01*
X3624Y7766D01*
X3623Y7774D01*
X3622Y7780D01*
X3622Y7784D01*
X3621Y7787D01*
X3621Y7788D01*
Y7789D01*
X3620Y7791D01*
Y7793D01*
X3622Y7797D01*
X3625Y7802D01*
X3629Y7807D01*
X3633Y7811D01*
X3637Y7814D01*
X3639Y7817D01*
X3640Y7817D01*
X3618Y7821D01*
X3598Y7824D01*
X3579Y7827D01*
X3571Y7828D01*
X3563Y7829D01*
X3555Y7830D01*
X3549Y7831D01*
X3543Y7832D01*
X3538Y7832D01*
X3534Y7833D01*
X3531D01*
X3530Y7833D01*
X3529D01*
X3520Y7834D01*
X3511Y7835D01*
X3503Y7837D01*
X3496Y7838D01*
X3489Y7838D01*
X3483Y7839D01*
X3478Y7840D01*
X3473D01*
X3470Y7840D01*
X3466Y7841D01*
X3464D01*
X3462Y7842D01*
X3458D01*
X3455Y7842D01*
X3452Y7843D01*
X3450Y7843D01*
X3448Y7844D01*
X3447Y7846D01*
Y7848D01*
X3447Y7850D01*
X3448Y7852D01*
X3449Y7853D01*
X3450Y7853D01*
X3454Y7857D01*
X3458Y7860D01*
X3463Y7862D01*
X3467Y7864D01*
X3471Y7865D01*
X3474Y7867D01*
X3476Y7867D01*
X3477D01*
X3483Y7868D01*
X3492Y7868D01*
X3500Y7867D01*
X3509Y7866D01*
X3517Y7864D01*
X3523Y7863D01*
X3526Y7863D01*
X3527Y7862D01*
X3528Y7862D01*
X3529D01*
X3536Y7860D01*
X3543Y7858D01*
X3559Y7854D01*
X3576Y7851D01*
X3591Y7848D01*
X3598Y7846D01*
X3605Y7845D01*
X3611Y7843D01*
X3616Y7843D01*
X3620Y7842D01*
X3623Y7841D01*
X3626Y7840D01*
X3626D01*
Y7850D01*
X3626Y7859D01*
Y7869D01*
X3625Y7879D01*
X3624Y7887D01*
Y7893D01*
X3624Y7896D01*
Y7898D01*
Y7899D01*
Y7899D01*
X3611Y7903D01*
X3599Y7905D01*
X3589Y7909D01*
X3580Y7911D01*
X3571Y7913D01*
X3564Y7915D01*
X3557Y7917D01*
X3552Y7919D01*
X3547Y7920D01*
X3543Y7922D01*
X3539Y7923D01*
X3537Y7923D01*
X3535Y7924D01*
X3533D01*
X3532Y7925D01*
X3529Y7927D01*
X3526Y7928D01*
X3524Y7929D01*
X3522Y7931D01*
X3521Y7934D01*
X3522Y7936D01*
X3523Y7939D01*
X3525Y7941D01*
X3526Y7942D01*
X3527Y7943D01*
X3533Y7946D01*
X3539Y7948D01*
X3545Y7949D01*
X3556D01*
X3560Y7948D01*
X3563Y7947D01*
X3564D01*
X3573Y7945D01*
X3583Y7942D01*
X3593Y7939D01*
X3602Y7936D01*
X3611Y7934D01*
X3614Y7932D01*
X3618Y7932D01*
X3620Y7930D01*
X3622Y7930D01*
X3623Y7929D01*
X3624D01*
X3623Y7941D01*
X3622Y7951D01*
X3621Y7961D01*
X3620Y7969D01*
X3619Y7977D01*
X3618Y7983D01*
X3617Y7989D01*
X3616Y7994D01*
X3616Y7998D01*
X3615Y8000D01*
X3614Y8003D01*
X3613Y8005D01*
X3613Y8008D01*
X3612Y8008D01*
X3611Y8010D01*
X3611Y8013D01*
X3612Y8017D01*
X3614Y8021D01*
X3617Y8024D01*
X3621Y8026D01*
X3624Y8029D01*
X3626Y8030D01*
X3627Y8030D01*
X3635Y8034D01*
X3642Y8036D01*
X3648Y8038D01*
X3652Y8039D01*
X3656Y8039D01*
X3659Y8040D01*
X3661D01*
X3665Y8039D01*
D02*
G37*
G36*
X6705Y8026D02*
X6706Y8024D01*
Y8022D01*
Y8020D01*
X6705Y8019D01*
Y8019D01*
X6704Y8014D01*
X6702Y8008D01*
X6701Y7994D01*
X6700Y7988D01*
Y7983D01*
Y7980D01*
Y7979D01*
Y7979D01*
Y7968D01*
X6701Y7958D01*
X6701Y7949D01*
Y7940D01*
X6702Y7933D01*
X6702Y7928D01*
X6703Y7925D01*
Y7924D01*
Y7923D01*
Y7923D01*
X6716Y7919D01*
X6729Y7917D01*
X6739Y7914D01*
X6749Y7912D01*
X6756Y7910D01*
X6762Y7909D01*
X6763Y7909D01*
X6765Y7908D01*
X6766D01*
X6767Y7916D01*
X6768Y7923D01*
Y7930D01*
X6768Y7935D01*
X6769Y7940D01*
Y7945D01*
X6770Y7948D01*
Y7951D01*
Y7956D01*
Y7959D01*
Y7960D01*
Y7961D01*
Y7964D01*
X6771Y7966D01*
X6772Y7968D01*
X6774Y7970D01*
X6777Y7972D01*
X6778Y7973D01*
X6779D01*
X6783Y7974D01*
X6788Y7975D01*
X6798Y7976D01*
X6802Y7977D01*
X6805Y7978D01*
X6814D01*
X6816Y7977D01*
X6817Y7976D01*
X6819Y7975D01*
Y7973D01*
X6818Y7971D01*
X6817Y7970D01*
X6817Y7969D01*
X6816Y7968D01*
X6814Y7966D01*
X6812Y7963D01*
X6810Y7958D01*
X6808Y7954D01*
X6804Y7943D01*
X6800Y7932D01*
X6797Y7922D01*
X6795Y7917D01*
X6794Y7912D01*
X6793Y7909D01*
X6792Y7906D01*
X6792Y7904D01*
Y7904D01*
X6804Y7902D01*
X6814Y7899D01*
X6822Y7898D01*
X6829Y7897D01*
X6834Y7895D01*
X6837Y7895D01*
X6840Y7894D01*
X6840D01*
X6842Y7894D01*
X6844Y7893D01*
X6846Y7892D01*
X6846Y7890D01*
X6846Y7889D01*
X6844Y7887D01*
X6843Y7886D01*
X6842Y7885D01*
X6841Y7885D01*
X6837Y7883D01*
X6833Y7881D01*
X6829Y7880D01*
X6826Y7879D01*
X6823Y7879D01*
X6822Y7878D01*
X6815D01*
X6810Y7879D01*
X6804D01*
X6799Y7879D01*
X6794Y7880D01*
X6790D01*
X6788Y7880D01*
X6787D01*
X6783Y7870D01*
X6781Y7860D01*
X6779Y7853D01*
X6777Y7846D01*
X6776Y7841D01*
X6775Y7837D01*
X6775Y7835D01*
Y7834D01*
X6773Y7830D01*
X6771Y7827D01*
X6768Y7825D01*
X6765Y7825D01*
X6763D01*
X6761Y7825D01*
X6760Y7827D01*
X6759D01*
X6757Y7821D01*
X6756Y7814D01*
X6755Y7807D01*
X6755Y7800D01*
X6754Y7794D01*
Y7789D01*
Y7786D01*
Y7785D01*
Y7784D01*
X6765Y7782D01*
X6774Y7781D01*
X6782Y7779D01*
X6789Y7778D01*
X6796Y7777D01*
X6801Y7776D01*
X6805Y7776D01*
X6809Y7775D01*
X6812Y7774D01*
X6815D01*
X6817Y7774D01*
X6820D01*
X6823Y7774D01*
X6826D01*
X6833Y7775D01*
X6841D01*
X6845Y7774D01*
X6846Y7773D01*
X6847Y7771D01*
Y7769D01*
X6846Y7766D01*
X6845Y7764D01*
X6844Y7763D01*
X6843Y7762D01*
X6837Y7752D01*
X6835Y7747D01*
X6832Y7743D01*
X6831Y7739D01*
X6830Y7736D01*
X6828Y7733D01*
Y7733D01*
X6823Y7721D01*
X6821Y7716D01*
X6819Y7711D01*
X6817Y7707D01*
X6815Y7704D01*
X6815Y7702D01*
X6814Y7701D01*
X6812Y7699D01*
X6811Y7697D01*
X6810Y7696D01*
X6808Y7696D01*
X6806D01*
X6805Y7697D01*
X6803Y7700D01*
X6802Y7702D01*
X6801Y7704D01*
Y7705D01*
X6789Y7707D01*
X6778Y7709D01*
X6770Y7711D01*
X6763Y7712D01*
X6758Y7713D01*
X6755Y7713D01*
X6752Y7714D01*
X6752D01*
Y7670D01*
X6770Y7666D01*
X6786Y7663D01*
X6800Y7661D01*
X6807Y7660D01*
X6812Y7659D01*
X6818Y7658D01*
X6822Y7657D01*
X6827Y7657D01*
X6830Y7656D01*
X6833Y7656D01*
X6835Y7655D01*
X6836D01*
X6849Y7654D01*
X6860Y7653D01*
X6871Y7652D01*
X6886D01*
X6892Y7653D01*
X6896D01*
X6900Y7653D01*
X6903Y7653D01*
X6906Y7652D01*
X6907Y7652D01*
X6907Y7651D01*
X6908Y7649D01*
X6906Y7646D01*
X6904Y7643D01*
X6902Y7640D01*
X6899Y7637D01*
X6898Y7637D01*
X6894Y7633D01*
X6890Y7631D01*
X6882Y7627D01*
X6875Y7625D01*
X6869Y7625D01*
X6863D01*
X6860Y7625D01*
X6857Y7626D01*
X6856Y7626D01*
X6852Y7628D01*
X6846Y7630D01*
X6839Y7632D01*
X6831Y7633D01*
X6823Y7636D01*
X6815Y7638D01*
X6796Y7642D01*
X6788Y7643D01*
X6780Y7645D01*
X6772Y7647D01*
X6765Y7648D01*
X6760Y7649D01*
X6756Y7650D01*
X6753Y7651D01*
X6752D01*
X6753Y7638D01*
X6754Y7626D01*
X6755Y7616D01*
X6756Y7607D01*
X6756Y7599D01*
X6757Y7591D01*
X6758Y7585D01*
X6758Y7580D01*
X6760Y7576D01*
X6760Y7572D01*
X6761Y7569D01*
Y7567D01*
X6761Y7565D01*
X6762Y7564D01*
Y7564D01*
X6763Y7557D01*
X6762Y7551D01*
X6761Y7545D01*
X6760Y7539D01*
X6758Y7534D01*
X6756Y7529D01*
X6755Y7526D01*
X6755Y7525D01*
X6752Y7521D01*
X6750Y7519D01*
X6749Y7516D01*
X6747Y7515D01*
X6745Y7515D01*
X6744D01*
X6741Y7516D01*
X6739Y7519D01*
X6738Y7522D01*
X6737Y7524D01*
Y7525D01*
X6735Y7534D01*
X6734Y7542D01*
X6732Y7550D01*
X6731Y7557D01*
Y7563D01*
X6731Y7567D01*
Y7570D01*
Y7571D01*
Y7656D01*
X6723Y7657D01*
X6715Y7659D01*
X6709Y7660D01*
X6702Y7661D01*
X6697Y7662D01*
X6692Y7663D01*
X6683Y7665D01*
X6677Y7666D01*
X6672Y7667D01*
X6670Y7667D01*
X6669D01*
X6666Y7668D01*
X6664Y7668D01*
X6660Y7670D01*
X6659Y7672D01*
X6658Y7674D01*
X6659Y7676D01*
X6660Y7677D01*
X6660Y7678D01*
X6661Y7679D01*
X6665Y7682D01*
X6669Y7683D01*
X6672Y7685D01*
X6680D01*
X6682Y7684D01*
X6685Y7683D01*
X6685D01*
X6691Y7682D01*
X6699Y7680D01*
X6706Y7678D01*
X6714Y7677D01*
X6720Y7676D01*
X6726Y7675D01*
X6728D01*
X6730Y7675D01*
X6731D01*
Y7717D01*
X6725Y7718D01*
X6719Y7719D01*
X6709Y7721D01*
X6701Y7722D01*
X6695Y7723D01*
X6691D01*
X6689Y7723D01*
X6686D01*
X6682Y7724D01*
X6680Y7726D01*
X6679Y7728D01*
X6679Y7731D01*
Y7733D01*
Y7735D01*
X6679Y7737D01*
Y7737D01*
X6673Y7744D01*
X6667Y7751D01*
X6661Y7757D01*
X6656Y7761D01*
X6652Y7764D01*
X6649Y7767D01*
X6646Y7768D01*
X6646Y7769D01*
X6643Y7771D01*
X6640Y7773D01*
X6637Y7776D01*
X6636Y7779D01*
X6635Y7782D01*
X6636Y7784D01*
X6637Y7786D01*
X6638Y7787D01*
X6639Y7788D01*
X6643Y7791D01*
X6647Y7793D01*
X6656Y7798D01*
X6660Y7799D01*
X6663Y7801D01*
X6665Y7802D01*
X6666D01*
X6671Y7803D01*
X6676Y7804D01*
X6680D01*
X6683Y7804D01*
X6685Y7803D01*
X6687Y7803D01*
X6687Y7802D01*
X6688D01*
X6689Y7801D01*
X6691Y7799D01*
X6697Y7797D01*
X6703Y7795D01*
X6710Y7793D01*
X6717Y7792D01*
X6723Y7790D01*
X6725Y7789D01*
X6727D01*
X6728Y7789D01*
X6729D01*
X6728Y7796D01*
X6727Y7802D01*
Y7806D01*
X6727Y7809D01*
X6727Y7812D01*
Y7813D01*
Y7814D01*
X6729Y7817D01*
X6730Y7819D01*
X6734Y7823D01*
X6736Y7825D01*
X6739Y7827D01*
X6740Y7828D01*
X6740Y7829D01*
X6745Y7831D01*
X6732Y7834D01*
X6721Y7837D01*
X6712Y7839D01*
X6705Y7840D01*
X6699Y7842D01*
X6695Y7842D01*
X6693Y7843D01*
X6692D01*
X6690Y7843D01*
X6688Y7844D01*
X6685Y7847D01*
X6684Y7849D01*
X6685Y7852D01*
X6686Y7855D01*
X6687Y7857D01*
X6688Y7859D01*
X6689Y7859D01*
X6688Y7865D01*
X6687Y7872D01*
X6687Y7875D01*
Y7877D01*
X6686Y7879D01*
Y7879D01*
X6685Y7888D01*
X6684Y7892D01*
X6683Y7895D01*
X6682Y7898D01*
Y7900D01*
X6682Y7901D01*
Y7902D01*
X6671Y7903D01*
X6662Y7905D01*
X6653Y7907D01*
X6645Y7908D01*
X6639Y7909D01*
X6634Y7910D01*
X6631Y7910D01*
X6630D01*
X6626Y7912D01*
X6623Y7913D01*
X6621Y7914D01*
X6619Y7915D01*
X6618Y7917D01*
X6616Y7918D01*
Y7920D01*
X6617Y7923D01*
X6618Y7924D01*
X6619Y7925D01*
X6620Y7926D01*
X6624Y7929D01*
X6629Y7932D01*
X6633Y7933D01*
X6636Y7934D01*
X6643D01*
X6647Y7933D01*
X6653Y7932D01*
X6664Y7930D01*
X6669Y7929D01*
X6673Y7928D01*
X6676Y7927D01*
X6677D01*
X6675Y7937D01*
X6673Y7946D01*
X6671Y7954D01*
X6669Y7961D01*
X6667Y7968D01*
X6666Y7974D01*
X6665Y7978D01*
X6664Y7983D01*
X6662Y7986D01*
X6661Y7989D01*
X6660Y7991D01*
X6660Y7993D01*
X6659Y7995D01*
X6659Y7996D01*
X6657Y8000D01*
X6656Y8005D01*
X6657Y8008D01*
X6659Y8011D01*
X6661Y8013D01*
X6663Y8015D01*
X6665Y8015D01*
X6665Y8016D01*
X6676Y8020D01*
X6681Y8023D01*
X6685Y8024D01*
X6689Y8025D01*
X6692Y8026D01*
X6694Y8026D01*
X6695D01*
X6700Y8027D01*
X6702D01*
X6705Y8026D01*
D02*
G37*
G36*
X6121Y7969D02*
X6125Y7969D01*
X6128Y7968D01*
X6131Y7967D01*
X6132Y7966D01*
X6132D01*
X6134Y7965D01*
Y7963D01*
X6132Y7960D01*
X6131Y7958D01*
X6127Y7954D01*
X6124Y7950D01*
X6116Y7942D01*
X6107Y7934D01*
X6100Y7927D01*
X6096Y7924D01*
X6094Y7922D01*
X6093Y7921D01*
X6092Y7920D01*
X6084Y7916D01*
X6076Y7913D01*
X6070Y7911D01*
X6065Y7909D01*
X6060Y7909D01*
X6056D01*
X6053Y7910D01*
X6051Y7910D01*
X6047Y7914D01*
X6045Y7917D01*
X6045Y7919D01*
Y7920D01*
X6046Y7929D01*
X6048Y7937D01*
X6051Y7943D01*
X6055Y7948D01*
X6059Y7952D01*
X6063Y7954D01*
X6065Y7956D01*
X6066Y7956D01*
X6074Y7960D01*
X6081Y7963D01*
X6087Y7965D01*
X6093Y7967D01*
X6098Y7968D01*
X6101Y7969D01*
X6104Y7969D01*
X6105D01*
X6111Y7970D01*
X6116D01*
X6121Y7969D01*
D02*
G37*
G36*
X4788Y8021D02*
X4790Y8020D01*
X4790Y8019D01*
X4791Y8018D01*
Y8018D01*
X4792Y8015D01*
X4793Y8013D01*
X4796Y8009D01*
X4800Y8004D01*
X4805Y7999D01*
X4810Y7995D01*
X4815Y7991D01*
X4818Y7989D01*
X4819Y7988D01*
X4819D01*
X4830Y7981D01*
X4841Y7974D01*
X4852Y7968D01*
X4862Y7961D01*
X4871Y7956D01*
X4875Y7954D01*
X4878Y7953D01*
X4881Y7951D01*
X4883Y7950D01*
X4884Y7949D01*
X4885D01*
X4899Y7942D01*
X4912Y7935D01*
X4924Y7930D01*
X4934Y7925D01*
X4943Y7921D01*
X4946Y7919D01*
X4949Y7918D01*
X4951Y7917D01*
X4953Y7916D01*
X4954Y7915D01*
X4955D01*
X4960Y7913D01*
X4964Y7911D01*
X4966Y7909D01*
X4968Y7908D01*
Y7907D01*
X4967Y7907D01*
X4966Y7906D01*
X4964Y7905D01*
X4955D01*
X4952Y7906D01*
X4950D01*
X4936Y7908D01*
X4923Y7912D01*
X4909Y7915D01*
X4898Y7919D01*
X4892Y7922D01*
X4887Y7923D01*
X4883Y7925D01*
X4879Y7927D01*
X4876Y7928D01*
X4874Y7929D01*
X4873Y7929D01*
X4872D01*
X4869Y7926D01*
X4867Y7921D01*
X4865Y7914D01*
X4864Y7907D01*
X4862Y7898D01*
X4861Y7889D01*
X4859Y7870D01*
X4859Y7861D01*
X4858Y7852D01*
Y7844D01*
X4858Y7837D01*
Y7831D01*
Y7825D01*
Y7823D01*
Y7822D01*
X4876Y7819D01*
X4894Y7818D01*
X4910Y7816D01*
X4926Y7814D01*
X4940Y7812D01*
X4953Y7811D01*
X4964Y7809D01*
X4975Y7808D01*
X4984Y7807D01*
X4992Y7807D01*
X4999Y7806D01*
X5005Y7805D01*
X5009Y7804D01*
X5012D01*
X5014Y7804D01*
X5015D01*
X5024Y7803D01*
X5033Y7802D01*
X5041Y7801D01*
X5048Y7801D01*
X5054Y7800D01*
X5060Y7799D01*
X5065D01*
X5069Y7799D01*
X5075D01*
X5080Y7798D01*
X5084D01*
X5086Y7798D01*
X5086Y7796D01*
X5086Y7794D01*
X5084Y7792D01*
X5082Y7789D01*
X5079Y7787D01*
X5077Y7785D01*
X5077Y7784D01*
X5070Y7780D01*
X5064Y7777D01*
X5057Y7774D01*
X5052Y7773D01*
X5047Y7772D01*
X5044Y7772D01*
X5041D01*
X5037Y7772D01*
X5032D01*
X5022Y7773D01*
X5012Y7775D01*
X5001Y7777D01*
X4991Y7778D01*
X4986Y7779D01*
X4983Y7779D01*
X4980Y7780D01*
X4978D01*
X4976Y7781D01*
X4975D01*
X4956Y7784D01*
X4937Y7787D01*
X4918Y7789D01*
X4899Y7792D01*
X4890Y7792D01*
X4883Y7793D01*
X4875Y7794D01*
X4869Y7795D01*
X4864Y7796D01*
X4861D01*
X4858Y7796D01*
X4858D01*
Y7627D01*
Y7615D01*
Y7603D01*
X4857Y7592D01*
Y7582D01*
X4857Y7572D01*
X4856Y7564D01*
Y7556D01*
X4855Y7549D01*
X4855Y7543D01*
X4854Y7538D01*
Y7533D01*
X4854Y7530D01*
Y7527D01*
X4853Y7525D01*
Y7524D01*
Y7523D01*
X4852Y7517D01*
X4851Y7512D01*
X4850Y7509D01*
X4848Y7507D01*
X4847Y7506D01*
X4846Y7506D01*
X4844Y7506D01*
X4843Y7507D01*
X4840Y7510D01*
X4838Y7514D01*
X4837Y7517D01*
X4837Y7517D01*
Y7518D01*
X4834Y7524D01*
X4833Y7531D01*
X4831Y7539D01*
X4830Y7547D01*
X4828Y7565D01*
X4827Y7582D01*
X4826Y7590D01*
X4825Y7598D01*
Y7605D01*
X4825Y7611D01*
Y7616D01*
Y7620D01*
Y7622D01*
Y7623D01*
Y7801D01*
X4800Y7803D01*
X4789Y7804D01*
X4778Y7805D01*
X4767Y7806D01*
X4757Y7806D01*
X4748Y7807D01*
X4739D01*
X4732Y7808D01*
X4724Y7808D01*
X4719D01*
X4714Y7809D01*
X4654D01*
X4647Y7808D01*
X4641D01*
X4636Y7808D01*
X4631D01*
X4627Y7807D01*
X4621D01*
X4620Y7807D01*
X4618D01*
X4612Y7806D01*
X4607D01*
X4603Y7807D01*
X4600Y7807D01*
X4597Y7808D01*
X4595Y7809D01*
X4592Y7811D01*
X4591Y7814D01*
X4592Y7816D01*
Y7818D01*
X4592Y7818D01*
X4596Y7824D01*
X4600Y7828D01*
X4604Y7833D01*
X4608Y7836D01*
X4612Y7839D01*
X4616Y7841D01*
X4618Y7842D01*
X4619Y7843D01*
X4627Y7845D01*
X4636Y7847D01*
X4646Y7848D01*
X4656Y7847D01*
X4664Y7847D01*
X4668D01*
X4671Y7846D01*
X4674Y7845D01*
X4676D01*
X4677Y7845D01*
X4678D01*
X4686Y7844D01*
X4696Y7842D01*
X4706Y7840D01*
X4717Y7839D01*
X4729Y7837D01*
X4742Y7835D01*
X4766Y7832D01*
X4778Y7831D01*
X4789Y7829D01*
X4799Y7828D01*
X4808Y7827D01*
X4815Y7825D01*
X4820Y7825D01*
X4822D01*
X4824Y7824D01*
X4825D01*
Y7835D01*
Y7845D01*
X4824Y7855D01*
X4824Y7863D01*
Y7870D01*
X4823Y7876D01*
X4823Y7882D01*
X4822Y7886D01*
X4822Y7890D01*
X4821Y7893D01*
X4820Y7896D01*
Y7898D01*
X4819Y7900D01*
Y7901D01*
X4818Y7906D01*
X4817Y7910D01*
Y7914D01*
X4818Y7918D01*
X4819Y7920D01*
X4820Y7922D01*
X4821Y7923D01*
X4822Y7924D01*
X4825Y7927D01*
X4830Y7930D01*
X4839Y7934D01*
X4844Y7936D01*
X4848Y7938D01*
X4850Y7938D01*
X4851Y7939D01*
X4843Y7943D01*
X4835Y7946D01*
X4827Y7950D01*
X4819Y7954D01*
X4812Y7957D01*
X4805Y7960D01*
X4803Y7961D01*
X4802Y7961D01*
X4801Y7962D01*
X4800D01*
X4789Y7967D01*
X4779Y7971D01*
X4770Y7974D01*
X4763Y7977D01*
X4757Y7979D01*
X4752Y7980D01*
X4750Y7981D01*
X4749D01*
X4746Y7982D01*
X4743Y7983D01*
X4741Y7984D01*
X4739Y7986D01*
X4737Y7988D01*
Y7991D01*
X4738Y7994D01*
X4739Y7996D01*
X4740Y7997D01*
X4741Y7998D01*
X4745Y8002D01*
X4750Y8006D01*
X4760Y8013D01*
X4764Y8015D01*
X4768Y8017D01*
X4770Y8018D01*
X4771Y8019D01*
X4777Y8021D01*
X4782Y8023D01*
X4785D01*
X4788Y8021D01*
D02*
G37*
G36*
X6539Y8017D02*
X6540Y8015D01*
Y8014D01*
X6538Y8009D01*
X6536Y8006D01*
X6535Y8005D01*
Y8004D01*
X6534Y8002D01*
X6533Y7999D01*
X6533Y7995D01*
X6532Y7991D01*
X6531Y7980D01*
X6530Y7970D01*
Y7959D01*
X6529Y7954D01*
Y7950D01*
Y7946D01*
Y7944D01*
Y7942D01*
Y7941D01*
Y7859D01*
X6543Y7856D01*
X6555Y7853D01*
X6565Y7851D01*
X6573Y7849D01*
X6580Y7848D01*
X6585Y7847D01*
X6588Y7846D01*
X6589D01*
X6593Y7845D01*
X6596Y7844D01*
X6598Y7844D01*
X6600Y7843D01*
X6601Y7841D01*
Y7839D01*
X6601Y7838D01*
X6599Y7837D01*
X6598Y7836D01*
X6598Y7835D01*
X6588Y7832D01*
X6583Y7830D01*
X6580Y7829D01*
X6576Y7828D01*
X6574D01*
X6573Y7828D01*
X6561D01*
X6554Y7828D01*
X6547Y7829D01*
X6540Y7830D01*
X6534Y7831D01*
X6533D01*
X6531Y7831D01*
X6529D01*
Y7771D01*
X6541Y7768D01*
X6553Y7766D01*
X6564Y7764D01*
X6573Y7762D01*
X6582Y7761D01*
X6590Y7759D01*
X6598Y7758D01*
X6604Y7757D01*
X6609Y7756D01*
X6614Y7756D01*
X6618Y7755D01*
X6621Y7754D01*
X6624D01*
X6625Y7754D01*
X6627D01*
X6632Y7753D01*
X6636Y7753D01*
X6639Y7752D01*
X6641Y7751D01*
X6642Y7749D01*
X6643Y7748D01*
Y7746D01*
X6641Y7744D01*
X6639Y7742D01*
X6637Y7741D01*
X6636Y7740D01*
X6629Y7736D01*
X6623Y7733D01*
X6618Y7732D01*
X6614Y7731D01*
X6610Y7730D01*
X6608Y7729D01*
X6606D01*
X6604Y7730D01*
X6600Y7731D01*
X6596Y7731D01*
X6593Y7732D01*
X6583Y7734D01*
X6573Y7736D01*
X6564Y7738D01*
X6559Y7739D01*
X6556Y7741D01*
X6553Y7741D01*
X6550Y7742D01*
X6549Y7742D01*
X6548D01*
X6544Y7731D01*
X6540Y7721D01*
X6538Y7711D01*
X6536Y7703D01*
X6535Y7696D01*
X6534Y7691D01*
Y7687D01*
Y7687D01*
Y7686D01*
X6546Y7683D01*
X6558Y7680D01*
X6568Y7678D01*
X6576Y7676D01*
X6584Y7675D01*
X6589Y7673D01*
X6591D01*
X6593Y7673D01*
X6594D01*
X6599Y7672D01*
X6603Y7672D01*
X6605Y7671D01*
X6607Y7670D01*
X6609Y7669D01*
X6609Y7668D01*
Y7667D01*
X6609Y7666D01*
X6607Y7665D01*
X6605Y7664D01*
X6605Y7663D01*
X6599Y7662D01*
X6594Y7660D01*
X6589Y7659D01*
X6585Y7658D01*
X6582Y7657D01*
X6579D01*
X6578Y7657D01*
X6566D01*
X6559Y7657D01*
X6552Y7658D01*
X6545Y7659D01*
X6539Y7660D01*
X6538D01*
X6536Y7660D01*
X6534D01*
Y7606D01*
X6552Y7603D01*
X6568Y7600D01*
X6583Y7597D01*
X6596Y7595D01*
X6608Y7594D01*
X6618Y7592D01*
X6628Y7591D01*
X6635Y7590D01*
X6643Y7589D01*
X6648Y7589D01*
X6653Y7588D01*
X6657D01*
X6660Y7587D01*
X6667D01*
X6671Y7587D01*
X6674Y7586D01*
X6676Y7586D01*
X6677Y7585D01*
X6677Y7584D01*
X6677Y7582D01*
X6675Y7580D01*
X6672Y7577D01*
X6670Y7576D01*
X6669Y7576D01*
X6661Y7572D01*
X6655Y7570D01*
X6650Y7568D01*
X6646Y7567D01*
X6643Y7567D01*
X6640D01*
X6638Y7567D01*
X6636Y7568D01*
X6630Y7569D01*
X6623Y7570D01*
X6615Y7572D01*
X6608Y7573D01*
X6601Y7574D01*
X6599Y7574D01*
X6597Y7575D01*
X6595D01*
X6581Y7577D01*
X6566Y7579D01*
X6551Y7581D01*
X6538Y7583D01*
X6533Y7584D01*
X6527Y7584D01*
X6522Y7585D01*
X6518Y7585D01*
X6514Y7586D01*
X6512Y7586D01*
X6510D01*
X6492Y7588D01*
X6476Y7589D01*
X6461Y7590D01*
X6438D01*
X6434Y7589D01*
X6427D01*
X6425Y7589D01*
X6423D01*
X6416Y7588D01*
X6410Y7587D01*
X6390D01*
X6383Y7588D01*
X6378Y7589D01*
X6375Y7589D01*
X6373Y7590D01*
X6373D01*
X6371Y7591D01*
X6370Y7592D01*
X6369Y7594D01*
X6370Y7595D01*
X6372Y7598D01*
X6375Y7601D01*
X6378Y7604D01*
X6382Y7606D01*
X6384Y7608D01*
X6385Y7609D01*
X6386D01*
X6395Y7613D01*
X6404Y7616D01*
X6413Y7618D01*
X6421Y7618D01*
X6428Y7619D01*
X6433Y7618D01*
X6435D01*
X6437Y7618D01*
X6438D01*
X6449Y7616D01*
X6462Y7615D01*
X6474Y7613D01*
X6485Y7612D01*
X6495Y7610D01*
X6500Y7610D01*
X6504D01*
X6507Y7609D01*
X6509Y7609D01*
X6511D01*
Y7618D01*
X6510Y7628D01*
X6510Y7637D01*
X6509Y7647D01*
Y7655D01*
X6509Y7662D01*
X6508Y7664D01*
Y7666D01*
Y7667D01*
Y7667D01*
X6495Y7670D01*
X6484Y7672D01*
X6475Y7675D01*
X6468Y7676D01*
X6463Y7678D01*
X6459Y7679D01*
X6457Y7680D01*
X6456D01*
X6453Y7681D01*
X6452Y7682D01*
X6449Y7685D01*
X6448Y7687D01*
Y7690D01*
X6448Y7691D01*
X6449Y7693D01*
X6450Y7693D01*
X6451Y7694D01*
X6455Y7697D01*
X6459Y7698D01*
X6464Y7700D01*
X6468Y7700D01*
X6472Y7701D01*
X6474Y7700D01*
X6477D01*
X6488Y7698D01*
X6493Y7698D01*
X6497Y7697D01*
X6501Y7697D01*
X6504Y7696D01*
X6505Y7696D01*
X6506D01*
X6504Y7706D01*
X6503Y7710D01*
X6502Y7713D01*
X6502Y7717D01*
X6501Y7719D01*
X6500Y7721D01*
Y7721D01*
X6500Y7723D01*
X6500Y7726D01*
X6502Y7728D01*
X6503Y7729D01*
X6508Y7734D01*
X6513Y7737D01*
X6519Y7740D01*
X6524Y7742D01*
X6527Y7743D01*
X6528Y7744D01*
X6529Y7744D01*
X6529D01*
X6514Y7747D01*
X6500Y7749D01*
X6488Y7751D01*
X6477Y7752D01*
X6468Y7753D01*
X6464Y7754D01*
X6462Y7754D01*
X6459D01*
X6458Y7755D01*
X6456D01*
X6444Y7756D01*
X6434Y7757D01*
X6425Y7757D01*
X6395D01*
X6392Y7758D01*
X6390Y7758D01*
X6387Y7760D01*
X6386Y7762D01*
X6385Y7763D01*
Y7765D01*
X6386Y7766D01*
Y7767D01*
X6388Y7771D01*
X6391Y7773D01*
X6397Y7778D01*
X6399Y7779D01*
X6402Y7781D01*
X6403Y7782D01*
X6403D01*
X6408Y7783D01*
X6413Y7784D01*
X6423Y7785D01*
X6432D01*
X6434Y7784D01*
X6435D01*
X6439Y7784D01*
X6444Y7783D01*
X6454Y7782D01*
X6466Y7781D01*
X6478Y7779D01*
X6489Y7777D01*
X6493Y7777D01*
X6498Y7776D01*
X6501Y7776D01*
X6504D01*
X6505Y7775D01*
X6506D01*
Y7786D01*
X6505Y7797D01*
Y7808D01*
X6505Y7817D01*
X6504Y7825D01*
Y7829D01*
Y7832D01*
X6504Y7835D01*
Y7837D01*
Y7838D01*
Y7838D01*
X6490Y7841D01*
X6479Y7844D01*
X6469Y7846D01*
X6461Y7848D01*
X6455Y7850D01*
X6450Y7852D01*
X6448Y7853D01*
X6447Y7853D01*
X6443Y7855D01*
X6440Y7857D01*
X6438Y7858D01*
X6437Y7860D01*
X6435Y7863D01*
Y7866D01*
X6435Y7868D01*
X6437Y7870D01*
X6438Y7872D01*
X6438Y7872D01*
X6443Y7875D01*
X6448Y7877D01*
X6454Y7878D01*
X6464D01*
X6468Y7877D01*
X6471Y7877D01*
X6472D01*
X6480Y7874D01*
X6487Y7873D01*
X6492Y7871D01*
X6496Y7869D01*
X6499Y7868D01*
X6502Y7867D01*
X6503Y7867D01*
X6504D01*
X6503Y7883D01*
X6502Y7898D01*
X6501Y7912D01*
X6499Y7924D01*
X6498Y7934D01*
X6497Y7943D01*
X6496Y7951D01*
X6494Y7958D01*
X6493Y7964D01*
X6492Y7969D01*
X6492Y7973D01*
X6490Y7975D01*
X6490Y7978D01*
X6489Y7979D01*
X6489Y7980D01*
X6487Y7984D01*
X6487Y7987D01*
Y7990D01*
X6487Y7993D01*
X6490Y7998D01*
X6494Y8003D01*
X6499Y8006D01*
X6503Y8009D01*
X6507Y8010D01*
X6507Y8010D01*
X6508D01*
X6513Y8012D01*
X6517Y8014D01*
X6525Y8016D01*
X6530Y8017D01*
X6534Y8018D01*
X6538D01*
X6539Y8017D01*
D02*
G37*
G36*
X5345Y7902D02*
X5349D01*
X5353Y7901D01*
X5357Y7900D01*
X5359Y7900D01*
X5362Y7899D01*
X5364Y7897D01*
X5366Y7895D01*
Y7893D01*
X5365Y7892D01*
X5365Y7890D01*
Y7890D01*
X5361Y7886D01*
X5356Y7882D01*
X5350Y7878D01*
X5344Y7873D01*
X5339Y7869D01*
X5335Y7867D01*
X5332Y7864D01*
X5331Y7864D01*
X5330D01*
X5326Y7861D01*
X5322Y7859D01*
X5318Y7858D01*
X5314Y7858D01*
X5309D01*
X5305Y7859D01*
X5302Y7862D01*
X5300Y7864D01*
X5299Y7867D01*
X5298Y7867D01*
X5297Y7871D01*
X5297Y7874D01*
Y7880D01*
X5298Y7885D01*
X5301Y7889D01*
X5304Y7892D01*
X5306Y7894D01*
X5308Y7895D01*
X5309Y7895D01*
X5315Y7898D01*
X5322Y7900D01*
X5329Y7901D01*
X5335Y7902D01*
X5341Y7902D01*
X5345Y7902D01*
D02*
G37*
G36*
X5552Y7876D02*
X5554Y7875D01*
X5556Y7874D01*
X5557Y7873D01*
X5558Y7870D01*
Y7867D01*
X5556Y7863D01*
X5555Y7860D01*
X5554Y7858D01*
X5553Y7857D01*
X5547Y7850D01*
X5541Y7845D01*
X5536Y7840D01*
X5531Y7837D01*
X5528Y7834D01*
X5525Y7833D01*
X5523Y7832D01*
X5522Y7831D01*
X5516Y7829D01*
X5512Y7830D01*
X5509Y7831D01*
X5505Y7833D01*
X5504Y7835D01*
X5502Y7838D01*
X5501Y7840D01*
Y7840D01*
X5500Y7844D01*
Y7847D01*
X5500Y7852D01*
X5502Y7857D01*
X5504Y7860D01*
X5507Y7863D01*
X5510Y7866D01*
X5512Y7867D01*
X5513Y7868D01*
X5519Y7871D01*
X5525Y7874D01*
X5531Y7875D01*
X5537Y7876D01*
X5542Y7877D01*
X5549D01*
X5552Y7876D01*
D02*
G37*
G36*
X6150Y7866D02*
X6155Y7865D01*
X6158Y7864D01*
X6160Y7863D01*
X6161Y7861D01*
X6162Y7859D01*
Y7859D01*
Y7858D01*
X6161Y7857D01*
X6160Y7854D01*
X6156Y7850D01*
X6152Y7845D01*
X6147Y7840D01*
X6142Y7836D01*
X6137Y7832D01*
X6135Y7830D01*
X6134Y7829D01*
X6124Y7824D01*
X6115Y7820D01*
X6107Y7817D01*
X6101Y7816D01*
X6096Y7814D01*
X6091Y7814D01*
X6087Y7814D01*
X6085Y7815D01*
X6082Y7817D01*
X6080Y7818D01*
X6079Y7821D01*
X6078Y7823D01*
Y7824D01*
X6079Y7833D01*
X6081Y7840D01*
X6084Y7847D01*
X6088Y7851D01*
X6092Y7854D01*
X6095Y7857D01*
X6097Y7858D01*
X6099Y7858D01*
X6106Y7861D01*
X6114Y7863D01*
X6122Y7864D01*
X6129Y7865D01*
X6135Y7866D01*
X6139Y7867D01*
X6143D01*
X6150Y7866D01*
D02*
G37*
G36*
X6031Y8044D02*
X6033Y8041D01*
Y8039D01*
X6033Y8035D01*
X6031Y8033D01*
X6030Y8030D01*
X6030Y8029D01*
X6028Y8025D01*
X6025Y8020D01*
X6024Y8014D01*
X6022Y8008D01*
X6019Y7993D01*
X6018Y7979D01*
X6017Y7972D01*
X6016Y7965D01*
Y7959D01*
X6015Y7954D01*
X6015Y7950D01*
Y7946D01*
Y7944D01*
Y7944D01*
X6014Y7931D01*
X6014Y7918D01*
X6013Y7892D01*
X6013Y7865D01*
Y7853D01*
Y7840D01*
X6012Y7829D01*
Y7819D01*
Y7810D01*
Y7802D01*
Y7796D01*
Y7791D01*
Y7788D01*
Y7787D01*
X6031Y7784D01*
X6048Y7781D01*
X6065Y7778D01*
X6080Y7776D01*
X6094Y7774D01*
X6107Y7772D01*
X6119Y7770D01*
X6129Y7768D01*
X6138Y7767D01*
X6146Y7766D01*
X6152Y7764D01*
X6158Y7764D01*
X6162Y7763D01*
X6166Y7763D01*
X6167Y7762D01*
X6168D01*
X6187Y7759D01*
X6204Y7757D01*
X6211Y7756D01*
X6218Y7756D01*
X6225Y7755D01*
X6231Y7754D01*
X6236Y7754D01*
X6240Y7753D01*
X6247D01*
X6250Y7753D01*
X6253D01*
X6259Y7752D01*
X6263Y7752D01*
X6266Y7751D01*
X6268Y7749D01*
X6270Y7748D01*
X6270Y7746D01*
Y7744D01*
X6270Y7742D01*
X6267Y7739D01*
X6264Y7736D01*
X6262Y7733D01*
X6261Y7733D01*
X6256Y7729D01*
X6251Y7727D01*
X6245Y7725D01*
X6240Y7724D01*
X6230Y7723D01*
X6220D01*
X6212Y7724D01*
X6209Y7724D01*
X6206Y7725D01*
X6203Y7726D01*
X6201Y7726D01*
X6200Y7727D01*
X6200D01*
X6196Y7728D01*
X6192Y7729D01*
X6187Y7731D01*
X6181Y7732D01*
X6169Y7735D01*
X6155Y7738D01*
X6140Y7741D01*
X6125Y7743D01*
X6093Y7749D01*
X6077Y7752D01*
X6062Y7754D01*
X6048Y7756D01*
X6036Y7758D01*
X6031Y7758D01*
X6026Y7759D01*
X6022Y7759D01*
X6019Y7760D01*
X6016Y7761D01*
X6014Y7761D01*
X6012D01*
X6013Y7724D01*
Y7706D01*
X6013Y7689D01*
Y7673D01*
Y7657D01*
Y7642D01*
X6013Y7629D01*
Y7617D01*
Y7606D01*
Y7596D01*
Y7588D01*
X6012Y7581D01*
Y7576D01*
Y7574D01*
Y7572D01*
Y7565D01*
X6011Y7557D01*
X6011Y7551D01*
Y7545D01*
X6010Y7534D01*
X6009Y7525D01*
X6007Y7518D01*
X6006Y7513D01*
X6005Y7509D01*
X6003Y7506D01*
X6001Y7505D01*
X6000Y7504D01*
X5999Y7503D01*
X5998Y7504D01*
X5996Y7505D01*
X5996Y7505D01*
X5993Y7510D01*
X5991Y7515D01*
X5989Y7522D01*
X5987Y7529D01*
X5985Y7537D01*
X5984Y7545D01*
X5982Y7562D01*
X5982Y7570D01*
X5981Y7577D01*
X5980Y7584D01*
X5980Y7591D01*
Y7596D01*
X5979Y7600D01*
Y7602D01*
Y7603D01*
X5979Y7632D01*
X5978Y7661D01*
X5978Y7675D01*
Y7688D01*
Y7701D01*
X5977Y7712D01*
Y7723D01*
Y7733D01*
Y7742D01*
Y7749D01*
Y7755D01*
Y7759D01*
Y7762D01*
Y7763D01*
X5959Y7765D01*
X5942Y7766D01*
X5927Y7767D01*
X5919Y7768D01*
X5913Y7768D01*
X5907Y7769D01*
X5902D01*
X5897Y7769D01*
X5893D01*
X5890Y7770D01*
X5885D01*
X5871Y7771D01*
X5857Y7771D01*
X5834D01*
X5827Y7771D01*
X5821D01*
X5818Y7770D01*
X5816D01*
X5811Y7769D01*
X5806D01*
X5799Y7770D01*
X5793Y7771D01*
X5789Y7772D01*
X5787Y7773D01*
X5786Y7775D01*
X5785Y7776D01*
Y7776D01*
Y7778D01*
Y7779D01*
X5787Y7783D01*
X5791Y7788D01*
X5794Y7792D01*
X5799Y7795D01*
X5802Y7798D01*
X5805Y7800D01*
X5806Y7801D01*
X5811Y7803D01*
X5816Y7806D01*
X5826Y7809D01*
X5836Y7810D01*
X5845Y7811D01*
X5853Y7810D01*
X5857Y7809D01*
X5860Y7809D01*
X5863Y7808D01*
X5864D01*
X5866Y7808D01*
X5866D01*
X5873Y7806D01*
X5881Y7804D01*
X5890Y7803D01*
X5899Y7801D01*
X5917Y7798D01*
X5935Y7796D01*
X5944Y7795D01*
X5952Y7794D01*
X5959Y7793D01*
X5965Y7793D01*
X5970Y7792D01*
X5974D01*
X5976Y7792D01*
X5977D01*
Y7808D01*
Y7824D01*
Y7838D01*
Y7853D01*
Y7865D01*
X5976Y7878D01*
Y7889D01*
Y7900D01*
Y7909D01*
Y7917D01*
X5976Y7924D01*
Y7930D01*
Y7935D01*
Y7938D01*
Y7940D01*
Y7941D01*
X5975Y7952D01*
Y7961D01*
X5975Y7970D01*
X5974Y7978D01*
X5974Y7985D01*
X5973Y7990D01*
X5972Y7995D01*
X5972Y8000D01*
X5970Y8003D01*
X5970Y8006D01*
X5969Y8008D01*
X5969Y8010D01*
X5968Y8012D01*
X5968Y8013D01*
X5967Y8015D01*
X5966Y8016D01*
X5967Y8020D01*
X5968Y8023D01*
X5971Y8026D01*
X5974Y8028D01*
X5976Y8030D01*
X5979Y8031D01*
X5979Y8031D01*
X5994Y8037D01*
X6000Y8039D01*
X6007Y8041D01*
X6013Y8043D01*
X6016Y8044D01*
X6019Y8044D01*
X6020D01*
X6024Y8045D01*
X6029D01*
X6031Y8044D01*
D02*
G37*
G36*
X7269Y7843D02*
X7274Y7842D01*
X7276Y7842D01*
X7278Y7840D01*
X7280Y7839D01*
X7280Y7837D01*
Y7835D01*
X7279Y7833D01*
X7277Y7829D01*
X7275Y7827D01*
X7274Y7827D01*
X7259Y7815D01*
X7251Y7809D01*
X7245Y7805D01*
X7239Y7802D01*
X7235Y7798D01*
X7232Y7797D01*
X7231Y7796D01*
X7227Y7794D01*
X7223Y7792D01*
X7220Y7791D01*
X7217Y7791D01*
X7212D01*
X7208Y7792D01*
X7205Y7794D01*
X7203Y7796D01*
X7203Y7798D01*
X7202Y7798D01*
X7200Y7804D01*
X7200Y7810D01*
X7200Y7815D01*
X7202Y7819D01*
X7204Y7823D01*
X7206Y7825D01*
X7207Y7827D01*
X7207Y7828D01*
X7210Y7830D01*
X7213Y7832D01*
X7221Y7835D01*
X7229Y7838D01*
X7237Y7840D01*
X7245Y7842D01*
X7252Y7842D01*
X7255Y7843D01*
X7258D01*
X7264Y7843D01*
X7269Y7843D01*
D02*
G37*
G36*
X5473Y7825D02*
X5476Y7824D01*
X5479Y7823D01*
X5481Y7822D01*
X5483Y7821D01*
X5484Y7819D01*
X5484Y7817D01*
Y7814D01*
X5484Y7813D01*
X5483Y7812D01*
X5478Y7807D01*
X5473Y7802D01*
X5466Y7796D01*
X5460Y7791D01*
X5455Y7787D01*
X5450Y7783D01*
X5447Y7781D01*
X5446Y7781D01*
X5441Y7778D01*
X5436Y7776D01*
X5429Y7772D01*
X5422Y7771D01*
X5417Y7771D01*
X5413Y7772D01*
X5409Y7773D01*
X5408Y7773D01*
X5407Y7774D01*
X5405Y7776D01*
X5403Y7778D01*
X5402Y7783D01*
Y7788D01*
X5403Y7793D01*
X5404Y7798D01*
X5406Y7801D01*
X5408Y7803D01*
X5408Y7804D01*
X5414Y7811D01*
X5422Y7816D01*
X5430Y7820D01*
X5438Y7823D01*
X5445Y7824D01*
X5452Y7825D01*
X5454Y7825D01*
X5469D01*
X5473Y7825D01*
D02*
G37*
G36*
X7072Y7784D02*
X7073D01*
X7084Y7782D01*
X7097Y7781D01*
X7110Y7779D01*
X7123Y7777D01*
X7134Y7776D01*
X7139Y7775D01*
X7143Y7774D01*
X7146Y7774D01*
X7149D01*
X7151Y7773D01*
X7151D01*
X7171Y7771D01*
X7191Y7769D01*
X7211Y7767D01*
X7220Y7766D01*
X7229Y7766D01*
X7237Y7764D01*
X7245Y7764D01*
X7252Y7763D01*
X7258Y7763D01*
X7263Y7762D01*
X7267D01*
X7269Y7762D01*
X7270D01*
X7294Y7759D01*
X7306Y7759D01*
X7316Y7758D01*
X7327Y7757D01*
X7336Y7757D01*
X7345Y7756D01*
X7353Y7755D01*
X7361Y7754D01*
X7367Y7754D01*
X7373D01*
X7378Y7753D01*
X7382D01*
X7385Y7753D01*
X7387D01*
X7404Y7752D01*
X7420Y7751D01*
X7433Y7750D01*
X7449D01*
X7454Y7749D01*
X7471D01*
X7474Y7749D01*
X7477Y7748D01*
X7479Y7747D01*
X7479Y7746D01*
X7480Y7744D01*
X7479Y7743D01*
X7479Y7741D01*
X7476Y7738D01*
X7473Y7736D01*
X7471Y7733D01*
X7470Y7733D01*
X7461Y7728D01*
X7453Y7724D01*
X7447Y7721D01*
X7441Y7720D01*
X7437Y7719D01*
X7431D01*
X7428Y7720D01*
X7424Y7720D01*
X7419Y7721D01*
X7414Y7721D01*
X7402Y7723D01*
X7390Y7724D01*
X7378Y7726D01*
X7372Y7727D01*
X7368Y7727D01*
X7364Y7728D01*
X7361D01*
X7359Y7728D01*
X7358D01*
X7355Y7709D01*
X7355Y7700D01*
X7353Y7691D01*
X7353Y7685D01*
X7352Y7679D01*
Y7677D01*
Y7675D01*
Y7675D01*
Y7674D01*
Y7664D01*
Y7655D01*
Y7647D01*
X7353Y7641D01*
Y7636D01*
X7353Y7632D01*
X7354Y7630D01*
Y7628D01*
X7356Y7616D01*
X7357Y7610D01*
X7359Y7604D01*
X7360Y7599D01*
X7361Y7596D01*
X7362Y7594D01*
X7362Y7592D01*
X7364Y7585D01*
Y7579D01*
X7363Y7573D01*
X7362Y7567D01*
X7361Y7563D01*
X7360Y7559D01*
X7359Y7557D01*
X7358Y7556D01*
X7357Y7554D01*
X7355Y7551D01*
X7352Y7550D01*
X7350Y7549D01*
X7345Y7547D01*
X7341D01*
X7337Y7549D01*
X7333Y7550D01*
X7331Y7551D01*
X7330Y7552D01*
X7326Y7554D01*
X7319Y7556D01*
X7311Y7559D01*
X7302Y7560D01*
X7292Y7562D01*
X7281Y7564D01*
X7259Y7566D01*
X7249Y7567D01*
X7238Y7568D01*
X7228Y7569D01*
X7220Y7569D01*
X7212Y7570D01*
X7207Y7570D01*
X7203D01*
X7183Y7571D01*
X7165Y7572D01*
X7149Y7572D01*
X7134Y7574D01*
X7121D01*
X7109Y7574D01*
X7099D01*
X7090Y7575D01*
X7053D01*
X7048Y7575D01*
X7044Y7576D01*
X7042Y7577D01*
X7040Y7579D01*
X7039Y7581D01*
Y7582D01*
Y7584D01*
X7040Y7588D01*
X7042Y7591D01*
X7044Y7594D01*
X7045Y7595D01*
X7049Y7599D01*
X7054Y7601D01*
X7059Y7603D01*
X7065Y7606D01*
X7077Y7609D01*
X7089Y7610D01*
X7105D01*
X7109Y7609D01*
X7115D01*
X7117Y7609D01*
X7118D01*
X7137Y7606D01*
X7157Y7604D01*
X7176Y7602D01*
X7185Y7601D01*
X7193Y7600D01*
X7201Y7600D01*
X7209Y7599D01*
X7215Y7598D01*
X7220D01*
X7225Y7597D01*
X7228Y7597D01*
X7231D01*
X7242Y7596D01*
X7252Y7595D01*
X7261Y7595D01*
X7269Y7594D01*
X7276Y7593D01*
X7282Y7592D01*
X7288Y7592D01*
X7293D01*
X7297Y7591D01*
X7300Y7591D01*
X7303Y7590D01*
X7305D01*
X7308Y7590D01*
X7311D01*
X7314Y7590D01*
X7317Y7592D01*
X7320Y7596D01*
X7322Y7601D01*
X7323Y7605D01*
X7323Y7610D01*
Y7612D01*
Y7613D01*
X7323Y7633D01*
X7322Y7642D01*
X7322Y7650D01*
X7321Y7657D01*
X7321Y7662D01*
Y7665D01*
X7320Y7666D01*
Y7667D01*
Y7667D01*
X7319Y7677D01*
X7317Y7686D01*
X7316Y7692D01*
X7315Y7698D01*
X7314Y7702D01*
X7314Y7705D01*
X7313Y7707D01*
Y7707D01*
X7312Y7710D01*
X7313Y7712D01*
X7315Y7716D01*
X7319Y7720D01*
X7322Y7723D01*
X7327Y7726D01*
X7331Y7728D01*
X7334Y7730D01*
X7335Y7731D01*
X7335D01*
X7316Y7732D01*
X7299Y7734D01*
X7281Y7735D01*
X7265Y7736D01*
X7250Y7737D01*
X7235Y7738D01*
X7222Y7739D01*
X7210Y7740D01*
X7199Y7741D01*
X7189Y7741D01*
X7180Y7742D01*
X7174D01*
X7168Y7742D01*
X7160D01*
X7147Y7743D01*
X7134D01*
X7123Y7743D01*
X7093D01*
X7085Y7744D01*
X7072D01*
X7066Y7743D01*
X7033D01*
X7028Y7744D01*
X7020Y7745D01*
X7015Y7746D01*
X7010Y7748D01*
X7008Y7749D01*
X7007Y7749D01*
X7006Y7750D01*
X7005Y7752D01*
X7004Y7753D01*
Y7755D01*
X7005Y7757D01*
X7007Y7761D01*
X7010Y7765D01*
X7014Y7768D01*
X7018Y7771D01*
X7020Y7773D01*
X7021Y7773D01*
X7022D01*
X7030Y7778D01*
X7039Y7782D01*
X7048Y7783D01*
X7056Y7784D01*
X7070D01*
X7072Y7784D01*
D02*
G37*
G36*
X5358Y7771D02*
X5363Y7771D01*
X5369Y7769D01*
X5375Y7768D01*
X5390Y7766D01*
X5405Y7762D01*
X5412Y7761D01*
X5419Y7759D01*
X5425Y7758D01*
X5431Y7757D01*
X5435Y7756D01*
X5439Y7754D01*
X5441Y7754D01*
X5442D01*
X5454Y7751D01*
X5466Y7748D01*
X5477Y7746D01*
X5487Y7744D01*
X5496Y7742D01*
X5504Y7741D01*
X5512Y7740D01*
X5519Y7739D01*
X5525Y7738D01*
X5530Y7737D01*
X5534Y7737D01*
X5537D01*
X5540Y7736D01*
X5544D01*
X5549Y7736D01*
X5554Y7735D01*
X5557Y7734D01*
X5560Y7734D01*
X5561Y7733D01*
X5562Y7732D01*
X5562Y7731D01*
Y7729D01*
X5561Y7727D01*
X5560Y7725D01*
X5557Y7724D01*
X5557Y7723D01*
X5553Y7721D01*
X5548Y7720D01*
X5538Y7718D01*
X5527Y7717D01*
X5506D01*
X5502Y7717D01*
X5498D01*
X5495Y7718D01*
X5493Y7718D01*
X5490D01*
X5473Y7721D01*
X5457Y7723D01*
X5443Y7726D01*
X5430Y7727D01*
X5425Y7728D01*
X5420Y7728D01*
X5415Y7729D01*
X5412D01*
X5409Y7730D01*
X5407Y7731D01*
X5405D01*
X5391Y7732D01*
X5378Y7734D01*
X5367Y7736D01*
X5356Y7737D01*
X5348Y7738D01*
X5344Y7739D01*
X5342Y7739D01*
X5339Y7740D01*
X5338Y7741D01*
X5337D01*
X5332Y7742D01*
X5328Y7743D01*
X5324Y7744D01*
X5322Y7746D01*
X5320Y7748D01*
X5319Y7749D01*
X5318Y7752D01*
Y7755D01*
X5319Y7757D01*
X5320Y7759D01*
X5320Y7759D01*
X5325Y7764D01*
X5331Y7767D01*
X5337Y7769D01*
X5342Y7771D01*
X5346Y7771D01*
X5350Y7772D01*
X5353D01*
X5358Y7771D01*
D02*
G37*
G36*
X5535Y7679D02*
X5537Y7678D01*
X5538Y7676D01*
Y7675D01*
Y7673D01*
Y7673D01*
X5536Y7668D01*
X5533Y7663D01*
X5526Y7651D01*
X5524Y7646D01*
X5521Y7641D01*
X5519Y7638D01*
X5518Y7637D01*
Y7637D01*
X5515Y7633D01*
X5511Y7630D01*
X5508Y7627D01*
X5505Y7626D01*
X5503Y7624D01*
X5500Y7623D01*
X5495D01*
X5491Y7624D01*
X5489Y7626D01*
X5487Y7627D01*
X5486Y7627D01*
X5483Y7633D01*
X5481Y7638D01*
X5480Y7643D01*
Y7648D01*
X5481Y7652D01*
X5483Y7655D01*
X5484Y7657D01*
X5484Y7658D01*
X5489Y7663D01*
X5494Y7668D01*
X5500Y7672D01*
X5505Y7675D01*
X5510Y7677D01*
X5514Y7678D01*
X5517Y7679D01*
X5518D01*
X5522Y7680D01*
X5526Y7680D01*
X5531D01*
X5535Y7679D01*
D02*
G37*
G36*
X5412Y7717D02*
X5413Y7715D01*
Y7713D01*
X5413Y7711D01*
X5412Y7710D01*
X5412Y7710D01*
X5410Y7707D01*
X5409Y7704D01*
X5408Y7697D01*
X5408Y7688D01*
X5408Y7680D01*
X5409Y7672D01*
X5410Y7665D01*
X5411Y7663D01*
Y7661D01*
X5412Y7660D01*
Y7659D01*
X5415Y7646D01*
X5418Y7634D01*
X5422Y7624D01*
X5425Y7616D01*
X5428Y7610D01*
X5429Y7605D01*
X5431Y7603D01*
X5431Y7602D01*
X5449Y7600D01*
X5466Y7598D01*
X5481Y7596D01*
X5496Y7594D01*
X5510Y7592D01*
X5523Y7591D01*
X5534Y7589D01*
X5544Y7588D01*
X5554Y7587D01*
X5562Y7586D01*
X5569Y7585D01*
X5575Y7584D01*
X5579Y7584D01*
X5582D01*
X5585Y7583D01*
X5585D01*
X5596Y7582D01*
X5605Y7581D01*
X5614Y7580D01*
X5622Y7579D01*
X5630Y7578D01*
X5636Y7577D01*
X5642Y7577D01*
X5648D01*
X5653Y7576D01*
X5657D01*
X5660Y7576D01*
X5672D01*
X5675Y7575D01*
X5677Y7575D01*
X5679Y7574D01*
X5680Y7573D01*
X5681Y7572D01*
X5680Y7570D01*
X5679Y7567D01*
X5677Y7565D01*
X5676Y7564D01*
X5675Y7564D01*
X5669Y7559D01*
X5664Y7556D01*
X5659Y7553D01*
X5655Y7551D01*
X5652Y7550D01*
X5650Y7549D01*
X5648Y7549D01*
X5648D01*
X5644Y7548D01*
X5638D01*
X5626Y7549D01*
X5621Y7550D01*
X5617Y7550D01*
X5614Y7551D01*
X5613D01*
X5608Y7552D01*
X5602Y7552D01*
X5591Y7555D01*
X5578Y7556D01*
X5566Y7559D01*
X5555Y7560D01*
X5550Y7561D01*
X5546Y7561D01*
X5543Y7562D01*
X5540D01*
X5539Y7562D01*
X5538D01*
X5528Y7564D01*
X5518Y7565D01*
X5495Y7567D01*
X5473Y7570D01*
X5461Y7571D01*
X5450Y7572D01*
X5440Y7573D01*
X5431Y7574D01*
X5423Y7575D01*
X5415Y7576D01*
X5409Y7576D01*
X5405D01*
X5402Y7577D01*
X5401D01*
X5385Y7578D01*
X5370Y7579D01*
X5356Y7580D01*
X5343Y7580D01*
X5330D01*
X5319Y7580D01*
X5309D01*
X5299Y7579D01*
X5291Y7579D01*
X5284Y7577D01*
X5277Y7577D01*
X5272Y7576D01*
X5268Y7576D01*
X5265Y7575D01*
X5263Y7575D01*
X5263D01*
X5253Y7573D01*
X5245Y7572D01*
X5238Y7571D01*
X5231Y7570D01*
X5226Y7570D01*
X5212D01*
X5209Y7570D01*
X5207Y7571D01*
X5203Y7571D01*
X5201Y7572D01*
X5201Y7572D01*
X5199Y7574D01*
X5198Y7576D01*
X5197Y7580D01*
X5198Y7583D01*
X5200Y7587D01*
X5202Y7590D01*
X5204Y7592D01*
X5206Y7594D01*
X5207Y7595D01*
X5213Y7599D01*
X5221Y7603D01*
X5228Y7606D01*
X5235Y7607D01*
X5241Y7609D01*
X5247Y7609D01*
X5250Y7610D01*
X5276D01*
X5287Y7609D01*
X5298Y7609D01*
X5311Y7608D01*
X5337Y7606D01*
X5349Y7606D01*
X5361Y7605D01*
X5372Y7604D01*
X5382Y7603D01*
X5389Y7603D01*
X5393Y7602D01*
X5395D01*
X5398Y7602D01*
X5401D01*
X5398Y7611D01*
X5394Y7618D01*
X5392Y7626D01*
X5389Y7632D01*
X5387Y7637D01*
X5384Y7642D01*
X5383Y7646D01*
X5381Y7650D01*
X5380Y7653D01*
X5379Y7655D01*
X5377Y7659D01*
X5376Y7661D01*
X5375Y7661D01*
X5370Y7669D01*
X5366Y7675D01*
X5364Y7678D01*
X5363Y7680D01*
X5362Y7681D01*
X5362Y7681D01*
X5360Y7685D01*
X5359Y7688D01*
X5360Y7692D01*
X5361Y7695D01*
X5363Y7698D01*
X5364Y7700D01*
X5365Y7702D01*
X5366Y7702D01*
X5371Y7706D01*
X5376Y7710D01*
X5382Y7712D01*
X5387Y7714D01*
X5392Y7716D01*
X5395Y7717D01*
X5398Y7717D01*
X5399D01*
X5402Y7718D01*
X5410D01*
X5412Y7717D01*
D02*
G37*
G36*
X2730Y7411D02*
X2731Y7410D01*
X2732Y7409D01*
X2733Y7407D01*
Y7403D01*
X2731Y7399D01*
X2729Y7395D01*
X2728Y7392D01*
X2727Y7391D01*
X2720Y7383D01*
X2713Y7375D01*
X2706Y7369D01*
X2700Y7363D01*
X2694Y7359D01*
X2690Y7355D01*
X2688Y7353D01*
X2686Y7353D01*
X2683Y7350D01*
X2679Y7349D01*
X2676Y7348D01*
X2671D01*
X2669Y7349D01*
X2665Y7352D01*
X2663Y7356D01*
X2662Y7359D01*
X2661Y7362D01*
Y7363D01*
X2660Y7368D01*
Y7372D01*
X2662Y7380D01*
X2664Y7386D01*
X2668Y7391D01*
X2671Y7395D01*
X2674Y7397D01*
X2676Y7399D01*
X2677Y7400D01*
X2685Y7403D01*
X2692Y7406D01*
X2699Y7409D01*
X2706Y7410D01*
X2712Y7411D01*
X2716Y7412D01*
X2719Y7412D01*
X2728D01*
X2730Y7411D01*
D02*
G37*
G36*
X1571Y7419D02*
X1574D01*
X1575Y7418D01*
X1576Y7416D01*
Y7413D01*
X1575Y7410D01*
X1574Y7408D01*
X1573Y7406D01*
X1572Y7405D01*
X1570Y7402D01*
X1568Y7397D01*
X1566Y7392D01*
X1565Y7386D01*
X1564Y7374D01*
X1563Y7361D01*
Y7348D01*
X1563Y7343D01*
Y7338D01*
Y7334D01*
X1564Y7331D01*
Y7329D01*
Y7328D01*
X1575Y7325D01*
X1586Y7322D01*
X1595Y7319D01*
X1603Y7318D01*
X1609Y7316D01*
X1614Y7315D01*
X1616Y7314D01*
X1618D01*
X1621Y7313D01*
X1624Y7312D01*
X1626Y7311D01*
X1628Y7310D01*
X1629Y7308D01*
Y7306D01*
X1628Y7304D01*
X1626Y7303D01*
X1624Y7301D01*
X1624Y7301D01*
X1618Y7298D01*
X1613Y7296D01*
X1608Y7295D01*
X1604Y7295D01*
X1601Y7294D01*
X1596D01*
X1592Y7295D01*
X1587Y7295D01*
X1577Y7298D01*
X1573Y7298D01*
X1569Y7299D01*
X1566Y7300D01*
X1566D01*
X1570Y7253D01*
X1581Y7250D01*
X1592Y7247D01*
X1601Y7244D01*
X1609Y7243D01*
X1616Y7241D01*
X1623Y7239D01*
X1629Y7238D01*
X1634Y7237D01*
X1638Y7237D01*
X1641Y7236D01*
X1644D01*
X1646Y7235D01*
X1649D01*
X1660Y7236D01*
X1673D01*
X1676Y7235D01*
X1679D01*
X1681Y7235D01*
X1682Y7234D01*
X1685Y7232D01*
Y7229D01*
X1684Y7226D01*
X1682Y7223D01*
X1680Y7220D01*
X1679Y7218D01*
X1679Y7218D01*
X1676Y7214D01*
X1673Y7209D01*
X1670Y7204D01*
X1667Y7198D01*
X1662Y7183D01*
X1656Y7169D01*
X1652Y7154D01*
X1650Y7148D01*
X1649Y7143D01*
X1647Y7138D01*
X1646Y7135D01*
X1645Y7132D01*
Y7132D01*
X1643Y7123D01*
X1639Y7116D01*
X1636Y7110D01*
X1634Y7106D01*
X1630Y7103D01*
X1628Y7101D01*
X1625Y7099D01*
X1621D01*
X1619Y7100D01*
X1615Y7102D01*
X1613Y7104D01*
X1613Y7106D01*
X1585Y7115D01*
X1584Y7108D01*
X1583Y7102D01*
X1583Y7094D01*
Y7088D01*
X1582Y7082D01*
Y7077D01*
Y7074D01*
Y7073D01*
Y7073D01*
X1603Y7067D01*
X1621Y7062D01*
X1638Y7058D01*
X1654Y7054D01*
X1667Y7051D01*
X1680Y7048D01*
X1691Y7046D01*
X1701Y7045D01*
X1709Y7043D01*
X1716Y7043D01*
X1722Y7042D01*
X1727D01*
X1730Y7041D01*
X1741D01*
X1746Y7041D01*
X1750Y7040D01*
X1754Y7038D01*
X1755Y7037D01*
X1756Y7035D01*
X1756Y7033D01*
X1756Y7031D01*
X1754Y7026D01*
X1751Y7023D01*
X1749Y7020D01*
X1747Y7020D01*
Y7019D01*
X1742Y7015D01*
X1738Y7012D01*
X1734Y7009D01*
X1730Y7007D01*
X1722Y7005D01*
X1717Y7005D01*
X1712Y7005D01*
X1709Y7006D01*
X1707Y7007D01*
X1706Y7007D01*
X1705Y7008D01*
X1702Y7010D01*
X1697Y7012D01*
X1690Y7016D01*
X1681Y7019D01*
X1671Y7022D01*
X1661Y7026D01*
X1639Y7033D01*
X1628Y7036D01*
X1618Y7040D01*
X1608Y7042D01*
X1599Y7045D01*
X1592Y7047D01*
X1587Y7048D01*
X1585Y7049D01*
X1583D01*
X1583Y7049D01*
X1582D01*
X1583Y7041D01*
X1583Y7032D01*
X1584Y7025D01*
Y7018D01*
X1584Y7012D01*
X1585Y7007D01*
X1585Y7002D01*
Y6998D01*
X1586Y6995D01*
Y6991D01*
X1586Y6987D01*
X1587Y6984D01*
Y6983D01*
X1588Y6977D01*
X1587Y6971D01*
X1586Y6964D01*
X1585Y6957D01*
X1584Y6952D01*
X1583Y6947D01*
X1582Y6945D01*
X1581Y6944D01*
Y6944D01*
X1580Y6940D01*
X1578Y6936D01*
X1576Y6935D01*
X1575Y6933D01*
X1573Y6932D01*
X1571D01*
X1568Y6934D01*
X1565Y6936D01*
X1563Y6939D01*
X1562Y6941D01*
X1561Y6942D01*
X1559Y6947D01*
X1558Y6954D01*
X1556Y6962D01*
X1555Y6970D01*
X1554Y6980D01*
X1553Y6989D01*
X1552Y7009D01*
Y7019D01*
Y7028D01*
X1551Y7037D01*
X1552Y7044D01*
Y7050D01*
Y7055D01*
Y7058D01*
Y7059D01*
X1542Y7062D01*
X1533Y7064D01*
X1525Y7066D01*
X1518Y7068D01*
X1511Y7069D01*
X1505Y7071D01*
X1501Y7072D01*
X1497Y7073D01*
X1493Y7074D01*
X1490Y7075D01*
X1488Y7076D01*
X1487Y7076D01*
X1484Y7077D01*
X1484D01*
X1480Y7079D01*
X1478Y7081D01*
X1477Y7083D01*
X1476Y7085D01*
X1477Y7088D01*
X1477Y7088D01*
Y7089D01*
X1479Y7091D01*
X1483Y7092D01*
X1487Y7093D01*
X1492D01*
X1496Y7092D01*
X1499Y7092D01*
X1502Y7091D01*
X1503D01*
X1511Y7089D01*
X1519Y7088D01*
X1528Y7086D01*
X1535Y7084D01*
X1542Y7082D01*
X1547Y7081D01*
X1549Y7081D01*
X1551D01*
X1551Y7080D01*
X1552D01*
Y7119D01*
X1519Y7127D01*
X1517Y7124D01*
X1513Y7123D01*
X1511Y7122D01*
X1508Y7122D01*
X1504Y7123D01*
X1500Y7124D01*
X1498Y7127D01*
X1496Y7130D01*
X1495Y7132D01*
X1494Y7133D01*
X1491Y7141D01*
X1488Y7149D01*
X1484Y7157D01*
X1480Y7165D01*
X1478Y7172D01*
X1475Y7177D01*
X1474Y7179D01*
X1474Y7180D01*
X1473Y7181D01*
Y7182D01*
X1468Y7192D01*
X1463Y7200D01*
X1458Y7208D01*
X1454Y7214D01*
X1450Y7218D01*
X1447Y7222D01*
X1445Y7223D01*
X1444Y7224D01*
X1442Y7227D01*
X1440Y7229D01*
X1440Y7232D01*
X1440Y7234D01*
X1442Y7237D01*
X1443Y7240D01*
X1448Y7245D01*
X1453Y7250D01*
X1458Y7254D01*
X1460Y7255D01*
X1462Y7257D01*
X1463Y7258D01*
X1463D01*
X1469Y7262D01*
X1475Y7264D01*
X1485Y7269D01*
X1493Y7272D01*
X1499Y7274D01*
X1504Y7274D01*
X1507D01*
X1508Y7274D01*
X1509D01*
X1513Y7272D01*
X1519Y7270D01*
X1531Y7266D01*
X1536Y7265D01*
X1540Y7264D01*
X1544Y7263D01*
X1544Y7263D01*
X1545D01*
X1538Y7307D01*
X1530Y7309D01*
X1523Y7310D01*
X1517Y7312D01*
X1511Y7314D01*
X1506Y7315D01*
X1502Y7316D01*
X1494Y7319D01*
X1489Y7320D01*
X1485Y7322D01*
X1483Y7323D01*
X1483Y7323D01*
X1478Y7326D01*
X1475Y7328D01*
X1473Y7330D01*
X1472Y7332D01*
X1472Y7334D01*
X1471Y7335D01*
Y7336D01*
X1472Y7338D01*
X1473Y7340D01*
X1477Y7343D01*
X1481Y7345D01*
X1482Y7345D01*
X1483D01*
X1485Y7346D01*
X1488D01*
X1495Y7345D01*
X1504Y7344D01*
X1513Y7342D01*
X1522Y7340D01*
X1525Y7339D01*
X1529Y7338D01*
X1532Y7336D01*
X1534Y7336D01*
X1535Y7335D01*
X1535D01*
X1534Y7343D01*
X1533Y7350D01*
X1531Y7357D01*
X1529Y7363D01*
X1528Y7368D01*
X1527Y7373D01*
X1525Y7376D01*
X1524Y7380D01*
X1522Y7385D01*
X1519Y7389D01*
X1518Y7391D01*
X1518Y7391D01*
X1516Y7394D01*
X1515Y7395D01*
X1514Y7397D01*
X1515Y7399D01*
X1516Y7402D01*
X1518Y7405D01*
X1522Y7407D01*
X1524Y7409D01*
X1526Y7409D01*
X1527Y7410D01*
X1541Y7414D01*
X1548Y7416D01*
X1554Y7417D01*
X1559Y7418D01*
X1563Y7419D01*
X1565Y7419D01*
X1566D01*
X1569Y7420D01*
X1571Y7419D01*
D02*
G37*
G36*
X948Y7381D02*
X953Y7381D01*
X955Y7380D01*
X957Y7379D01*
X958Y7378D01*
Y7377D01*
Y7377D01*
X957Y7374D01*
X955Y7370D01*
X952Y7365D01*
X949Y7361D01*
X946Y7356D01*
X944Y7353D01*
X942Y7350D01*
X941Y7349D01*
X934Y7342D01*
X928Y7336D01*
X922Y7331D01*
X918Y7328D01*
X914Y7325D01*
X910Y7323D01*
X909Y7323D01*
X908Y7322D01*
X903Y7321D01*
X899Y7321D01*
X896Y7323D01*
X894Y7325D01*
X892Y7328D01*
X891Y7330D01*
X890Y7332D01*
Y7333D01*
X889Y7339D01*
X890Y7344D01*
X890Y7350D01*
X892Y7354D01*
X893Y7358D01*
X894Y7361D01*
X895Y7363D01*
X896Y7363D01*
X900Y7368D01*
X905Y7372D01*
X912Y7375D01*
X918Y7377D01*
X924Y7379D01*
X928Y7380D01*
X932Y7381D01*
X933D01*
X937Y7381D01*
X942D01*
X945Y7382D01*
X948Y7381D01*
D02*
G37*
G36*
X801Y7422D02*
X802Y7420D01*
X803Y7418D01*
Y7416D01*
Y7413D01*
X803Y7411D01*
Y7411D01*
X802Y7407D01*
X802Y7404D01*
X802Y7396D01*
X803Y7386D01*
X805Y7376D01*
X807Y7368D01*
X808Y7364D01*
X809Y7360D01*
X810Y7358D01*
X811Y7355D01*
X811Y7354D01*
Y7354D01*
X816Y7339D01*
X822Y7325D01*
X827Y7313D01*
X832Y7303D01*
X836Y7294D01*
X838Y7291D01*
X839Y7288D01*
X841Y7286D01*
X842Y7284D01*
X843Y7284D01*
Y7283D01*
X846Y7278D01*
X848Y7274D01*
X849Y7271D01*
X851Y7269D01*
X851Y7266D01*
X851Y7265D01*
X849Y7264D01*
X848Y7263D01*
X846Y7264D01*
X843Y7264D01*
X843Y7265D01*
X836Y7269D01*
X828Y7275D01*
X821Y7281D01*
X814Y7288D01*
X808Y7295D01*
X804Y7300D01*
X802Y7302D01*
X801Y7304D01*
X800Y7304D01*
Y7305D01*
X789Y7302D01*
X779Y7300D01*
X769Y7299D01*
X760Y7299D01*
X751D01*
X745Y7299D01*
X743D01*
X741Y7300D01*
X740D01*
X727Y7302D01*
X716Y7304D01*
X705Y7307D01*
X696Y7309D01*
X687Y7312D01*
X681Y7314D01*
X679Y7314D01*
X677Y7315D01*
X677Y7315D01*
X676D01*
X671Y7318D01*
X667Y7319D01*
X663Y7321D01*
X661Y7324D01*
X660Y7325D01*
X659Y7328D01*
X658Y7331D01*
X660Y7334D01*
X661Y7336D01*
X663Y7338D01*
X663Y7339D01*
X667Y7341D01*
X670Y7343D01*
X677Y7344D01*
X685Y7345D01*
X691Y7344D01*
X697Y7343D01*
X701Y7341D01*
X705Y7340D01*
X705Y7340D01*
X706D01*
X711Y7338D01*
X717Y7335D01*
X723Y7333D01*
X730Y7331D01*
X745Y7326D01*
X760Y7323D01*
X767Y7321D01*
X773Y7319D01*
X779Y7318D01*
X785Y7316D01*
X789Y7315D01*
X793Y7315D01*
X795Y7314D01*
X796D01*
X791Y7324D01*
X786Y7334D01*
X782Y7342D01*
X779Y7349D01*
X776Y7355D01*
X774Y7359D01*
X773Y7362D01*
X772Y7363D01*
X769Y7370D01*
X766Y7376D01*
X762Y7382D01*
X760Y7386D01*
X758Y7389D01*
X756Y7391D01*
X755Y7392D01*
X755Y7392D01*
X753Y7394D01*
X752Y7396D01*
Y7399D01*
X753Y7401D01*
X756Y7404D01*
X758Y7406D01*
X761Y7408D01*
X762Y7409D01*
X763Y7410D01*
X769Y7413D01*
X774Y7416D01*
X779Y7418D01*
X784Y7420D01*
X788Y7421D01*
X791Y7422D01*
X793Y7422D01*
X793D01*
X798Y7423D01*
X801Y7422D01*
D02*
G37*
G36*
X1078Y7373D02*
X1079Y7373D01*
X1082Y7371D01*
X1083Y7368D01*
Y7365D01*
X1081Y7363D01*
X1081Y7360D01*
X1080Y7360D01*
X1072Y7347D01*
X1068Y7341D01*
X1064Y7336D01*
X1060Y7332D01*
X1058Y7329D01*
X1056Y7326D01*
X1055Y7326D01*
X1050Y7321D01*
X1046Y7317D01*
X1041Y7314D01*
X1038Y7311D01*
X1035Y7309D01*
X1033Y7308D01*
X1031Y7307D01*
X1031D01*
X1029Y7306D01*
X1027D01*
X1024Y7308D01*
X1021Y7311D01*
X1019Y7314D01*
X1018Y7318D01*
X1017Y7321D01*
X1016Y7324D01*
Y7325D01*
X1015Y7333D01*
X1015Y7339D01*
X1018Y7345D01*
X1020Y7350D01*
X1023Y7353D01*
X1025Y7355D01*
X1027Y7357D01*
X1028Y7358D01*
X1034Y7361D01*
X1040Y7364D01*
X1047Y7367D01*
X1054Y7369D01*
X1059Y7370D01*
X1064Y7371D01*
X1066Y7373D01*
X1068D01*
X1071Y7373D01*
X1075Y7374D01*
X1078Y7373D01*
D02*
G37*
G36*
X4307Y7369D02*
X4314D01*
X4316Y7368D01*
X4318D01*
X4319Y7368D01*
X4320D01*
X4324Y7367D01*
X4328Y7366D01*
X4338Y7365D01*
X4350Y7363D01*
X4363Y7361D01*
X4377Y7359D01*
X4391Y7356D01*
X4421Y7353D01*
X4436Y7350D01*
X4450Y7348D01*
X4462Y7346D01*
X4473Y7345D01*
X4482Y7344D01*
X4486Y7343D01*
X4489D01*
X4492Y7343D01*
X4494Y7342D01*
X4495D01*
X4513Y7339D01*
X4530Y7336D01*
X4546Y7334D01*
X4561Y7332D01*
X4575Y7330D01*
X4587Y7328D01*
X4599Y7327D01*
X4610Y7325D01*
X4619Y7324D01*
X4627Y7323D01*
X4635Y7323D01*
X4640Y7322D01*
X4645Y7321D01*
X4648Y7321D01*
X4651D01*
X4661Y7320D01*
X4670Y7319D01*
X4678D01*
X4686Y7319D01*
X4692Y7318D01*
X4698D01*
X4703Y7318D01*
X4725D01*
X4728Y7317D01*
X4729Y7316D01*
X4730Y7314D01*
Y7313D01*
Y7311D01*
X4729Y7311D01*
Y7310D01*
X4727Y7308D01*
X4724Y7304D01*
X4717Y7298D01*
X4713Y7296D01*
X4710Y7294D01*
X4708Y7293D01*
X4707Y7292D01*
X4700Y7289D01*
X4692Y7287D01*
X4684Y7286D01*
X4676Y7285D01*
X4669Y7286D01*
X4664Y7286D01*
X4662D01*
X4660Y7287D01*
X4659D01*
X4652Y7288D01*
X4645Y7290D01*
X4635Y7291D01*
X4625Y7293D01*
X4614Y7294D01*
X4602Y7296D01*
X4580Y7299D01*
X4568Y7301D01*
X4558Y7303D01*
X4548Y7304D01*
X4540Y7305D01*
X4533Y7306D01*
X4527Y7306D01*
X4524Y7307D01*
X4523D01*
X4521Y7305D01*
X4520Y7303D01*
X4519Y7296D01*
Y7289D01*
X4519Y7281D01*
X4520Y7274D01*
X4521Y7268D01*
X4521Y7266D01*
Y7264D01*
X4522Y7263D01*
Y7263D01*
X4526Y7249D01*
X4530Y7234D01*
X4536Y7220D01*
X4541Y7207D01*
X4543Y7200D01*
X4546Y7195D01*
X4548Y7190D01*
X4550Y7185D01*
X4551Y7182D01*
X4552Y7179D01*
X4553Y7178D01*
X4553Y7177D01*
X4563Y7158D01*
X4573Y7141D01*
X4583Y7124D01*
X4588Y7116D01*
X4593Y7109D01*
X4597Y7102D01*
X4601Y7096D01*
X4605Y7091D01*
X4608Y7087D01*
X4611Y7083D01*
X4613Y7081D01*
X4614Y7079D01*
X4615Y7078D01*
X4628Y7061D01*
X4643Y7045D01*
X4656Y7031D01*
X4663Y7025D01*
X4669Y7019D01*
X4674Y7014D01*
X4679Y7010D01*
X4684Y7005D01*
X4688Y7002D01*
X4691Y6999D01*
X4693Y6997D01*
X4694Y6996D01*
X4695Y6996D01*
X4702Y6990D01*
X4708Y6985D01*
X4712Y6981D01*
X4716Y6977D01*
X4718Y6975D01*
X4718Y6973D01*
X4719Y6972D01*
X4718Y6971D01*
X4716D01*
X4713Y6971D01*
X4711Y6972D01*
X4710Y6972D01*
X4709D01*
X4698Y6977D01*
X4688Y6982D01*
X4678Y6987D01*
X4669Y6992D01*
X4662Y6997D01*
X4656Y7001D01*
X4653Y7002D01*
X4652Y7003D01*
X4651Y7004D01*
X4651D01*
X4640Y7012D01*
X4630Y7020D01*
X4621Y7027D01*
X4613Y7035D01*
X4606Y7041D01*
X4601Y7046D01*
X4598Y7049D01*
X4597Y7050D01*
Y7051D01*
X4588Y7061D01*
X4579Y7072D01*
X4571Y7083D01*
X4564Y7092D01*
X4558Y7101D01*
X4556Y7104D01*
X4554Y7108D01*
X4552Y7111D01*
X4551Y7112D01*
X4550Y7113D01*
Y7114D01*
X4542Y7128D01*
X4534Y7143D01*
X4526Y7158D01*
X4519Y7171D01*
X4516Y7178D01*
X4513Y7183D01*
X4510Y7188D01*
X4508Y7193D01*
X4506Y7197D01*
X4505Y7199D01*
X4504Y7201D01*
Y7202D01*
X4495Y7197D01*
X4486Y7193D01*
X4479Y7191D01*
X4472Y7190D01*
X4467Y7190D01*
X4464Y7190D01*
X4461Y7191D01*
X4460D01*
X4446Y7195D01*
X4439Y7197D01*
X4432Y7198D01*
X4426Y7199D01*
X4422Y7200D01*
X4419Y7200D01*
X4418D01*
X4410Y7201D01*
X4404Y7199D01*
X4399Y7197D01*
X4395Y7194D01*
X4393Y7190D01*
X4391Y7188D01*
X4390Y7185D01*
Y7185D01*
X4389Y7177D01*
Y7168D01*
X4389Y7158D01*
X4391Y7148D01*
X4392Y7139D01*
X4393Y7136D01*
X4394Y7132D01*
X4394Y7129D01*
X4395Y7127D01*
X4395Y7126D01*
Y7126D01*
X4399Y7111D01*
X4404Y7096D01*
X4408Y7082D01*
X4413Y7070D01*
X4414Y7065D01*
X4416Y7060D01*
X4418Y7056D01*
X4419Y7052D01*
X4420Y7049D01*
X4421Y7047D01*
X4421Y7046D01*
Y7046D01*
X4424Y7039D01*
X4427Y7033D01*
X4430Y7027D01*
X4433Y7022D01*
X4435Y7018D01*
X4437Y7015D01*
X4442Y7008D01*
X4446Y7005D01*
X4449Y7002D01*
X4451Y7001D01*
X4452Y7000D01*
X4459Y6998D01*
X4466Y6999D01*
X4475Y7000D01*
X4484Y7002D01*
X4492Y7005D01*
X4499Y7007D01*
X4501Y7008D01*
X4503Y7009D01*
X4504Y7010D01*
X4505D01*
X4511Y7012D01*
X4516Y7014D01*
X4519Y7015D01*
X4521D01*
X4523Y7014D01*
X4524Y7013D01*
X4523Y7012D01*
X4522Y7010D01*
X4520Y7006D01*
X4516Y7002D01*
X4514Y6999D01*
X4513Y6998D01*
X4512Y6998D01*
X4507Y6993D01*
X4502Y6987D01*
X4499Y6982D01*
X4495Y6978D01*
X4490Y6968D01*
X4486Y6961D01*
X4483Y6954D01*
X4481Y6949D01*
X4481Y6946D01*
Y6945D01*
Y6945D01*
X4480Y6940D01*
X4479Y6937D01*
X4476Y6935D01*
X4474Y6934D01*
X4471Y6934D01*
X4467D01*
X4461Y6935D01*
X4454Y6938D01*
X4448Y6941D01*
X4446Y6942D01*
X4444Y6944D01*
X4443Y6945D01*
X4442D01*
X4436Y6950D01*
X4430Y6955D01*
X4418Y6968D01*
X4409Y6981D01*
X4401Y6995D01*
X4395Y7007D01*
X4392Y7012D01*
X4390Y7017D01*
X4389Y7020D01*
X4388Y7023D01*
X4386Y7025D01*
Y7026D01*
X4380Y7046D01*
X4374Y7065D01*
X4371Y7073D01*
X4369Y7082D01*
X4367Y7089D01*
X4365Y7096D01*
X4364Y7102D01*
X4363Y7107D01*
X4361Y7112D01*
X4361Y7116D01*
X4360Y7119D01*
Y7122D01*
X4359Y7123D01*
Y7123D01*
X4358Y7131D01*
X4356Y7138D01*
X4355Y7144D01*
X4353Y7149D01*
X4351Y7154D01*
X4349Y7159D01*
X4346Y7166D01*
X4343Y7172D01*
X4340Y7175D01*
X4339Y7178D01*
X4338Y7178D01*
X4336Y7181D01*
X4334Y7183D01*
X4332Y7188D01*
X4331Y7193D01*
X4332Y7196D01*
X4333Y7199D01*
X4334Y7202D01*
X4335Y7203D01*
X4336Y7204D01*
X4340Y7208D01*
X4345Y7212D01*
X4355Y7219D01*
X4360Y7222D01*
X4363Y7223D01*
X4365Y7224D01*
X4366Y7225D01*
X4373Y7228D01*
X4379Y7229D01*
X4385Y7230D01*
X4393D01*
X4396Y7229D01*
X4398Y7228D01*
X4398D01*
X4401Y7227D01*
X4404Y7226D01*
X4411Y7224D01*
X4420Y7223D01*
X4428Y7221D01*
X4436Y7219D01*
X4442Y7219D01*
X4445Y7218D01*
X4447Y7218D01*
X4449D01*
X4455Y7217D01*
X4461Y7217D01*
X4467Y7216D01*
X4480D01*
X4487Y7217D01*
X4492Y7217D01*
X4495Y7218D01*
X4497Y7218D01*
X4497D01*
X4494Y7229D01*
X4490Y7238D01*
X4487Y7246D01*
X4485Y7253D01*
X4482Y7259D01*
X4480Y7264D01*
X4478Y7269D01*
X4477Y7273D01*
X4475Y7275D01*
X4475Y7278D01*
X4473Y7281D01*
X4472Y7283D01*
Y7283D01*
X4471Y7285D01*
Y7286D01*
X4473Y7290D01*
X4476Y7295D01*
X4480Y7300D01*
X4485Y7304D01*
X4489Y7308D01*
X4491Y7310D01*
X4492Y7311D01*
X4492D01*
X4478Y7314D01*
X4464Y7315D01*
X4451Y7318D01*
X4438Y7319D01*
X4426Y7320D01*
X4415Y7321D01*
X4405Y7323D01*
X4395Y7323D01*
X4387Y7324D01*
X4380Y7325D01*
X4373D01*
X4368Y7325D01*
X4364Y7326D01*
X4358D01*
X4348Y7326D01*
X4339D01*
X4330Y7327D01*
X4322D01*
X4314Y7328D01*
X4302D01*
X4296Y7328D01*
X4264D01*
X4257Y7329D01*
X4250Y7330D01*
X4246Y7331D01*
X4243Y7332D01*
X4241Y7333D01*
X4240Y7334D01*
X4239Y7335D01*
Y7336D01*
X4240Y7340D01*
X4244Y7344D01*
X4248Y7348D01*
X4252Y7351D01*
X4255Y7354D01*
X4258Y7356D01*
X4258Y7357D01*
X4259D01*
X4263Y7360D01*
X4268Y7363D01*
X4278Y7366D01*
X4288Y7368D01*
X4298Y7369D01*
X4307Y7369D01*
D02*
G37*
G36*
X3909Y7414D02*
X3911Y7412D01*
X3913Y7411D01*
X3914Y7410D01*
X3915Y7406D01*
X3914Y7401D01*
X3914Y7397D01*
X3912Y7395D01*
X3912Y7394D01*
Y7394D01*
X3908Y7384D01*
X3905Y7374D01*
X3904Y7364D01*
X3902Y7354D01*
X3901Y7346D01*
Y7339D01*
Y7337D01*
Y7335D01*
Y7334D01*
Y7334D01*
Y7327D01*
X3902Y7320D01*
X3903Y7304D01*
X3905Y7286D01*
X3906Y7270D01*
X3907Y7263D01*
X3907Y7255D01*
X3908Y7249D01*
X3909Y7243D01*
X3909Y7239D01*
Y7235D01*
X3910Y7233D01*
Y7232D01*
X3924Y7231D01*
X3938Y7229D01*
X3951Y7228D01*
X3964Y7227D01*
X3975Y7226D01*
X3985Y7225D01*
X3995Y7224D01*
X4004Y7223D01*
X4012Y7223D01*
X4018Y7222D01*
X4025Y7222D01*
X4030Y7221D01*
X4033Y7220D01*
X4036Y7220D01*
X4038D01*
X4056Y7219D01*
X4072Y7218D01*
X4086Y7217D01*
X4109D01*
X4113Y7218D01*
X4118D01*
X4123Y7218D01*
X4128Y7218D01*
X4131D01*
X4133Y7217D01*
X4135Y7216D01*
X4136Y7215D01*
X4137Y7212D01*
X4136Y7210D01*
X4134Y7207D01*
X4133Y7205D01*
X4132Y7205D01*
X4126Y7200D01*
X4121Y7195D01*
X4115Y7192D01*
X4111Y7190D01*
X4107Y7188D01*
X4104Y7187D01*
X4102Y7186D01*
X4102D01*
X4091Y7184D01*
X4076D01*
X4072Y7185D01*
X4069D01*
X4061Y7186D01*
X4053Y7187D01*
X4045Y7189D01*
X4036Y7190D01*
X4028Y7192D01*
X4023Y7192D01*
X4021Y7193D01*
X4019Y7193D01*
X4017D01*
X4011Y7194D01*
X4003Y7195D01*
X3988Y7198D01*
X3971Y7200D01*
X3955Y7202D01*
X3947Y7203D01*
X3940Y7204D01*
X3934Y7205D01*
X3928Y7205D01*
X3924Y7206D01*
X3920D01*
X3917Y7207D01*
X3917D01*
X3918Y7194D01*
X3919Y7182D01*
X3921Y7169D01*
X3922Y7158D01*
X3923Y7148D01*
X3924Y7138D01*
X3925Y7129D01*
X3926Y7122D01*
X3927Y7114D01*
X3928Y7108D01*
X3929Y7102D01*
X3930Y7098D01*
X3930Y7094D01*
Y7092D01*
X3931Y7090D01*
Y7089D01*
X3939Y7088D01*
X3945Y7087D01*
X3952Y7087D01*
X3958Y7086D01*
X3968Y7085D01*
X3986D01*
X3989Y7086D01*
X3990D01*
X4001Y7088D01*
X4007Y7089D01*
X4012Y7089D01*
X4016Y7090D01*
X4020Y7091D01*
X4025D01*
X4027Y7090D01*
X4028Y7089D01*
X4030Y7088D01*
X4030Y7085D01*
X4030Y7082D01*
X4028Y7078D01*
X4026Y7075D01*
X4025Y7073D01*
X4025Y7072D01*
X4022Y7068D01*
X4020Y7063D01*
X4017Y7057D01*
X4015Y7051D01*
X4012Y7038D01*
X4008Y7025D01*
X4006Y7013D01*
X4006Y7007D01*
X4005Y7003D01*
X4004Y6999D01*
Y6996D01*
X4003Y6994D01*
Y6993D01*
X4002Y6983D01*
X4001Y6973D01*
X3999Y6965D01*
X3997Y6958D01*
X3996Y6951D01*
X3995Y6946D01*
X3993Y6941D01*
X3992Y6937D01*
X3991Y6933D01*
X3990Y6930D01*
X3988Y6928D01*
X3987Y6926D01*
X3986Y6924D01*
X3986Y6924D01*
X3984Y6922D01*
X3982Y6921D01*
X3980D01*
X3978Y6921D01*
X3976Y6923D01*
X3975Y6925D01*
X3972Y6929D01*
X3969Y6934D01*
X3967Y6938D01*
X3966Y6941D01*
X3966Y6942D01*
Y6942D01*
X3952Y6943D01*
X3939Y6944D01*
X3926Y6944D01*
X3914Y6945D01*
X3903Y6945D01*
X3892D01*
X3882Y6946D01*
X3873D01*
X3864Y6946D01*
X3856D01*
X3841Y6947D01*
X3829D01*
X3818Y6947D01*
X3796D01*
X3791Y6947D01*
X3779D01*
X3776Y6947D01*
X3774Y6949D01*
X3773Y6951D01*
X3772Y6953D01*
X3773Y6956D01*
X3774Y6959D01*
X3775Y6962D01*
X3779Y6968D01*
X3783Y6973D01*
X3785Y6976D01*
X3786Y6977D01*
X3788Y6978D01*
X3788Y6979D01*
X3784Y6988D01*
X3780Y6997D01*
X3776Y7005D01*
X3773Y7011D01*
X3769Y7018D01*
X3765Y7023D01*
X3762Y7028D01*
X3759Y7032D01*
X3755Y7036D01*
X3753Y7039D01*
X3749Y7043D01*
X3746Y7046D01*
X3745Y7047D01*
X3741Y7050D01*
X3738Y7053D01*
X3737Y7056D01*
X3735Y7059D01*
X3735Y7062D01*
Y7064D01*
X3737Y7069D01*
X3739Y7073D01*
X3742Y7077D01*
X3744Y7079D01*
X3745Y7079D01*
X3753Y7086D01*
X3762Y7091D01*
X3769Y7095D01*
X3776Y7099D01*
X3782Y7102D01*
X3786Y7104D01*
X3789Y7105D01*
X3790Y7106D01*
X3799Y7108D01*
X3806Y7110D01*
X3814Y7111D01*
X3820Y7110D01*
X3825Y7109D01*
X3828Y7109D01*
X3831Y7108D01*
X3831Y7108D01*
X3835Y7107D01*
X3839Y7106D01*
X3849Y7103D01*
X3860Y7101D01*
X3871Y7098D01*
X3881Y7097D01*
X3886Y7096D01*
X3890Y7095D01*
X3894Y7094D01*
X3896D01*
X3897Y7094D01*
X3898D01*
X3895Y7109D01*
X3893Y7123D01*
X3891Y7136D01*
X3889Y7148D01*
X3887Y7158D01*
X3886Y7167D01*
X3884Y7175D01*
X3883Y7183D01*
X3882Y7189D01*
X3881Y7195D01*
X3881Y7199D01*
X3880Y7203D01*
X3880Y7205D01*
X3879Y7207D01*
Y7208D01*
Y7209D01*
X3867Y7210D01*
X3855Y7210D01*
X3844Y7211D01*
X3833Y7212D01*
X3823Y7213D01*
X3814Y7213D01*
X3805Y7214D01*
X3797Y7214D01*
X3790Y7215D01*
X3784Y7215D01*
X3779D01*
X3774Y7216D01*
X3770D01*
X3768Y7217D01*
X3766D01*
X3749Y7218D01*
X3732Y7218D01*
X3702D01*
X3695Y7218D01*
X3690D01*
X3684Y7217D01*
X3677D01*
X3674Y7217D01*
X3672D01*
X3664Y7216D01*
X3657D01*
X3650Y7217D01*
X3645Y7217D01*
X3642Y7218D01*
X3639Y7219D01*
X3636Y7220D01*
X3634Y7221D01*
X3633Y7223D01*
X3633Y7224D01*
Y7226D01*
Y7228D01*
X3633Y7228D01*
X3637Y7234D01*
X3642Y7239D01*
X3646Y7243D01*
X3650Y7246D01*
X3654Y7249D01*
X3658Y7250D01*
X3660Y7252D01*
X3660Y7252D01*
X3667Y7255D01*
X3674Y7256D01*
X3682Y7257D01*
X3688D01*
X3694Y7257D01*
X3698Y7256D01*
X3702Y7255D01*
X3703D01*
X3712Y7254D01*
X3723Y7252D01*
X3733Y7250D01*
X3743Y7249D01*
X3752Y7248D01*
X3755Y7247D01*
X3759D01*
X3761Y7247D01*
X3763Y7246D01*
X3765D01*
X3772Y7245D01*
X3780Y7244D01*
X3798Y7242D01*
X3816Y7240D01*
X3835Y7239D01*
X3843Y7238D01*
X3851Y7237D01*
X3859Y7236D01*
X3865Y7235D01*
X3870Y7235D01*
X3874D01*
X3876Y7234D01*
X3877D01*
X3875Y7245D01*
X3874Y7256D01*
X3872Y7266D01*
X3870Y7275D01*
X3869Y7284D01*
X3867Y7292D01*
X3864Y7307D01*
X3862Y7320D01*
X3859Y7331D01*
X3857Y7340D01*
X3855Y7348D01*
X3854Y7354D01*
X3852Y7360D01*
X3850Y7364D01*
X3849Y7366D01*
X3849Y7368D01*
X3848Y7370D01*
X3848Y7370D01*
X3846Y7373D01*
X3845Y7375D01*
X3844Y7380D01*
X3845Y7385D01*
X3848Y7388D01*
X3850Y7391D01*
X3853Y7394D01*
X3855Y7395D01*
X3856Y7396D01*
X3863Y7400D01*
X3870Y7404D01*
X3878Y7406D01*
X3885Y7409D01*
X3890Y7411D01*
X3895Y7412D01*
X3898Y7413D01*
X3899D01*
X3903Y7414D01*
X3907Y7414D01*
X3909Y7414D01*
D02*
G37*
G36*
X3400Y7405D02*
X3401Y7404D01*
X3402Y7402D01*
Y7399D01*
X3402Y7396D01*
X3401Y7394D01*
X3400Y7391D01*
X3399Y7391D01*
X3395Y7384D01*
X3391Y7377D01*
X3389Y7369D01*
X3386Y7362D01*
X3384Y7355D01*
X3383Y7350D01*
X3382Y7348D01*
X3382Y7346D01*
Y7346D01*
Y7345D01*
X3380Y7335D01*
X3378Y7324D01*
X3377Y7315D01*
X3376Y7306D01*
X3375Y7299D01*
X3375Y7293D01*
Y7291D01*
Y7289D01*
Y7289D01*
Y7288D01*
Y7283D01*
X3374Y7276D01*
Y7263D01*
X3374Y7248D01*
Y7233D01*
Y7227D01*
Y7220D01*
Y7214D01*
Y7209D01*
Y7205D01*
Y7202D01*
Y7200D01*
Y7199D01*
X3390Y7197D01*
X3406Y7194D01*
X3420Y7192D01*
X3433Y7190D01*
X3445Y7188D01*
X3456Y7187D01*
X3465Y7185D01*
X3473Y7185D01*
X3480Y7184D01*
X3486Y7184D01*
X3491Y7183D01*
X3495D01*
X3498Y7183D01*
X3508D01*
X3513Y7182D01*
X3516Y7182D01*
X3519Y7180D01*
X3521Y7179D01*
X3522Y7178D01*
Y7177D01*
Y7176D01*
X3520Y7173D01*
X3518Y7171D01*
X3516Y7169D01*
X3515Y7169D01*
X3507Y7164D01*
X3501Y7161D01*
X3495Y7159D01*
X3490Y7157D01*
X3486Y7157D01*
X3483Y7156D01*
X3481D01*
X3478Y7157D01*
X3473Y7157D01*
X3467Y7158D01*
X3460Y7159D01*
X3451Y7161D01*
X3442Y7162D01*
X3423Y7165D01*
X3414Y7167D01*
X3405Y7168D01*
X3396Y7170D01*
X3389Y7171D01*
X3382Y7172D01*
X3377Y7173D01*
X3375Y7174D01*
X3374D01*
X3375Y7153D01*
X3376Y7134D01*
X3377Y7116D01*
X3379Y7101D01*
X3380Y7086D01*
X3381Y7074D01*
X3382Y7063D01*
X3383Y7053D01*
X3384Y7045D01*
X3385Y7038D01*
X3386Y7032D01*
X3386Y7028D01*
X3387Y7025D01*
Y7022D01*
X3387Y7021D01*
Y7020D01*
X3390Y7008D01*
X3393Y6997D01*
X3396Y6988D01*
X3398Y6982D01*
X3400Y6977D01*
X3401Y6973D01*
X3402Y6971D01*
X3403Y6971D01*
X3405Y6966D01*
X3406Y6960D01*
Y6953D01*
X3405Y6947D01*
X3403Y6942D01*
X3402Y6938D01*
X3401Y6935D01*
X3400Y6935D01*
Y6934D01*
X3398Y6930D01*
X3396Y6927D01*
X3394Y6925D01*
X3391Y6924D01*
X3389Y6924D01*
X3386D01*
X3381Y6926D01*
X3377Y6929D01*
X3374Y6932D01*
X3371Y6934D01*
X3370Y6935D01*
X3366Y6940D01*
X3361Y6946D01*
X3351Y6957D01*
X3339Y6969D01*
X3327Y6980D01*
X3317Y6991D01*
X3312Y6995D01*
X3308Y6999D01*
X3305Y7002D01*
X3302Y7004D01*
X3300Y7006D01*
X3300Y7006D01*
X3291Y7014D01*
X3284Y7021D01*
X3278Y7027D01*
X3273Y7032D01*
X3269Y7036D01*
X3267Y7039D01*
X3265Y7041D01*
X3264Y7043D01*
X3263Y7045D01*
Y7045D01*
X3264Y7046D01*
X3266D01*
X3273Y7043D01*
X3280Y7040D01*
X3287Y7036D01*
X3294Y7032D01*
X3300Y7029D01*
X3306Y7026D01*
X3309Y7024D01*
X3310Y7023D01*
X3310D01*
X3320Y7018D01*
X3328Y7014D01*
X3334Y7011D01*
X3339Y7008D01*
X3343Y7007D01*
X3345Y7006D01*
X3346Y7005D01*
X3348D01*
X3349Y7006D01*
X3350Y7007D01*
X3351Y7008D01*
X3352Y7013D01*
X3352Y7018D01*
Y7023D01*
Y7028D01*
Y7032D01*
Y7032D01*
Y7033D01*
X3352Y7040D01*
X3351Y7048D01*
Y7058D01*
X3351Y7068D01*
X3350Y7080D01*
X3350Y7092D01*
X3349Y7117D01*
X3349Y7129D01*
Y7141D01*
X3348Y7151D01*
Y7160D01*
X3347Y7168D01*
Y7173D01*
Y7175D01*
Y7177D01*
Y7178D01*
Y7178D01*
X3329Y7180D01*
X3318Y7167D01*
X3307Y7154D01*
X3297Y7142D01*
X3288Y7131D01*
X3279Y7121D01*
X3271Y7111D01*
X3264Y7103D01*
X3258Y7095D01*
X3253Y7088D01*
X3248Y7082D01*
X3244Y7077D01*
X3240Y7073D01*
X3238Y7070D01*
X3236Y7067D01*
X3235Y7066D01*
X3234Y7066D01*
X3223Y7052D01*
X3213Y7040D01*
X3204Y7031D01*
X3197Y7023D01*
X3192Y7017D01*
X3187Y7013D01*
X3185Y7010D01*
X3184Y7010D01*
X3180Y7007D01*
X3175Y7005D01*
X3170Y7002D01*
X3164Y7001D01*
X3152Y6999D01*
X3139Y6998D01*
X3128Y6997D01*
X3114D01*
X3111Y6998D01*
X3109D01*
X3099Y6999D01*
X3089Y7000D01*
X3081Y7001D01*
X3074Y7002D01*
X3067Y7002D01*
X3061Y7003D01*
X3056Y7004D01*
X3052Y7005D01*
X3048Y7006D01*
X3044Y7006D01*
X3042Y7007D01*
X3040Y7007D01*
X3037Y7008D01*
X3037D01*
X3034Y7010D01*
X3032Y7011D01*
X3032Y7012D01*
Y7013D01*
X3032Y7014D01*
X3034Y7015D01*
X3037Y7017D01*
X3042Y7019D01*
X3046Y7020D01*
X3049Y7021D01*
X3050Y7021D01*
X3051D01*
X3062Y7024D01*
X3072Y7027D01*
X3082Y7030D01*
X3090Y7032D01*
X3098Y7035D01*
X3103Y7036D01*
X3105Y7037D01*
X3107Y7037D01*
X3107Y7038D01*
X3108D01*
X3118Y7042D01*
X3128Y7046D01*
X3138Y7051D01*
X3146Y7055D01*
X3154Y7059D01*
X3160Y7063D01*
X3162Y7064D01*
X3164Y7065D01*
X3164Y7066D01*
X3165D01*
X3177Y7073D01*
X3188Y7081D01*
X3199Y7089D01*
X3209Y7097D01*
X3218Y7104D01*
X3221Y7107D01*
X3225Y7110D01*
X3228Y7112D01*
X3229Y7114D01*
X3230Y7114D01*
X3231Y7115D01*
X3244Y7127D01*
X3258Y7138D01*
X3271Y7150D01*
X3284Y7161D01*
X3289Y7165D01*
X3294Y7169D01*
X3299Y7173D01*
X3303Y7177D01*
X3306Y7179D01*
X3308Y7181D01*
X3310Y7182D01*
X3310Y7183D01*
X3296Y7185D01*
X3282Y7188D01*
X3270Y7190D01*
X3258Y7192D01*
X3248Y7194D01*
X3238Y7195D01*
X3229Y7197D01*
X3221Y7198D01*
X3214Y7199D01*
X3208Y7200D01*
X3203Y7201D01*
X3199Y7202D01*
X3196Y7202D01*
X3194Y7203D01*
X3192D01*
X3178Y7205D01*
X3164Y7207D01*
X3151Y7208D01*
X3140Y7210D01*
X3130Y7211D01*
X3127D01*
X3123Y7212D01*
X3120D01*
X3119Y7212D01*
X3117D01*
X3111Y7213D01*
X3106Y7214D01*
X3103Y7215D01*
X3100Y7217D01*
X3099Y7218D01*
X3098Y7220D01*
Y7222D01*
X3099Y7223D01*
X3101Y7227D01*
X3104Y7229D01*
X3107Y7232D01*
X3107Y7232D01*
X3108D01*
X3113Y7235D01*
X3118Y7237D01*
X3127Y7240D01*
X3135Y7243D01*
X3143Y7243D01*
X3149D01*
X3154Y7243D01*
X3157Y7242D01*
X3158Y7242D01*
X3158D01*
X3168Y7239D01*
X3178Y7236D01*
X3189Y7233D01*
X3200Y7230D01*
X3209Y7228D01*
X3213Y7227D01*
X3216Y7227D01*
X3220Y7226D01*
X3222Y7225D01*
X3223Y7225D01*
X3224D01*
X3232Y7223D01*
X3241Y7221D01*
X3251Y7219D01*
X3261Y7217D01*
X3281Y7213D01*
X3301Y7210D01*
X3311Y7208D01*
X3319Y7207D01*
X3327Y7205D01*
X3334Y7204D01*
X3340Y7203D01*
X3344Y7202D01*
X3346Y7202D01*
X3347D01*
Y7220D01*
X3326Y7237D01*
X3306Y7252D01*
X3298Y7259D01*
X3289Y7266D01*
X3280Y7273D01*
X3273Y7280D01*
X3266Y7285D01*
X3260Y7291D01*
X3255Y7295D01*
X3251Y7299D01*
X3247Y7303D01*
X3245Y7305D01*
X3243Y7306D01*
X3243Y7307D01*
X3234Y7315D01*
X3226Y7322D01*
X3219Y7329D01*
X3212Y7334D01*
X3206Y7339D01*
X3200Y7343D01*
X3195Y7347D01*
X3192Y7350D01*
X3184Y7355D01*
X3179Y7358D01*
X3177Y7359D01*
X3175Y7360D01*
X3172Y7361D01*
X3170Y7363D01*
X3168Y7365D01*
X3167Y7367D01*
X3167Y7369D01*
X3167Y7370D01*
X3168Y7374D01*
X3171Y7377D01*
X3174Y7380D01*
X3175Y7381D01*
X3177Y7382D01*
X3184Y7387D01*
X3192Y7391D01*
X3198Y7395D01*
X3204Y7397D01*
X3209Y7400D01*
X3212Y7402D01*
X3215Y7402D01*
X3215Y7403D01*
X3219Y7404D01*
X3221Y7405D01*
X3225Y7404D01*
X3228Y7402D01*
X3230Y7399D01*
X3231Y7396D01*
Y7393D01*
Y7391D01*
Y7390D01*
Y7386D01*
X3231Y7382D01*
X3233Y7377D01*
X3235Y7372D01*
X3240Y7361D01*
X3246Y7351D01*
X3252Y7342D01*
X3255Y7338D01*
X3257Y7334D01*
X3259Y7331D01*
X3261Y7329D01*
X3262Y7328D01*
X3263Y7327D01*
X3276Y7310D01*
X3290Y7294D01*
X3304Y7279D01*
X3318Y7264D01*
X3324Y7258D01*
X3330Y7252D01*
X3335Y7247D01*
X3339Y7243D01*
X3342Y7239D01*
X3345Y7237D01*
X3347Y7235D01*
X3347Y7234D01*
Y7245D01*
Y7257D01*
Y7266D01*
X3347Y7276D01*
Y7285D01*
Y7293D01*
X3346Y7308D01*
X3346Y7321D01*
X3345Y7333D01*
X3344Y7342D01*
X3344Y7350D01*
X3343Y7356D01*
X3342Y7361D01*
X3341Y7365D01*
X3341Y7368D01*
X3340Y7369D01*
Y7371D01*
X3340Y7371D01*
X3339Y7374D01*
X3338Y7376D01*
Y7380D01*
X3340Y7384D01*
X3343Y7387D01*
X3346Y7390D01*
X3349Y7392D01*
X3351Y7393D01*
X3352Y7394D01*
X3360Y7397D01*
X3367Y7399D01*
X3374Y7401D01*
X3380Y7403D01*
X3385Y7404D01*
X3389Y7405D01*
X3391Y7405D01*
X3398D01*
X3400Y7405D01*
D02*
G37*
G36*
X1292Y7360D02*
X1293Y7359D01*
X1293D01*
X1297Y7357D01*
X1301Y7355D01*
X1310Y7351D01*
X1315Y7349D01*
X1318Y7348D01*
X1320Y7347D01*
X1321Y7346D01*
X1336Y7342D01*
X1343Y7340D01*
X1348Y7339D01*
X1354Y7338D01*
X1358Y7336D01*
X1360Y7336D01*
X1361D01*
X1368Y7335D01*
X1381D01*
X1386Y7335D01*
X1389Y7336D01*
X1392Y7336D01*
X1394Y7337D01*
X1395D01*
X1405Y7340D01*
X1409Y7341D01*
X1413Y7341D01*
X1416Y7342D01*
X1421D01*
X1424Y7341D01*
X1426Y7339D01*
Y7335D01*
X1425Y7331D01*
X1424Y7327D01*
X1422Y7323D01*
X1421Y7321D01*
X1421Y7320D01*
X1418Y7315D01*
X1417Y7310D01*
X1415Y7304D01*
X1414Y7296D01*
X1412Y7282D01*
X1411Y7268D01*
X1410Y7260D01*
X1409Y7254D01*
Y7248D01*
X1409Y7243D01*
Y7238D01*
Y7235D01*
Y7233D01*
Y7232D01*
X1409Y7208D01*
X1411Y7185D01*
X1411Y7175D01*
X1412Y7165D01*
X1413Y7156D01*
X1413Y7147D01*
X1414Y7139D01*
X1416Y7133D01*
X1416Y7127D01*
X1417Y7121D01*
X1417Y7117D01*
X1418Y7114D01*
X1418Y7112D01*
Y7112D01*
X1423Y7092D01*
X1428Y7072D01*
X1434Y7055D01*
X1437Y7047D01*
X1440Y7040D01*
X1443Y7033D01*
X1446Y7027D01*
X1448Y7021D01*
X1450Y7017D01*
X1452Y7013D01*
X1454Y7011D01*
X1454Y7009D01*
X1455Y7008D01*
X1465Y6992D01*
X1474Y6977D01*
X1479Y6971D01*
X1483Y6965D01*
X1487Y6959D01*
X1490Y6955D01*
X1494Y6950D01*
X1497Y6946D01*
X1500Y6944D01*
X1502Y6941D01*
X1504Y6939D01*
X1505Y6937D01*
X1506Y6937D01*
X1507Y6936D01*
X1510Y6932D01*
X1513Y6929D01*
X1515Y6927D01*
X1515Y6926D01*
Y6925D01*
X1515D01*
X1512Y6926D01*
X1507Y6927D01*
X1503Y6930D01*
X1499Y6932D01*
X1499Y6933D01*
X1498D01*
X1486Y6942D01*
X1474Y6951D01*
X1463Y6962D01*
X1454Y6972D01*
X1445Y6981D01*
X1442Y6985D01*
X1439Y6989D01*
X1437Y6992D01*
X1435Y6994D01*
X1434Y6995D01*
X1434Y6996D01*
X1428Y7004D01*
X1423Y7013D01*
X1418Y7023D01*
X1413Y7033D01*
X1404Y7054D01*
X1398Y7075D01*
X1395Y7084D01*
X1392Y7093D01*
X1391Y7101D01*
X1389Y7108D01*
X1387Y7114D01*
X1386Y7118D01*
X1386Y7121D01*
Y7122D01*
X1371Y7121D01*
X1359Y7120D01*
X1348Y7119D01*
X1339D01*
X1332Y7120D01*
X1327D01*
X1323Y7121D01*
X1322D01*
X1318Y7122D01*
X1315Y7122D01*
X1312Y7123D01*
X1311Y7125D01*
X1308Y7128D01*
X1307Y7131D01*
Y7133D01*
X1308Y7135D01*
X1309Y7137D01*
X1310Y7137D01*
X1314Y7141D01*
X1320Y7144D01*
X1325Y7146D01*
X1331Y7147D01*
X1336Y7147D01*
X1339D01*
X1342Y7147D01*
X1343D01*
X1352Y7146D01*
X1359Y7145D01*
X1366Y7144D01*
X1372D01*
X1377Y7143D01*
X1383D01*
X1382Y7158D01*
X1381Y7172D01*
X1379Y7184D01*
X1379Y7195D01*
X1378Y7205D01*
Y7209D01*
Y7212D01*
Y7215D01*
Y7217D01*
Y7218D01*
Y7218D01*
X1366Y7217D01*
X1354Y7216D01*
X1337D01*
X1330Y7217D01*
X1325Y7217D01*
X1322Y7218D01*
X1321D01*
X1317Y7219D01*
X1315Y7220D01*
X1312Y7221D01*
X1310Y7223D01*
X1308Y7225D01*
X1307Y7228D01*
X1307Y7230D01*
X1308Y7233D01*
X1309Y7234D01*
X1310Y7234D01*
X1314Y7238D01*
X1319Y7240D01*
X1324Y7241D01*
X1329Y7242D01*
X1333Y7241D01*
X1337Y7240D01*
X1339Y7240D01*
X1340D01*
X1347Y7238D01*
X1354Y7237D01*
X1360Y7235D01*
X1366Y7235D01*
X1370D01*
X1373Y7234D01*
X1376D01*
Y7316D01*
X1364Y7319D01*
X1354Y7322D01*
X1344Y7324D01*
X1336Y7325D01*
X1329Y7327D01*
X1323Y7328D01*
X1317Y7329D01*
X1313Y7330D01*
X1309Y7330D01*
X1306Y7331D01*
X1303Y7331D01*
X1299D01*
X1297Y7331D01*
X1295Y7329D01*
X1293Y7327D01*
X1292Y7324D01*
X1290Y7317D01*
X1288Y7309D01*
X1287Y7301D01*
X1287Y7295D01*
X1286Y7292D01*
Y7290D01*
Y7289D01*
Y7288D01*
Y7280D01*
X1286Y7271D01*
Y7252D01*
X1285Y7231D01*
Y7212D01*
Y7203D01*
Y7194D01*
Y7187D01*
Y7180D01*
Y7174D01*
Y7170D01*
Y7168D01*
Y7167D01*
Y7040D01*
Y7032D01*
Y7025D01*
X1286Y7018D01*
X1286Y7012D01*
X1287Y7007D01*
Y7003D01*
X1287Y7000D01*
X1288Y6996D01*
X1289Y6992D01*
X1290Y6989D01*
X1291Y6988D01*
X1291Y6987D01*
X1292Y6986D01*
X1295Y6986D01*
X1299D01*
X1305Y6986D01*
X1311Y6987D01*
X1317Y6988D01*
X1322Y6990D01*
X1326Y6990D01*
X1327Y6991D01*
X1327D01*
X1332Y6992D01*
X1337Y6993D01*
X1340Y6994D01*
X1344D01*
X1345Y6993D01*
X1346Y6992D01*
X1346Y6990D01*
X1344Y6988D01*
X1343Y6987D01*
X1342Y6986D01*
X1332Y6976D01*
X1327Y6971D01*
X1323Y6967D01*
X1320Y6963D01*
X1317Y6961D01*
X1315Y6959D01*
X1315Y6958D01*
X1310Y6953D01*
X1305Y6947D01*
X1301Y6940D01*
X1298Y6934D01*
X1296Y6929D01*
X1293Y6924D01*
X1292Y6921D01*
X1292Y6921D01*
Y6920D01*
X1290Y6916D01*
X1288Y6913D01*
X1286Y6911D01*
X1284Y6909D01*
X1282Y6908D01*
X1280D01*
X1277Y6909D01*
X1273Y6911D01*
X1271Y6914D01*
X1269Y6915D01*
X1268Y6916D01*
X1263Y6924D01*
X1260Y6931D01*
X1257Y6938D01*
X1254Y6945D01*
X1252Y6950D01*
X1251Y6953D01*
X1250Y6956D01*
Y6957D01*
X1250Y6961D01*
X1248Y6967D01*
Y6974D01*
X1248Y6982D01*
Y6991D01*
X1248Y7000D01*
X1249Y7018D01*
Y7027D01*
X1250Y7035D01*
X1250Y7043D01*
Y7049D01*
X1251Y7055D01*
X1251Y7059D01*
Y7062D01*
Y7063D01*
X1253Y7095D01*
X1253Y7111D01*
X1254Y7125D01*
X1255Y7139D01*
Y7152D01*
X1255Y7164D01*
Y7176D01*
Y7187D01*
Y7196D01*
Y7204D01*
X1255Y7211D01*
Y7217D01*
Y7220D01*
Y7223D01*
Y7224D01*
X1254Y7237D01*
X1253Y7249D01*
X1252Y7259D01*
X1251Y7269D01*
X1250Y7277D01*
X1248Y7284D01*
X1247Y7290D01*
X1245Y7296D01*
X1243Y7300D01*
X1242Y7304D01*
X1241Y7307D01*
X1240Y7309D01*
X1238Y7311D01*
X1238Y7312D01*
X1237Y7313D01*
X1235Y7315D01*
X1233Y7318D01*
X1231Y7321D01*
X1231Y7323D01*
X1230Y7328D01*
X1231Y7331D01*
X1232Y7334D01*
X1233Y7336D01*
X1235Y7337D01*
X1236Y7338D01*
X1246Y7344D01*
X1252Y7348D01*
X1257Y7350D01*
X1261Y7353D01*
X1265Y7354D01*
X1267Y7355D01*
X1267Y7356D01*
X1273Y7359D01*
X1279Y7360D01*
X1283Y7361D01*
X1290D01*
X1292Y7360D01*
D02*
G37*
G36*
X887Y7280D02*
X889Y7280D01*
X890D01*
X899Y7278D01*
X908Y7275D01*
X918Y7272D01*
X927Y7270D01*
X935Y7268D01*
X939Y7266D01*
X942Y7265D01*
X944Y7265D01*
X947Y7264D01*
X948Y7264D01*
X948D01*
X962Y7260D01*
X974Y7257D01*
X985Y7254D01*
X995Y7252D01*
X1003Y7250D01*
X1009Y7248D01*
X1011Y7248D01*
X1013D01*
X1013Y7247D01*
X1014D01*
X1018Y7246D01*
X1022Y7245D01*
X1025Y7244D01*
X1028Y7243D01*
X1029Y7242D01*
X1030Y7240D01*
X1030Y7238D01*
X1030Y7236D01*
X1028Y7235D01*
X1027Y7234D01*
X1026Y7233D01*
X1021Y7230D01*
X1015Y7229D01*
X1010Y7228D01*
X1005Y7227D01*
X996D01*
X984Y7229D01*
X979Y7229D01*
X974D01*
X970Y7230D01*
X964D01*
X965Y7214D01*
X968Y7199D01*
X972Y7185D01*
X976Y7173D01*
X978Y7167D01*
X980Y7162D01*
X982Y7158D01*
X984Y7154D01*
X985Y7151D01*
X987Y7148D01*
X987Y7147D01*
X988Y7147D01*
X996Y7132D01*
X1004Y7118D01*
X1012Y7107D01*
X1019Y7097D01*
X1024Y7088D01*
X1026Y7085D01*
X1028Y7082D01*
X1030Y7080D01*
X1031Y7078D01*
X1032Y7078D01*
Y7077D01*
X1040Y7067D01*
X1046Y7058D01*
X1053Y7051D01*
X1058Y7045D01*
X1063Y7040D01*
X1066Y7036D01*
X1068Y7033D01*
X1069Y7033D01*
X1071Y7030D01*
X1072Y7028D01*
X1073Y7027D01*
Y7026D01*
X1071Y7026D01*
X1070D01*
X1066Y7027D01*
X1061Y7028D01*
X1056Y7031D01*
X1053Y7032D01*
X1053Y7033D01*
X1052D01*
X1046Y7036D01*
X1040Y7041D01*
X1028Y7050D01*
X1018Y7061D01*
X1008Y7072D01*
X999Y7082D01*
X995Y7087D01*
X992Y7091D01*
X990Y7094D01*
X988Y7096D01*
X987Y7098D01*
X987Y7098D01*
X975Y7116D01*
X965Y7132D01*
X957Y7146D01*
X954Y7152D01*
X951Y7158D01*
X949Y7163D01*
X947Y7168D01*
X945Y7172D01*
X943Y7174D01*
X942Y7177D01*
X942Y7179D01*
X941Y7180D01*
Y7180D01*
X935Y7178D01*
X930Y7176D01*
X927Y7173D01*
X924Y7170D01*
X922Y7167D01*
X921Y7165D01*
X920Y7163D01*
Y7163D01*
X919Y7160D01*
X918Y7157D01*
X918Y7149D01*
X918Y7141D01*
X919Y7132D01*
X919Y7124D01*
X920Y7117D01*
X920Y7115D01*
X921Y7113D01*
Y7112D01*
Y7111D01*
X923Y7097D01*
X926Y7084D01*
X929Y7073D01*
X933Y7063D01*
X935Y7056D01*
X937Y7052D01*
X938Y7049D01*
X939Y7047D01*
X939Y7046D01*
X940Y7045D01*
Y7045D01*
X942Y7040D01*
X945Y7036D01*
X948Y7032D01*
X950Y7030D01*
X953Y7028D01*
X955Y7027D01*
X960Y7025D01*
X964Y7025D01*
X968Y7025D01*
X970Y7026D01*
X970Y7026D01*
X977Y7030D01*
X981Y7032D01*
X985Y7034D01*
X989Y7036D01*
X991Y7037D01*
X993Y7037D01*
X993Y7038D01*
X995D01*
Y7036D01*
X994Y7033D01*
X993Y7031D01*
X991Y7027D01*
X989Y7024D01*
X988Y7022D01*
X988Y7021D01*
X984Y7014D01*
X980Y7007D01*
X978Y7000D01*
X975Y6994D01*
X974Y6988D01*
X973Y6984D01*
X972Y6981D01*
Y6980D01*
X970Y6976D01*
X969Y6974D01*
X967Y6972D01*
X965Y6971D01*
X963Y6970D01*
X960D01*
X955Y6972D01*
X950Y6974D01*
X946Y6977D01*
X943Y6979D01*
X942Y6980D01*
X933Y6990D01*
X926Y7000D01*
X919Y7011D01*
X914Y7021D01*
X910Y7030D01*
X909Y7034D01*
X908Y7038D01*
X907Y7041D01*
X906Y7043D01*
X905Y7044D01*
Y7045D01*
X902Y7059D01*
X898Y7073D01*
X896Y7085D01*
X894Y7095D01*
X893Y7103D01*
Y7106D01*
X892Y7108D01*
X892Y7111D01*
Y7112D01*
Y7113D01*
Y7113D01*
X890Y7123D01*
X889Y7131D01*
X887Y7138D01*
X885Y7144D01*
X883Y7149D01*
X882Y7152D01*
X880Y7154D01*
X880Y7154D01*
X877Y7159D01*
X877Y7164D01*
Y7168D01*
X878Y7172D01*
X880Y7174D01*
X882Y7177D01*
X883Y7178D01*
X883Y7178D01*
X888Y7182D01*
X893Y7184D01*
X897Y7185D01*
X900Y7187D01*
X903Y7187D01*
X905Y7188D01*
X908D01*
X917Y7188D01*
X922D01*
X927Y7189D01*
X930Y7189D01*
X933D01*
X935Y7190D01*
X936D01*
X934Y7195D01*
X933Y7199D01*
X932Y7202D01*
X930Y7205D01*
X929Y7207D01*
X929Y7208D01*
X928Y7209D01*
X928Y7212D01*
X929Y7216D01*
X931Y7220D01*
X934Y7224D01*
X938Y7228D01*
X940Y7232D01*
X943Y7234D01*
X943Y7234D01*
X927Y7238D01*
X913Y7241D01*
X901Y7244D01*
X891Y7246D01*
X883Y7248D01*
X880Y7249D01*
X877Y7249D01*
X875Y7250D01*
X873D01*
X873Y7250D01*
X872D01*
X868Y7252D01*
X864Y7253D01*
X861Y7255D01*
X858Y7257D01*
X857Y7259D01*
X856Y7260D01*
X855Y7264D01*
Y7266D01*
X856Y7269D01*
X857Y7271D01*
X858Y7272D01*
X863Y7276D01*
X868Y7279D01*
X874Y7280D01*
X879Y7281D01*
X883D01*
X887Y7280D01*
D02*
G37*
G36*
X2554Y7340D02*
X2559Y7339D01*
X2561Y7338D01*
X2562Y7338D01*
X2567Y7336D01*
X2572Y7334D01*
X2579Y7332D01*
X2587Y7330D01*
X2595Y7328D01*
X2604Y7326D01*
X2621Y7323D01*
X2630Y7321D01*
X2638Y7320D01*
X2645Y7319D01*
X2652Y7318D01*
X2658Y7316D01*
X2661Y7316D01*
X2664Y7315D01*
X2665D01*
X2696Y7311D01*
X2727Y7307D01*
X2742Y7305D01*
X2756Y7304D01*
X2770Y7302D01*
X2782Y7300D01*
X2794Y7299D01*
X2805Y7298D01*
X2814Y7298D01*
X2822Y7296D01*
X2829Y7296D01*
X2834D01*
X2836Y7295D01*
X2837D01*
X2839Y7304D01*
X2841Y7310D01*
X2842Y7316D01*
X2844Y7321D01*
X2845Y7324D01*
X2847Y7328D01*
X2848Y7329D01*
X2849Y7331D01*
X2851Y7333D01*
X2853D01*
X2854Y7332D01*
X2854Y7331D01*
X2857Y7327D01*
X2859Y7322D01*
X2864Y7311D01*
X2866Y7306D01*
X2867Y7303D01*
X2869Y7300D01*
X2869Y7299D01*
X2872Y7291D01*
X2876Y7284D01*
X2880Y7277D01*
X2883Y7272D01*
X2887Y7267D01*
X2890Y7264D01*
X2892Y7262D01*
X2892Y7261D01*
X2897Y7255D01*
X2900Y7248D01*
X2901Y7240D01*
X2902Y7234D01*
X2901Y7228D01*
X2901Y7222D01*
X2900Y7219D01*
X2900Y7218D01*
Y7218D01*
X2898Y7213D01*
X2896Y7210D01*
X2893Y7208D01*
X2891Y7207D01*
X2889Y7206D01*
X2886Y7207D01*
X2883Y7207D01*
X2881Y7209D01*
X2876Y7212D01*
X2872Y7216D01*
X2870Y7219D01*
X2869Y7220D01*
Y7220D01*
X2861Y7232D01*
X2855Y7243D01*
X2849Y7253D01*
X2845Y7263D01*
X2841Y7270D01*
X2839Y7276D01*
X2839Y7279D01*
X2838Y7280D01*
X2837Y7281D01*
Y7281D01*
X2834Y7281D01*
X2824D01*
X2817Y7281D01*
X2809Y7282D01*
X2800Y7283D01*
X2783Y7284D01*
X2774Y7285D01*
X2766Y7285D01*
X2758Y7286D01*
X2751Y7286D01*
X2745Y7287D01*
X2741Y7288D01*
X2738Y7288D01*
X2737D01*
X2721Y7290D01*
X2705Y7291D01*
X2691Y7293D01*
X2678Y7295D01*
X2665Y7296D01*
X2654Y7298D01*
X2644Y7299D01*
X2634Y7300D01*
X2626Y7301D01*
X2619Y7301D01*
X2613Y7303D01*
X2608Y7303D01*
X2604Y7304D01*
X2601D01*
X2599Y7304D01*
X2599D01*
X2590Y7305D01*
X2582Y7306D01*
X2575Y7307D01*
X2569Y7308D01*
X2564Y7308D01*
X2547D01*
X2544Y7308D01*
X2543Y7307D01*
X2542D01*
X2540Y7305D01*
X2539Y7302D01*
Y7298D01*
X2540Y7295D01*
X2541Y7291D01*
X2542Y7289D01*
X2543Y7286D01*
X2543Y7286D01*
X2547Y7279D01*
X2550Y7273D01*
X2554Y7266D01*
X2558Y7260D01*
X2561Y7255D01*
X2564Y7251D01*
X2565Y7248D01*
X2566Y7247D01*
X2568Y7243D01*
X2569Y7240D01*
Y7239D01*
X2569Y7237D01*
X2568Y7237D01*
X2566D01*
X2561Y7237D01*
X2556Y7239D01*
X2551Y7241D01*
X2548Y7243D01*
X2547Y7244D01*
X2546D01*
X2533Y7250D01*
X2521Y7255D01*
X2508Y7258D01*
X2497Y7261D01*
X2488Y7263D01*
X2484Y7263D01*
X2481D01*
X2478Y7264D01*
X2474D01*
X2468Y7264D01*
X2463Y7265D01*
X2459Y7266D01*
X2457Y7268D01*
X2455Y7270D01*
X2454Y7272D01*
X2453Y7274D01*
X2454Y7276D01*
X2456Y7281D01*
X2458Y7284D01*
X2461Y7287D01*
X2461Y7288D01*
X2462D01*
X2471Y7296D01*
X2480Y7304D01*
X2489Y7311D01*
X2497Y7318D01*
X2504Y7323D01*
X2509Y7326D01*
X2512Y7328D01*
X2513Y7329D01*
X2514Y7329D01*
X2514D01*
X2519Y7332D01*
X2524Y7335D01*
X2533Y7338D01*
X2542Y7340D01*
X2549Y7340D01*
X2554Y7340D01*
D02*
G37*
G36*
X732Y7253D02*
X734Y7253D01*
X735Y7252D01*
X740Y7249D01*
X747Y7246D01*
X754Y7243D01*
X762Y7240D01*
X769Y7239D01*
X775Y7237D01*
X777Y7237D01*
X779Y7236D01*
X780Y7235D01*
X781D01*
X793Y7233D01*
X805Y7231D01*
X816Y7229D01*
X826Y7229D01*
X833Y7228D01*
X837Y7228D01*
X849D01*
X853Y7227D01*
X856Y7227D01*
X858Y7225D01*
X858Y7224D01*
X859Y7223D01*
X858Y7221D01*
X856Y7219D01*
X853Y7217D01*
X852Y7215D01*
X851Y7214D01*
X843Y7210D01*
X836Y7208D01*
X829Y7206D01*
X824Y7205D01*
X818D01*
X816Y7206D01*
X816D01*
X810Y7208D01*
X803Y7210D01*
X796Y7213D01*
X789Y7214D01*
X783Y7217D01*
X777Y7218D01*
X775Y7219D01*
X773D01*
X773Y7219D01*
X772D01*
X767Y7221D01*
X762Y7222D01*
X758Y7223D01*
X755Y7223D01*
X745D01*
X743Y7222D01*
X741Y7222D01*
X741Y7221D01*
Y7220D01*
Y7219D01*
X741Y7217D01*
X743Y7210D01*
X747Y7203D01*
X751Y7194D01*
X756Y7187D01*
X759Y7180D01*
X761Y7178D01*
X762Y7175D01*
X762Y7174D01*
X763Y7174D01*
X771Y7174D01*
X778Y7175D01*
X784D01*
X788Y7174D01*
X792Y7174D01*
X794Y7173D01*
X796Y7172D01*
X796Y7172D01*
X797Y7170D01*
Y7169D01*
X796Y7168D01*
X794Y7166D01*
X793Y7165D01*
X787Y7160D01*
X782Y7154D01*
X778Y7147D01*
X774Y7140D01*
X772Y7134D01*
X771Y7129D01*
X770Y7126D01*
Y7125D01*
Y7124D01*
X781Y7123D01*
X792Y7121D01*
X802Y7120D01*
X811Y7119D01*
X819Y7118D01*
X827Y7117D01*
X834Y7117D01*
X840Y7116D01*
X846Y7116D01*
X854D01*
X858Y7115D01*
X868D01*
X872Y7114D01*
X874Y7114D01*
X877Y7113D01*
X878Y7112D01*
X878Y7111D01*
Y7109D01*
X877Y7106D01*
X874Y7104D01*
X872Y7103D01*
X872Y7102D01*
X864Y7098D01*
X857Y7095D01*
X851Y7093D01*
X846Y7092D01*
X841Y7092D01*
X834D01*
X831Y7092D01*
X826Y7093D01*
X821Y7093D01*
X816Y7094D01*
X804Y7096D01*
X792Y7098D01*
X781Y7100D01*
X776Y7101D01*
X772Y7102D01*
X768Y7102D01*
X765Y7103D01*
X763Y7103D01*
X763D01*
X761Y7082D01*
X760Y7062D01*
Y7053D01*
Y7045D01*
Y7037D01*
X761Y7029D01*
X761Y7022D01*
X762Y7017D01*
X762Y7011D01*
X763Y7007D01*
X763Y7003D01*
Y7001D01*
X764Y7000D01*
Y6999D01*
X766Y6991D01*
X768Y6984D01*
X770Y6978D01*
X772Y6973D01*
X775Y6968D01*
X778Y6965D01*
X780Y6962D01*
X783Y6960D01*
X788Y6957D01*
X792Y6955D01*
X794Y6955D01*
X796D01*
X804Y6955D01*
X812Y6956D01*
X819Y6956D01*
X826Y6957D01*
X831Y6958D01*
X836Y6958D01*
X838Y6959D01*
X839D01*
X842Y6960D01*
X846D01*
X847Y6959D01*
Y6958D01*
X846Y6957D01*
X843Y6955D01*
X841Y6952D01*
X837Y6949D01*
X834Y6947D01*
X833Y6947D01*
X824Y6941D01*
X817Y6935D01*
X811Y6929D01*
X806Y6924D01*
X802Y6919D01*
X799Y6915D01*
X798Y6913D01*
X798Y6912D01*
X796Y6909D01*
X793Y6907D01*
X791Y6906D01*
X788Y6905D01*
X785D01*
X782Y6906D01*
X776Y6909D01*
X771Y6912D01*
X766Y6915D01*
X763Y6918D01*
X762Y6919D01*
X762D01*
X757Y6924D01*
X752Y6930D01*
X748Y6937D01*
X745Y6944D01*
X740Y6958D01*
X735Y6972D01*
X733Y6979D01*
X732Y6985D01*
X731Y6991D01*
X730Y6996D01*
X730Y7000D01*
X729Y7003D01*
Y7006D01*
Y7006D01*
X727Y7028D01*
X727Y7039D01*
Y7049D01*
Y7058D01*
Y7067D01*
Y7074D01*
X727Y7082D01*
X728Y7088D01*
Y7094D01*
X728Y7099D01*
X729Y7103D01*
X730Y7106D01*
Y7109D01*
X730Y7110D01*
Y7111D01*
X718Y7111D01*
X706Y7112D01*
X696Y7113D01*
X686Y7113D01*
X677Y7114D01*
X669Y7114D01*
X662D01*
X655Y7115D01*
X650Y7116D01*
X641D01*
X637Y7116D01*
X632D01*
X627Y7117D01*
X622Y7117D01*
X619Y7118D01*
X617Y7119D01*
X615Y7121D01*
X614Y7123D01*
X614Y7126D01*
X614Y7129D01*
X616Y7132D01*
X617Y7134D01*
X618Y7135D01*
X621Y7138D01*
X625Y7141D01*
X632Y7144D01*
X641Y7147D01*
X649Y7148D01*
X656D01*
X661Y7147D01*
X663D01*
X665Y7147D01*
X667D01*
X679Y7144D01*
X692Y7142D01*
X703Y7139D01*
X714Y7137D01*
X723Y7135D01*
X727Y7134D01*
X731Y7133D01*
X733Y7133D01*
X735Y7132D01*
X736Y7132D01*
X737D01*
X739Y7139D01*
X741Y7146D01*
X744Y7151D01*
X747Y7156D01*
X750Y7159D01*
X752Y7162D01*
X753Y7164D01*
X753Y7164D01*
X746Y7172D01*
X738Y7179D01*
X732Y7185D01*
X725Y7191D01*
X720Y7196D01*
X714Y7200D01*
X709Y7204D01*
X705Y7207D01*
X697Y7211D01*
X692Y7214D01*
X689Y7215D01*
X688Y7215D01*
X684Y7217D01*
X681Y7219D01*
X680Y7220D01*
X679Y7223D01*
Y7225D01*
X680Y7227D01*
X682Y7231D01*
X686Y7235D01*
X690Y7239D01*
X693Y7241D01*
X693Y7242D01*
X694D01*
X699Y7245D01*
X704Y7248D01*
X712Y7251D01*
X720Y7253D01*
X725Y7254D01*
X730D01*
X732Y7253D01*
D02*
G37*
G36*
X1134Y7265D02*
X1137Y7264D01*
X1139Y7262D01*
X1139Y7260D01*
X1139Y7258D01*
Y7258D01*
X1136Y7252D01*
X1133Y7245D01*
X1130Y7239D01*
X1126Y7233D01*
X1123Y7228D01*
X1121Y7224D01*
X1119Y7222D01*
X1119Y7220D01*
X1114Y7214D01*
X1109Y7209D01*
X1104Y7204D01*
X1100Y7202D01*
X1097Y7199D01*
X1094Y7198D01*
X1093Y7197D01*
X1092D01*
X1090Y7196D01*
X1088D01*
X1085Y7197D01*
X1084Y7198D01*
X1081Y7202D01*
X1079Y7206D01*
X1078Y7210D01*
X1077Y7215D01*
X1076Y7218D01*
Y7218D01*
Y7219D01*
Y7224D01*
X1077Y7228D01*
X1079Y7233D01*
X1081Y7237D01*
X1086Y7244D01*
X1092Y7249D01*
X1099Y7254D01*
X1104Y7257D01*
X1106Y7258D01*
X1108Y7259D01*
X1109Y7260D01*
X1110D01*
X1116Y7262D01*
X1121Y7264D01*
X1125Y7265D01*
X1129Y7265D01*
X1132Y7266D01*
X1134Y7265D01*
D02*
G37*
G36*
X2666Y7244D02*
X2669Y7243D01*
X2670Y7243D01*
X2671Y7242D01*
X2672Y7241D01*
Y7239D01*
X2671Y7237D01*
X2670Y7235D01*
X2670Y7234D01*
X2665Y7229D01*
X2659Y7223D01*
X2654Y7217D01*
X2648Y7210D01*
X2643Y7205D01*
X2639Y7201D01*
X2637Y7198D01*
X2636Y7197D01*
X2627Y7189D01*
X2618Y7182D01*
X2609Y7175D01*
X2601Y7169D01*
X2594Y7163D01*
X2588Y7159D01*
X2586Y7158D01*
X2584Y7157D01*
X2584Y7156D01*
X2583D01*
X2578Y7153D01*
X2573Y7151D01*
X2569Y7150D01*
X2566Y7149D01*
X2563Y7150D01*
X2561Y7151D01*
X2558Y7155D01*
X2555Y7159D01*
X2554Y7164D01*
X2554Y7168D01*
Y7168D01*
Y7169D01*
X2554Y7175D01*
X2555Y7180D01*
X2559Y7190D01*
X2563Y7199D01*
X2569Y7206D01*
X2575Y7212D01*
X2579Y7215D01*
X2583Y7218D01*
X2584Y7219D01*
X2584D01*
X2596Y7225D01*
X2607Y7230D01*
X2618Y7234D01*
X2628Y7238D01*
X2637Y7240D01*
X2640Y7241D01*
X2643Y7242D01*
X2645Y7242D01*
X2647D01*
X2648Y7243D01*
X2649D01*
X2654Y7244D01*
X2659Y7244D01*
X2663D01*
X2666Y7244D01*
D02*
G37*
G36*
X1922Y7210D02*
X1929Y7210D01*
X1935Y7209D01*
X1940D01*
X1944Y7209D01*
X1947Y7208D01*
X1949Y7208D01*
X1950D01*
X1973Y7204D01*
X1997Y7200D01*
X2020Y7196D01*
X2032Y7194D01*
X2042Y7193D01*
X2052Y7191D01*
X2060Y7190D01*
X2068Y7188D01*
X2075Y7188D01*
X2080Y7187D01*
X2085Y7186D01*
X2087Y7185D01*
X2088D01*
X2116Y7182D01*
X2144Y7178D01*
X2156Y7176D01*
X2169Y7175D01*
X2180Y7173D01*
X2190Y7172D01*
X2200Y7171D01*
X2209Y7170D01*
X2216Y7169D01*
X2222Y7169D01*
X2228Y7168D01*
X2231D01*
X2234Y7168D01*
X2235D01*
X2247Y7167D01*
X2259Y7166D01*
X2269Y7165D01*
X2279Y7164D01*
X2287D01*
X2295Y7164D01*
X2301D01*
X2307Y7163D01*
X2320D01*
X2323Y7164D01*
X2335D01*
X2336Y7163D01*
X2337Y7162D01*
Y7161D01*
X2337Y7159D01*
X2334Y7154D01*
X2331Y7151D01*
X2327Y7147D01*
X2324Y7144D01*
X2323Y7144D01*
X2322Y7143D01*
X2316Y7139D01*
X2310Y7137D01*
X2299Y7132D01*
X2287Y7129D01*
X2278Y7128D01*
X2270Y7128D01*
X2266D01*
X2264Y7128D01*
X2261D01*
X2260Y7129D01*
X2258D01*
X2246Y7132D01*
X2232Y7134D01*
X2220Y7137D01*
X2208Y7139D01*
X2197Y7142D01*
X2193Y7142D01*
X2189Y7143D01*
X2185Y7144D01*
X2183D01*
X2181Y7144D01*
X2181D01*
X2163Y7147D01*
X2144Y7150D01*
X2125Y7153D01*
X2107Y7154D01*
X2099Y7156D01*
X2092Y7156D01*
X2085Y7157D01*
X2079Y7157D01*
X2075Y7158D01*
X2071Y7158D01*
X2068D01*
X2044Y7161D01*
X2020Y7162D01*
X2009Y7162D01*
X1999Y7163D01*
X1989Y7163D01*
X1981Y7164D01*
X1965D01*
X1958Y7164D01*
X1913D01*
X1904Y7164D01*
X1897D01*
X1889Y7163D01*
X1877D01*
X1872Y7163D01*
X1867D01*
X1863Y7162D01*
X1861D01*
X1858Y7162D01*
X1845D01*
X1837Y7162D01*
X1832Y7164D01*
X1828Y7165D01*
X1825Y7168D01*
X1823Y7169D01*
X1822Y7170D01*
Y7171D01*
Y7173D01*
X1823Y7175D01*
X1824Y7178D01*
X1826Y7180D01*
X1831Y7185D01*
X1837Y7190D01*
X1843Y7194D01*
X1848Y7198D01*
X1851Y7199D01*
X1852Y7200D01*
X1853Y7200D01*
X1854D01*
X1861Y7203D01*
X1868Y7206D01*
X1884Y7209D01*
X1899Y7210D01*
X1915Y7211D01*
X1922Y7210D01*
D02*
G37*
G36*
X2777Y7245D02*
X2780Y7244D01*
X2781Y7241D01*
X2782Y7238D01*
X2784Y7235D01*
Y7233D01*
Y7232D01*
Y7225D01*
X2785Y7218D01*
X2788Y7210D01*
X2791Y7203D01*
X2795Y7196D01*
X2797Y7191D01*
X2799Y7189D01*
X2800Y7187D01*
X2801Y7187D01*
Y7186D01*
X2809Y7175D01*
X2817Y7165D01*
X2826Y7155D01*
X2834Y7146D01*
X2841Y7139D01*
X2846Y7133D01*
X2849Y7131D01*
X2850Y7129D01*
X2851Y7128D01*
X2851Y7128D01*
X2856Y7123D01*
X2860Y7119D01*
X2862Y7116D01*
X2863Y7114D01*
X2862Y7113D01*
X2862Y7112D01*
X2858D01*
X2853Y7114D01*
X2847Y7116D01*
X2845Y7117D01*
X2844Y7118D01*
X2842Y7118D01*
X2842D01*
X2827Y7126D01*
X2815Y7135D01*
X2803Y7143D01*
X2793Y7152D01*
X2785Y7159D01*
X2782Y7162D01*
X2779Y7165D01*
X2777Y7167D01*
X2775Y7169D01*
X2775Y7169D01*
X2774Y7170D01*
X2769Y7175D01*
X2764Y7180D01*
X2756Y7189D01*
X2749Y7195D01*
X2744Y7200D01*
X2739Y7204D01*
X2736Y7206D01*
X2735Y7207D01*
X2734Y7207D01*
X2733Y7208D01*
X2731Y7210D01*
X2730Y7213D01*
Y7216D01*
X2731Y7219D01*
X2733Y7222D01*
X2735Y7224D01*
X2736Y7225D01*
X2737Y7226D01*
X2743Y7230D01*
X2748Y7234D01*
X2753Y7238D01*
X2758Y7240D01*
X2761Y7243D01*
X2765Y7244D01*
X2767Y7245D01*
X2767D01*
X2770Y7246D01*
X2773D01*
X2777Y7245D01*
D02*
G37*
G36*
X2626Y7121D02*
X2634Y7120D01*
X2641Y7119D01*
X2647Y7117D01*
X2649Y7117D01*
X2650D01*
X2652Y7116D01*
X2652D01*
X2664Y7113D01*
X2675Y7111D01*
X2686Y7108D01*
X2695Y7106D01*
X2703Y7104D01*
X2709Y7103D01*
X2711Y7102D01*
X2713D01*
X2714Y7102D01*
X2714D01*
X2725Y7099D01*
X2735Y7098D01*
X2745Y7097D01*
X2754Y7095D01*
X2761Y7094D01*
X2766Y7093D01*
X2768D01*
X2770Y7093D01*
X2771D01*
X2775Y7092D01*
X2779Y7091D01*
X2781Y7091D01*
X2784Y7089D01*
X2785Y7088D01*
X2785Y7087D01*
Y7085D01*
X2784Y7083D01*
X2782Y7082D01*
X2781Y7081D01*
X2780Y7080D01*
X2776Y7078D01*
X2772Y7077D01*
X2764Y7075D01*
X2754Y7074D01*
X2744Y7074D01*
X2735D01*
X2731Y7074D01*
X2724D01*
X2722Y7075D01*
X2720D01*
X2716Y7069D01*
X2714Y7063D01*
X2711Y7057D01*
X2710Y7051D01*
X2709Y7046D01*
X2709Y7042D01*
Y7039D01*
Y7038D01*
Y6975D01*
X2730Y6972D01*
X2750Y6970D01*
X2759Y6968D01*
X2767Y6967D01*
X2775Y6967D01*
X2782Y6966D01*
X2789Y6965D01*
X2795Y6965D01*
X2801Y6964D01*
X2805Y6963D01*
X2809Y6963D01*
X2811Y6962D01*
X2813D01*
X2829Y6961D01*
X2844Y6960D01*
X2856Y6960D01*
X2866Y6959D01*
X2893D01*
X2896Y6958D01*
X2897Y6957D01*
X2898Y6956D01*
Y6955D01*
X2897Y6952D01*
X2894Y6950D01*
X2891Y6947D01*
X2889Y6945D01*
X2888Y6945D01*
X2878Y6940D01*
X2869Y6936D01*
X2860Y6934D01*
X2851Y6933D01*
X2844Y6932D01*
X2835D01*
X2834Y6933D01*
X2832D01*
X2820Y6935D01*
X2807Y6936D01*
X2794Y6938D01*
X2781Y6940D01*
X2775Y6941D01*
X2769Y6941D01*
X2765Y6942D01*
X2760Y6942D01*
X2757Y6943D01*
X2754Y6944D01*
X2752D01*
X2733Y6946D01*
X2715Y6947D01*
X2699Y6949D01*
X2691Y6950D01*
X2684Y6951D01*
X2678Y6951D01*
X2672Y6952D01*
X2667Y6952D01*
X2663Y6953D01*
X2659D01*
X2657Y6953D01*
X2655D01*
X2637Y6955D01*
X2618Y6955D01*
X2600D01*
X2583Y6955D01*
X2575Y6954D01*
X2569D01*
X2563Y6953D01*
X2557Y6953D01*
X2553D01*
X2550Y6952D01*
X2547D01*
X2536Y6951D01*
X2527Y6951D01*
X2518Y6950D01*
X2487D01*
X2484Y6951D01*
X2481D01*
X2478Y6951D01*
X2476Y6952D01*
X2474Y6952D01*
X2473D01*
X2471Y6953D01*
X2469Y6955D01*
X2469Y6956D01*
X2468Y6958D01*
Y6961D01*
X2470Y6964D01*
X2472Y6967D01*
X2474Y6970D01*
X2476Y6971D01*
X2477Y6972D01*
X2483Y6977D01*
X2490Y6981D01*
X2496Y6983D01*
X2502Y6986D01*
X2508Y6987D01*
X2512Y6988D01*
X2514Y6988D01*
X2516D01*
X2532Y6989D01*
X2547D01*
X2553Y6988D01*
X2558Y6988D01*
X2561Y6987D01*
X2562D01*
X2568Y6987D01*
X2574Y6986D01*
X2582Y6985D01*
X2591Y6985D01*
X2600Y6983D01*
X2610Y6982D01*
X2630Y6981D01*
X2640Y6980D01*
X2649Y6979D01*
X2658Y6978D01*
X2665Y6978D01*
X2671Y6977D01*
X2676D01*
X2679Y6977D01*
X2680D01*
X2679Y6988D01*
X2679Y6997D01*
X2678Y7006D01*
X2677Y7013D01*
X2676Y7020D01*
X2675Y7026D01*
X2674Y7031D01*
X2674Y7035D01*
X2673Y7038D01*
X2673Y7041D01*
X2672Y7043D01*
X2671Y7045D01*
X2670Y7047D01*
Y7047D01*
X2670Y7049D01*
X2669Y7051D01*
X2670Y7056D01*
X2673Y7062D01*
X2676Y7067D01*
X2680Y7072D01*
X2684Y7076D01*
X2686Y7079D01*
X2688Y7080D01*
X2675Y7082D01*
X2664Y7083D01*
X2654Y7085D01*
X2644Y7087D01*
X2636Y7088D01*
X2628Y7089D01*
X2622Y7091D01*
X2615Y7092D01*
X2610Y7093D01*
X2606Y7093D01*
X2603Y7094D01*
X2600Y7095D01*
X2598Y7096D01*
X2596D01*
X2595Y7096D01*
X2590Y7097D01*
X2587Y7099D01*
X2584Y7100D01*
X2582Y7102D01*
X2579Y7104D01*
X2578Y7106D01*
Y7108D01*
X2579Y7110D01*
X2579Y7111D01*
X2580Y7111D01*
X2584Y7114D01*
X2588Y7116D01*
X2595Y7119D01*
X2599Y7121D01*
X2602Y7121D01*
X2604Y7122D01*
X2604D01*
X2610Y7122D01*
X2618D01*
X2626Y7121D01*
D02*
G37*
G36*
X1039Y7169D02*
X1041Y7167D01*
X1043Y7164D01*
X1047Y7159D01*
X1049Y7157D01*
X1050Y7154D01*
X1051Y7153D01*
X1052Y7152D01*
X1058Y7143D01*
X1064Y7134D01*
X1069Y7126D01*
X1074Y7119D01*
X1079Y7112D01*
X1083Y7106D01*
X1087Y7101D01*
X1090Y7096D01*
X1094Y7091D01*
X1096Y7087D01*
X1099Y7084D01*
X1100Y7082D01*
X1102Y7080D01*
X1102Y7078D01*
X1104Y7078D01*
Y7077D01*
X1110Y7069D01*
X1115Y7063D01*
X1120Y7058D01*
X1125Y7055D01*
X1128Y7053D01*
X1131Y7052D01*
X1132Y7051D01*
X1133D01*
X1135Y7049D01*
X1136Y7048D01*
X1136Y7045D01*
Y7042D01*
X1135Y7034D01*
X1133Y7025D01*
X1130Y7017D01*
X1127Y7010D01*
X1126Y7007D01*
X1125Y7005D01*
X1125Y7003D01*
Y7002D01*
X1121Y6995D01*
X1117Y6990D01*
X1115Y6986D01*
X1111Y6984D01*
X1109Y6983D01*
X1106Y6984D01*
X1104Y6985D01*
X1102Y6987D01*
X1099Y6993D01*
X1096Y6999D01*
X1095Y7002D01*
X1095Y7003D01*
X1094Y7005D01*
Y7006D01*
X1092Y7015D01*
X1089Y7025D01*
X1083Y7045D01*
X1076Y7066D01*
X1072Y7076D01*
X1069Y7086D01*
X1065Y7094D01*
X1062Y7103D01*
X1059Y7110D01*
X1056Y7117D01*
X1054Y7122D01*
X1053Y7126D01*
X1051Y7128D01*
X1051Y7129D01*
X1048Y7136D01*
X1045Y7142D01*
X1043Y7147D01*
X1041Y7152D01*
X1040Y7156D01*
X1039Y7159D01*
X1037Y7164D01*
X1036Y7168D01*
X1037Y7169D01*
X1038D01*
X1039Y7169D01*
D02*
G37*
%LPC*%
G36*
X4224Y7845D02*
X4223D01*
Y7768D01*
X4241Y7766D01*
X4258Y7763D01*
X4273Y7761D01*
X4280Y7761D01*
X4286Y7759D01*
X4292Y7759D01*
X4297Y7758D01*
X4302Y7757D01*
X4305D01*
X4308Y7757D01*
X4310Y7756D01*
X4312D01*
X4313Y7769D01*
X4314Y7781D01*
X4315Y7793D01*
X4315Y7805D01*
X4316Y7814D01*
X4317Y7819D01*
Y7822D01*
Y7825D01*
X4317Y7827D01*
Y7828D01*
Y7829D01*
X4302Y7832D01*
X4285Y7834D01*
X4270Y7837D01*
X4255Y7840D01*
X4248Y7841D01*
X4242Y7842D01*
X4237Y7843D01*
X4232Y7844D01*
X4228Y7844D01*
X4225Y7845D01*
X4224Y7845D01*
D02*
G37*
G36*
X6706Y7897D02*
X6705D01*
X6707Y7859D01*
X6717Y7856D01*
X6726Y7853D01*
X6735Y7850D01*
X6743Y7848D01*
X6750Y7845D01*
X6755Y7844D01*
X6758Y7843D01*
X6758Y7843D01*
X6759D01*
Y7847D01*
X6760Y7853D01*
X6760Y7860D01*
X6761Y7867D01*
X6762Y7874D01*
X6763Y7880D01*
Y7882D01*
X6763Y7883D01*
Y7884D01*
Y7885D01*
X6755Y7887D01*
X6746Y7889D01*
X6736Y7891D01*
X6726Y7893D01*
X6718Y7894D01*
X6715Y7895D01*
X6711Y7895D01*
X6709Y7896D01*
X6707D01*
X6706Y7897D01*
D02*
G37*
G36*
X6702Y7778D02*
X6695D01*
X6694Y7778D01*
X6692Y7776D01*
X6692Y7774D01*
X6691Y7772D01*
Y7765D01*
X6692Y7757D01*
X6693Y7750D01*
X6695Y7743D01*
Y7741D01*
X6695Y7739D01*
X6696Y7738D01*
Y7737D01*
X6701Y7736D01*
X6707Y7735D01*
X6713Y7734D01*
X6719Y7733D01*
X6724Y7732D01*
X6727Y7731D01*
X6730Y7731D01*
X6731D01*
X6730Y7746D01*
Y7753D01*
X6730Y7759D01*
X6729Y7765D01*
Y7769D01*
X6729Y7772D01*
Y7773D01*
X6720Y7775D01*
X6712Y7777D01*
X6706Y7777D01*
X6702Y7778D01*
D02*
G37*
G36*
X6752Y7771D02*
X6752D01*
Y7728D01*
X6764Y7726D01*
X6774Y7724D01*
X6783Y7722D01*
X6790Y7721D01*
X6795Y7720D01*
X6798Y7720D01*
X6801Y7719D01*
X6801D01*
X6811Y7761D01*
X6803Y7762D01*
X6793Y7763D01*
X6783Y7765D01*
X6774Y7767D01*
X6766Y7768D01*
X6762Y7769D01*
X6758Y7769D01*
X6756Y7770D01*
X6754D01*
X6752Y7771D01*
D02*
G37*
G36*
X1518Y7247D02*
X1511D01*
X1508Y7247D01*
X1506Y7245D01*
X1504Y7243D01*
X1503Y7241D01*
X1501Y7235D01*
X1500Y7229D01*
Y7223D01*
X1501Y7218D01*
Y7215D01*
X1502Y7214D01*
Y7213D01*
Y7212D01*
X1504Y7199D01*
X1507Y7187D01*
X1509Y7175D01*
X1513Y7165D01*
X1515Y7156D01*
X1517Y7153D01*
X1517Y7149D01*
X1518Y7147D01*
X1519Y7145D01*
X1519Y7144D01*
Y7143D01*
X1524D01*
X1530Y7143D01*
X1537Y7142D01*
X1544Y7141D01*
X1560Y7137D01*
X1577Y7134D01*
X1585Y7132D01*
X1593Y7131D01*
X1599Y7129D01*
X1605Y7127D01*
X1610Y7126D01*
X1614Y7125D01*
X1616Y7124D01*
X1618D01*
X1619Y7132D01*
X1621Y7139D01*
X1623Y7147D01*
X1624Y7152D01*
X1625Y7157D01*
X1626Y7161D01*
X1627Y7163D01*
Y7164D01*
X1614Y7166D01*
X1601Y7168D01*
X1589Y7170D01*
X1578Y7173D01*
X1569Y7175D01*
X1566Y7176D01*
X1563Y7177D01*
X1560Y7177D01*
X1558Y7178D01*
X1557Y7178D01*
X1556D01*
X1550Y7180D01*
X1545Y7182D01*
X1541Y7184D01*
X1538Y7185D01*
X1535Y7187D01*
X1534Y7189D01*
X1533Y7191D01*
X1532Y7192D01*
Y7195D01*
X1532Y7197D01*
X1533Y7199D01*
X1533Y7199D01*
X1538Y7203D01*
X1544Y7204D01*
X1550D01*
X1557Y7204D01*
X1563Y7203D01*
X1568Y7201D01*
X1571Y7200D01*
X1571Y7199D01*
X1572D01*
X1592Y7192D01*
X1602Y7188D01*
X1610Y7185D01*
X1618Y7183D01*
X1624Y7182D01*
X1626Y7181D01*
X1628D01*
X1629Y7180D01*
X1629D01*
X1631Y7189D01*
X1632Y7197D01*
X1633Y7203D01*
X1634Y7209D01*
X1635Y7214D01*
X1635Y7218D01*
X1636Y7220D01*
Y7220D01*
X1621Y7224D01*
X1608Y7228D01*
X1595Y7230D01*
X1584Y7233D01*
X1575Y7236D01*
X1571Y7237D01*
X1568Y7238D01*
X1565Y7238D01*
X1563Y7239D01*
X1562Y7239D01*
X1561D01*
X1549Y7243D01*
X1539Y7244D01*
X1530Y7246D01*
X1523Y7247D01*
X1518Y7247D01*
D02*
G37*
G36*
X3839Y7081D02*
X3829D01*
X3825Y7080D01*
X3821Y7079D01*
X3819Y7079D01*
X3814Y7078D01*
X3812Y7077D01*
X3811Y7076D01*
X3810Y7075D01*
X3809Y7071D01*
X3808Y7066D01*
X3807Y7060D01*
Y7054D01*
Y7048D01*
X3808Y7044D01*
X3808Y7041D01*
Y7041D01*
Y7040D01*
X3810Y7030D01*
X3811Y7020D01*
X3814Y7009D01*
X3816Y6999D01*
X3818Y6990D01*
X3819Y6986D01*
X3819Y6983D01*
X3820Y6981D01*
X3820Y6978D01*
X3821Y6977D01*
Y6977D01*
X3846Y6974D01*
X3873Y6972D01*
X3897Y6969D01*
X3909Y6968D01*
X3920Y6967D01*
X3930Y6966D01*
X3939Y6966D01*
X3947Y6965D01*
X3955Y6964D01*
X3960Y6963D01*
X3965D01*
X3967Y6963D01*
X3968D01*
X3969Y6983D01*
X3970Y7002D01*
X3970Y7011D01*
X3971Y7018D01*
X3971Y7026D01*
Y7033D01*
X3972Y7040D01*
Y7045D01*
X3972Y7049D01*
Y7054D01*
X3973Y7057D01*
Y7059D01*
Y7061D01*
Y7061D01*
X3960Y7063D01*
X3948Y7065D01*
X3936Y7067D01*
X3925Y7069D01*
X3915Y7071D01*
X3906Y7072D01*
X3897Y7073D01*
X3890Y7074D01*
X3882Y7075D01*
X3876Y7076D01*
X3871Y7077D01*
X3867Y7077D01*
X3864Y7078D01*
X3861Y7078D01*
X3859D01*
X3851Y7079D01*
X3845Y7080D01*
X3839Y7081D01*
D02*
G37*
%LPD*%
D11*
X11024Y0D02*
G03*
X11811Y787I0J787D01*
G01*
Y11024D02*
G03*
X11024Y11811I-787J0D01*
G01*
X787D02*
G03*
X0Y11024I0J-787D01*
G01*
Y787D02*
G03*
X787Y0I787J0D01*
G01*
X9843Y0D02*
X11024D01*
X9449Y394D02*
X9843Y0D01*
X2362Y394D02*
X9449D01*
X1969Y0D02*
X2362Y394D01*
X787Y0D02*
X1969D01*
X11811Y787D02*
Y11024D01*
X787Y11811D02*
X11024D01*
X0Y787D02*
Y11024D01*
M02*
