M48
;Layer_Color=9474304
;FILE_FORMAT=2:4
INCH,LZ
;TYPE=PLATED
T1F00S00C0.0100
T2F00S00C0.0315
T3F00S00C0.0319
T4F00S00C0.1260
%
T01
X001936Y002346
X001706Y002936
X001496Y003636
X002352Y003745
X002356Y005116
X00296Y00538
X00398Y00573
X0049Y00551
X004922Y003326
X0055Y00282
X005512Y002362
X005968Y002431
X006305Y004326
X00748Y00602
X001476Y005996
X0027Y00269
X009302Y003016
X00969Y00287
X00946Y00411
X010326Y00443
X01034Y00538
X01002Y006905
X010806Y007016
X007996Y006926
X008724Y000806
X00906Y00985
X00448Y01063
T02
X000912Y009568
X000635Y010236
X000912Y010904
X00158Y011181
X002248Y010904
X002525Y010236
X002248Y009568
X00158Y009291
T03
X008693Y01063
X007693
X006693
X005693
T04
X001575Y010236
M30
