G04*
G04 #@! TF.GenerationSoftware,Altium Limited,Altium Designer,18.1.9 (240)*
G04*
G04 Layer_Color=8421504*
%FSLAX24Y24*%
%MOIN*%
G70*
G01*
G75*
%ADD11C,0.0100*%
%ADD16R,0.0386X0.0366*%
%ADD17R,0.0154X0.1181*%
%ADD18R,0.0366X0.0386*%
%ADD19R,0.0492X0.0276*%
%ADD20R,0.0492X0.0276*%
%ADD21R,0.0386X0.0366*%
%ADD22R,0.0366X0.0386*%
%ADD23R,0.0500X0.0787*%
%ADD24R,0.0252X0.0197*%
D11*
X11024Y0D02*
G03*
X11811Y787I0J787D01*
G01*
Y11024D02*
G03*
X11024Y11811I-787J0D01*
G01*
X787D02*
G03*
X0Y11024I0J-787D01*
G01*
Y787D02*
G03*
X787Y0I787J0D01*
G01*
X9843Y0D02*
X11024D01*
X9449Y394D02*
X9843Y0D01*
X2362Y394D02*
X9449D01*
X1969Y0D02*
X2362Y394D01*
X787Y0D02*
X1969D01*
X11811Y787D02*
Y11024D01*
X787Y11811D02*
X11024D01*
X0Y787D02*
Y11024D01*
D16*
X5903Y4241D02*
D03*
X5905Y3634D02*
D03*
X1984D02*
D03*
X1982Y4241D02*
D03*
X6889Y3634D02*
D03*
X6887Y4241D02*
D03*
X4922Y3634D02*
D03*
X4920Y4241D02*
D03*
X3938Y3634D02*
D03*
X3936Y4241D02*
D03*
X2955Y3634D02*
D03*
X2953Y4241D02*
D03*
X1002Y3634D02*
D03*
X1000Y4241D02*
D03*
X2971Y5996D02*
D03*
X2969Y6603D02*
D03*
X1986Y5996D02*
D03*
X1984Y6603D02*
D03*
X1002Y5996D02*
D03*
X1000Y6603D02*
D03*
D17*
X9827Y1575D02*
D03*
X9551D02*
D03*
X9276D02*
D03*
X9000D02*
D03*
X8724D02*
D03*
X8449D02*
D03*
X8173D02*
D03*
X7898D02*
D03*
X7622D02*
D03*
X7346D02*
D03*
X7071D02*
D03*
X6795D02*
D03*
X6520D02*
D03*
X6244D02*
D03*
X5968D02*
D03*
X5693D02*
D03*
X1835D02*
D03*
X2110D02*
D03*
X2386D02*
D03*
X2661D02*
D03*
X2937D02*
D03*
X3213D02*
D03*
X3488D02*
D03*
X3764D02*
D03*
X4039D02*
D03*
X4315D02*
D03*
X4591D02*
D03*
X4866D02*
D03*
X5142D02*
D03*
X5417D02*
D03*
D18*
X10236Y9449D02*
D03*
X10843Y9451D02*
D03*
D19*
X10138Y8248D02*
D03*
Y7500D02*
D03*
D20*
X11122Y7874D02*
D03*
D21*
X8858Y4235D02*
D03*
Y3628D02*
D03*
X7875Y3625D02*
D03*
Y4232D02*
D03*
D22*
X8645Y9055D02*
D03*
X9252D02*
D03*
X8645Y8071D02*
D03*
X9252D02*
D03*
X9255Y7087D02*
D03*
X8648D02*
D03*
X8645Y6102D02*
D03*
X9252D02*
D03*
D23*
X10324Y3740D02*
D03*
X11024D02*
D03*
D24*
X10055Y5906D02*
D03*
X10630D02*
D03*
M02*
